0
SECTION
2
HEADER
999
*** POWERPCB  HEADER ***
9
$EXTMIN
10
-0.1
20
-0.1
9
$EXTMAX
10
20.6
20
13.1
9
$FILLMODE
70
0
9
$GRIDMODE
70
1
9
$GRIDUNIT
10
25.4
20
25.4
9
$INSBASE
10
0
20
0
9
$LIMCHECK
70
0
9
$PLINEWID
40
0.0254
9
$SNAPMODE
70
1
9
$SNAPUNIT
10
0.0254
20
0.0254
9
$TEXTSIZE
40
2.54
9
$TEXTSTYLE
7
W0$254
9
$USERI1
70
101
9
$USERI2
70
1
9
$USERI5
70
150
9
$VIEWCTR
10
11.90839
20
5.57067
0
ENDSEC
0
SECTION
2
TABLES
999
*** POWERPCB  LTYPE ***
0
TABLE
2
LTYPE
70
1
0
LTYPE
2
CONTINUOUS
70
64
3
---
72
65
73
0
40
0
0
LTYPE
2
KEEPOUT_00011110$0
70
64
3
---
72
65
73
2
40
2
49
1
49
1
0
ENDTAB
999
*** POWERPCB  LAYER ***
0
TABLE
2
LAYER
70
46
0
LAYER
2
DBLAYERS
70
1
62
-4
6
CONTINUOUS
0
LAYER
2
BOARD_OUTLINE_00
70
0
62
4
6
CONTINUOUS
0
LAYER
2
TEXT_129
70
1
62
-56
6
CONTINUOUS
0
LAYER
2
TEXT_126
70
0
62
254
6
CONTINUOUS
0
LAYER
2
LABEL_INFO
70
1
62
-4
6
CONTINUOUS
0
LAYER
2
LABEL_ATTRIBUTE
70
1
62
-4
6
CONTINUOUS
0
LAYER
2
PART_TYPE_01
70
1
62
-1
6
CONTINUOUS
0
LAYER
2
PART_NAME_TOP
70
1
62
-250
6
CONTINUOUS
0
LAYER
2
PART_INFO
70
1
62
-4
6
CONTINUOUS
0
LAYER
2
PART_PTS
70
1
62
-4
6
CONTINUOUS
0
LAYER
2
PART_NAME_01
70
1
62
-1
6
CONTINUOUS
0
LAYER
2
ATTRIBUTE_126
70
1
62
-2
6
CONTINUOUS
0
LAYER
2
PART_TYPE_TOP
70
1
62
-250
6
CONTINUOUS
0
LAYER
2
SYM_NAME
70
1
62
-4
6
CONTINUOUS
0
LAYER
2
SYM_PART_TYPE_01
70
1
62
-4
6
CONTINUOUS
0
LAYER
2
SYM_PART_NAME_01
70
1
62
-4
6
CONTINUOUS
0
LAYER
2
SYM_TERMINAL
70
1
62
-4
6
CONTINUOUS
0
LAYER
2
PKG_INFO
70
1
62
-4
6
CONTINUOUS
0
LAYER
2
SYM_PART_NAME_126
70
1
62
-4
6
CONTINUOUS
0
LAYER
2
SYM_ATTRIBUTE_126
70
1
62
-4
6
CONTINUOUS
0
LAYER
2
PART_TOP_COPPER_121
70
1
62
-216
6
CONTINUOUS
0
LAYER
2
KEEPOUT_01
70
1
62
-1
6
CONTINUOUS
0
LAYER
2
DRIL_PLTE_THRU_01
70
0
62
176
6
CONTINUOUS
0
LAYER
2
DRIL_PLTE_THRU_02
70
1
62
-250
6
CONTINUOUS
0
LAYER
2
DRIL_PLTE_THRU_03
70
0
62
3
6
CONTINUOUS
0
LAYER
2
DRIL_PLTE_THRU_04
70
0
62
23
6
CONTINUOUS
0
LAYER
2
PADS_INNER
70
0
62
254
6
CONTINUOUS
0
LAYER
2
PADS_BOT
70
0
62
231
6
CONTINUOUS
0
LAYER
2
PADS_XR_125
70
1
62
-16
6
CONTINUOUS
0
LAYER
2
PADS_TOP
70
0
62
254
6
CONTINUOUS
0
LAYER
2
PART_TOP_2DLINE_126
70
0
62
254
6
CONTINUOUS
0
LAYER
2
DRIL_NPLTE_THRU_01
70
0
62
176
6
CONTINUOUS
0
LAYER
2
DRIL_NPLTE_THRU_02
70
1
62
-250
6
CONTINUOUS
0
LAYER
2
DRIL_NPLTE_THRU_03
70
0
62
3
6
CONTINUOUS
0
LAYER
2
DRIL_NPLTE_THRU_04
70
0
62
23
6
CONTINUOUS
0
LAYER
2
PART_TOP_2DLINE_01
70
0
62
254
6
CONTINUOUS
0
LAYER
2
PART_TOP_2DLINE_120
70
1
62
-250
6
CONTINUOUS
0
LAYER
2
TAG_01
70
0
62
4
6
CONTINUOUS
0
LAYER
2
TAG_00
70
0
62
4
6
CONTINUOUS
0
LAYER
2
PADS_XR_121
70
1
62
-216
6
CONTINUOUS
0
LAYER
2
PADS_XR_123
70
1
62
-253
6
CONTINUOUS
0
LAYER
2
PART_TOP_2DLINE_00
70
0
62
254
6
CONTINUOUS
0
LAYER
2
PART_TOP_2DLINE_127
70
1
62
-250
6
CONTINUOUS
0
LAYER
2
PART_TOP_2DLINE_130
70
1
62
-250
6
CONTINUOUS
0
LAYER
2
PCB_PARAMS
70
1
62
-4
6
CONTINUOUS
0
LAYER
2
DRIL_SYMBOL
70
0
62
4
6
CONTINUOUS
0
ENDTAB
999
*** POWERPCB  TEXT STYLE ***
0
TABLE
2
STYLE
70
10
0
STYLE
2
W0$127
70
64
40
0
41
0.75
42
0
50
0
71
0
3
simplex
0
STYLE
2
W0$1524
70
64
40
0
41
0.75
42
0
50
0
71
0
3
simplex
0
STYLE
2
W0$254
70
64
40
0
41
0.75
42
0
50
0
71
0
3
simplex
0
STYLE
2
W0$1016
70
64
40
0
41
0.75
42
0
50
0
71
0
3
simplex
0
STYLE
2
W0$1397
70
64
40
0
41
0.75
42
0
50
0
71
0
3
simplex
0
STYLE
2
W0$127R0
70
64
40
0
41
0.75
42
0
50
0
71
0
3
simplex
0
STYLE
2
W0$1397R0
70
64
40
0
41
0.75
42
0
50
0
71
0
3
simplex
0
STYLE
2
W0$1016R0
70
64
40
0
41
0.75
42
0
50
0
71
0
3
simplex
0
STYLE
2
W0$254R0
70
64
40
0
41
0.75
42
0
50
0
71
0
3
simplex
0
STYLE
2
W0$15R0
70
64
40
0
41
0.75
42
0
50
0
71
0
3
simplex
0
ENDTAB
0
ENDSEC
0
SECTION
2
BLOCKS
999
*** POWERPCB  DBLAYER ***
0
BLOCK
2
DBLAYERS
8
0
10
0
20
0
3
DBLAYERS
70
64
0
TEXT
8
DBLAYERS
10
0
20
-3.048
40
1.778
1
__It__Is__Job__Name__:=PX4FMUV5-IMU-V1.1.pcb
999
 *  1.Number             2.Type                  3.RouteColor
999
 *  4.ViaColor           5.PadColor              6.CopperColor
999
 *  7.2DLineColor        8.TextColor             9.ErrorColor
999
 * 10.TopComponentColor 11.BottomComponentColor 12.RoutingDirection
999
 * 13.LayerThickness    14.CopperThickness      15.Dielectric
999
 * 16.IsRouteable       17.IsVisible            18.IsSelectable
999
 * 19.IsPrepreg         20.AssSilkScreen        21.AssPasteMask
999
 * 22.AssSolderMask     23.AssAssembly
0
TEXT
8
DBLAYERS
10
0
20
-6.096
40
1.778
1
<所有层>:=0 0 0 16 8 2 14 12 12 8 12 2 0 0 3.2999999523 0 1 1 0 -1 -1 -1 -1 0 0 0 12 12 12 12 
0
TEXT
8
DBLAYERS
10
0
20
-9.144
40
1.778
1
Top:=1 1 2 16 8 2 14 12 12 8 12 2 0 0 3.2999999523 1 1 1 0 126 123 121 -1 0 0 1 12 12 12 12 
0
TEXT
8
DBLAYERS
10
0
20
-12.192
40
1.778
1
内层 2:=2 1 16 16 0 16 0 0 0 0 0 1 381000 51435 4.3000001907 1 1 1 0 129 122 128 -1 0 0 0 0 0 0 0 
0
TEXT
8
DBLAYERS
10
0
20
-15.24
40
1.778
1
内层 3:=3 1 11 11 2 0 0 0 12 0 0 0 381000 51435 4.3000001907 1 1 1 0 129 122 128 -1 0 0 0 0 0 0 0 
0
TEXT
8
DBLAYERS
10
0
20
-18.288
40
1.778
1
Bottom:=4 1 4 16 28 4 9 9 9 9 9 2 0 0 3.2999999523 1 1 1 0 129 122 128 -1 0 0 1 9 9 9 9 
0
TEXT
8
DBLAYERS
10
0
20
-21.336
40
1.778
1
Layer_5:=5 0 0 0 0 0 0 0 0 0 0 0 381000 51435 4.3000001907 0 0 0 0 -1 -1 -1 -1 0 0 0 0 0 0 0 
0
TEXT
8
DBLAYERS
10
0
20
-24.384
40
1.778
1
Layer_6:=6 0 0 0 0 0 0 0 0 0 0 2 0 0 3.2999999523 0 0 0 0 129 122 128 -1 0 0 0 0 0 0 0 
0
TEXT
8
DBLAYERS
10
0
20
-27.432
40
1.778
1
Layer_7:=7 0 0 0 0 0 0 0 0 0 0 2 0 0 3.2999999523 0 0 1 0 -1 -1 -1 -1 0 0 0 0 0 0 0 
0
TEXT
8
DBLAYERS
10
0
20
-30.48
40
1.778
1
Layer_8:=8 0 0 0 0 0 0 0 0 0 0 2 0 0 3.2999999523 0 0 1 0 -1 -1 -1 -1 0 0 0 0 0 0 0 
0
TEXT
8
DBLAYERS
10
0
20
-33.528
40
1.778
1
Layer_9:=9 0 0 0 0 0 0 0 0 0 0 2 0 0 3.2999999523 0 0 1 0 -1 -1 -1 -1 0 0 0 0 0 0 0 
0
TEXT
8
DBLAYERS
10
0
20
-36.576
40
1.778
1
Layer_10:=10 0 0 0 0 0 0 0 0 0 0 2 0 0 3.2999999523 0 0 1 0 -1 -1 -1 -1 0 0 0 0 0 0 0 
0
TEXT
8
DBLAYERS
10
0
20
-39.624
40
1.778
1
Layer_11:=11 0 0 0 0 0 0 0 0 0 0 2 0 0 3.2999999523 0 0 1 0 -1 -1 -1 -1 0 0 0 0 0 0 0 
0
TEXT
8
DBLAYERS
10
0
20
-42.672
40
1.778
1
Layer_12:=12 0 0 0 0 0 0 0 0 0 0 2 0 0 3.2999999523 0 0 1 0 -1 -1 -1 -1 0 0 0 0 0 0 0 
0
TEXT
8
DBLAYERS
10
0
20
-45.72
40
1.778
1
Layer_13:=13 0 0 0 0 0 0 0 0 0 0 2 0 0 3.2999999523 0 0 1 0 -1 -1 -1 -1 0 0 0 0 0 0 0 
0
TEXT
8
DBLAYERS
10
0
20
-48.768
40
1.778
1
Layer_14:=14 0 0 0 0 0 0 0 0 0 0 2 0 0 3.2999999523 0 0 1 0 -1 -1 -1 -1 0 0 0 0 0 0 0 
0
TEXT
8
DBLAYERS
10
0
20
-51.816
40
1.778
1
Layer_15:=15 0 0 0 0 0 0 0 0 0 0 2 0 0 3.2999999523 0 0 1 0 -1 -1 -1 -1 0 0 0 0 0 0 0 
0
TEXT
8
DBLAYERS
10
0
20
-54.864
40
1.778
1
Layer_16:=16 0 0 0 0 0 0 0 0 0 0 2 0 0 3.2999999523 0 0 1 0 -1 -1 -1 -1 0 0 0 0 0 0 0 
0
TEXT
8
DBLAYERS
10
0
20
-57.912
40
1.778
1
Layer_17:=17 0 0 0 0 0 0 0 0 0 0 2 0 0 3.2999999523 0 0 1 0 -1 -1 -1 -1 0 0 0 0 0 0 0 
0
TEXT
8
DBLAYERS
10
0
20
-60.96
40
1.778
1
Layer_18:=18 0 0 0 0 0 0 0 0 0 0 2 0 0 3.2999999523 0 0 1 0 -1 -1 -1 -1 0 0 0 0 0 0 0 
0
TEXT
8
DBLAYERS
10
0
20
-64.008
40
1.778
1
Layer_19:=19 0 0 0 0 0 0 0 0 0 0 2 0 0 3.2999999523 0 0 1 0 -1 -1 -1 -1 0 0 0 0 0 0 0 
0
TEXT
8
DBLAYERS
10
0
20
-67.056
40
1.778
1
Layer_20:=20 0 0 0 0 0 0 0 0 0 0 2 0 0 3.2999999523 0 0 1 0 -1 -1 -1 -1 0 0 0 0 0 0 0 
0
TEXT
8
DBLAYERS
10
0
20
-70.104
40
1.778
1
Layer_21:=21 0 0 0 0 0 0 0 0 0 0 2 0 0 3.2999999523 0 0 1 0 -1 -1 -1 -1 0 0 0 0 0 0 0 
0
TEXT
8
DBLAYERS
10
0
20
-73.152
40
1.778
1
Layer_22:=22 0 0 0 0 0 0 0 0 0 0 2 0 0 3.2999999523 0 0 1 0 -1 -1 -1 -1 0 0 0 0 0 0 0 
0
TEXT
8
DBLAYERS
10
0
20
-76.2
40
1.778
1
Layer_23:=23 0 0 0 0 0 0 0 0 0 0 2 0 0 3.2999999523 0 0 1 0 -1 -1 -1 -1 0 0 0 0 0 0 0 
0
TEXT
8
DBLAYERS
10
0
20
-79.248
40
1.778
1
Layer_24:=24 0 0 0 0 0 0 0 0 0 0 2 0 0 3.2999999523 0 0 1 0 -1 -1 -1 -1 0 0 0 0 0 0 0 
0
TEXT
8
DBLAYERS
10
0
20
-82.296
40
1.778
1
Layer_25:=25 0 0 0 0 0 0 0 0 0 0 2 0 0 3.2999999523 0 0 1 0 -1 -1 -1 -1 0 0 0 0 0 0 0 
0
TEXT
8
DBLAYERS
10
0
20
-85.344
40
1.778
1
Layer_26:=26 0 0 0 0 0 0 0 0 0 0 2 0 0 3.2999999523 0 0 1 0 -1 -1 -1 -1 0 0 0 0 0 0 0 
0
TEXT
8
DBLAYERS
10
0
20
-88.392
40
1.778
1
Layer_27:=27 0 0 0 0 0 0 0 0 0 0 2 0 0 3.2999999523 0 0 1 0 -1 -1 -1 -1 0 0 0 0 0 0 0 
0
TEXT
8
DBLAYERS
10
0
20
-91.44
40
1.778
1
Layer_28:=28 0 0 0 0 0 0 0 0 0 0 2 0 0 3.2999999523 0 0 1 0 -1 -1 -1 -1 0 0 0 0 0 0 0 
0
TEXT
8
DBLAYERS
10
0
20
-94.488
40
1.778
1
Layer_29:=29 0 0 0 0 0 0 0 0 0 0 2 0 0 3.2999999523 0 0 1 0 -1 -1 -1 -1 0 0 0 0 0 0 0 
0
TEXT
8
DBLAYERS
10
0
20
-97.536
40
1.778
1
Layer_30:=30 0 0 0 0 0 0 0 0 0 0 2 0 0 3.2999999523 0 0 1 0 -1 -1 -1 -1 0 0 0 0 0 0 0 
0
TEXT
8
DBLAYERS
10
0
20
-100.584
40
1.778
1
Layer_31:=31 0 0 0 0 0 0 0 0 0 0 2 0 0 3.2999999523 0 0 1 0 -1 -1 -1 -1 0 0 0 0 0 0 0 
0
TEXT
8
DBLAYERS
10
0
20
-103.632
40
1.778
1
Layer_32:=32 0 0 0 0 0 0 0 0 0 0 2 0 0 3.2999999523 0 0 1 0 -1 -1 -1 -1 0 0 0 0 0 0 0 
0
TEXT
8
DBLAYERS
10
0
20
-106.68
40
1.778
1
Layer_33:=33 0 0 0 0 0 0 0 0 0 0 2 0 0 3.2999999523 0 0 1 0 -1 -1 -1 -1 0 0 0 0 0 0 0 
0
TEXT
8
DBLAYERS
10
0
20
-109.728
40
1.778
1
Layer_34:=34 0 0 0 0 0 0 0 0 0 0 2 0 0 3.2999999523 0 0 1 0 -1 -1 -1 -1 0 0 0 0 0 0 0 
0
TEXT
8
DBLAYERS
10
0
20
-112.776
40
1.778
1
Layer_35:=35 0 0 0 0 0 0 0 0 0 0 2 0 0 3.2999999523 0 0 1 0 -1 -1 -1 -1 0 0 0 0 0 0 0 
0
TEXT
8
DBLAYERS
10
0
20
-115.824
40
1.778
1
Layer_36:=36 0 0 0 0 0 0 0 0 0 0 2 0 0 3.2999999523 0 0 1 0 -1 -1 -1 -1 0 0 0 0 0 0 0 
0
TEXT
8
DBLAYERS
10
0
20
-118.872
40
1.778
1
Layer_37:=37 0 0 0 0 0 0 0 0 0 0 2 0 0 3.2999999523 0 0 1 0 -1 -1 -1 -1 0 0 0 0 0 0 0 
0
TEXT
8
DBLAYERS
10
0
20
-121.92
40
1.778
1
Layer_38:=38 0 0 0 0 0 0 0 0 0 0 2 0 0 3.2999999523 0 0 1 0 -1 -1 -1 -1 0 0 0 0 0 0 0 
0
TEXT
8
DBLAYERS
10
0
20
-124.968
40
1.778
1
Layer_39:=39 0 0 0 0 0 0 0 0 0 0 2 0 0 3.2999999523 0 0 1 0 -1 -1 -1 -1 0 0 0 0 0 0 0 
0
TEXT
8
DBLAYERS
10
0
20
-128.016
40
1.778
1
Layer_40:=40 0 0 0 0 0 0 0 0 0 0 2 0 0 3.2999999523 0 0 1 0 -1 -1 -1 -1 0 0 0 0 0 0 0 
0
TEXT
8
DBLAYERS
10
0
20
-131.064
40
1.778
1
Layer_41:=41 0 0 0 0 0 0 0 0 0 0 2 0 0 3.2999999523 0 0 1 0 -1 -1 -1 -1 0 0 0 0 0 0 0 
0
TEXT
8
DBLAYERS
10
0
20
-134.112
40
1.778
1
Layer_42:=42 0 0 0 0 0 0 0 0 0 0 2 0 0 3.2999999523 0 0 1 0 -1 -1 -1 -1 0 0 0 0 0 0 0 
0
TEXT
8
DBLAYERS
10
0
20
-137.16
40
1.778
1
Layer_43:=43 0 0 0 0 0 0 0 0 0 0 2 0 0 3.2999999523 0 0 1 0 -1 -1 -1 -1 0 0 0 0 0 0 0 
0
TEXT
8
DBLAYERS
10
0
20
-140.208
40
1.778
1
Layer_44:=44 0 0 0 0 0 0 0 0 0 0 2 0 0 3.2999999523 0 0 1 0 -1 -1 -1 -1 0 0 0 0 0 0 0 
0
TEXT
8
DBLAYERS
10
0
20
-143.256
40
1.778
1
Layer_45:=45 0 0 0 0 0 0 0 0 0 0 2 0 0 3.2999999523 0 0 1 0 -1 -1 -1 -1 0 0 0 0 0 0 0 
0
TEXT
8
DBLAYERS
10
0
20
-146.304
40
1.778
1
Layer_46:=46 0 0 0 0 0 0 0 0 0 0 2 0 0 3.2999999523 0 0 1 0 -1 -1 -1 -1 0 0 0 0 0 0 0 
0
TEXT
8
DBLAYERS
10
0
20
-149.352
40
1.778
1
Layer_47:=47 0 0 0 0 0 0 0 0 0 0 2 0 0 3.2999999523 0 0 1 0 -1 -1 -1 -1 0 0 0 0 0 0 0 
0
TEXT
8
DBLAYERS
10
0
20
-152.4
40
1.778
1
Layer_48:=48 0 0 0 0 0 0 0 0 0 0 2 0 0 3.2999999523 0 0 1 0 -1 -1 -1 -1 0 0 0 0 0 0 0 
0
TEXT
8
DBLAYERS
10
0
20
-155.448
40
1.778
1
Layer_49:=49 0 0 0 0 0 0 0 0 0 0 2 0 0 3.2999999523 0 0 1 0 -1 -1 -1 -1 0 0 0 0 0 0 0 
0
TEXT
8
DBLAYERS
10
0
20
-158.496
40
1.778
1
Layer_50:=50 0 0 0 0 0 0 0 0 0 0 2 0 0 3.2999999523 0 0 1 0 -1 -1 -1 -1 0 0 0 0 0 0 0 
0
TEXT
8
DBLAYERS
10
0
20
-161.544
40
1.778
1
Layer_51:=51 0 0 0 0 0 0 0 0 0 0 2 0 0 3.2999999523 0 0 1 0 -1 -1 -1 -1 0 0 0 0 0 0 0 
0
TEXT
8
DBLAYERS
10
0
20
-164.592
40
1.778
1
Layer_52:=52 0 0 0 0 0 0 0 0 0 0 2 0 0 3.2999999523 0 0 1 0 -1 -1 -1 -1 0 0 0 0 0 0 0 
0
TEXT
8
DBLAYERS
10
0
20
-167.64
40
1.778
1
Layer_53:=53 0 0 0 0 0 0 0 0 0 0 2 0 0 3.2999999523 0 0 1 0 -1 -1 -1 -1 0 0 0 0 0 0 0 
0
TEXT
8
DBLAYERS
10
0
20
-170.688
40
1.778
1
Layer_54:=54 0 0 0 0 0 0 0 0 0 0 2 0 0 3.2999999523 0 0 1 0 -1 -1 -1 -1 0 0 0 0 0 0 0 
0
TEXT
8
DBLAYERS
10
0
20
-173.736
40
1.778
1
Layer_55:=55 0 0 0 0 0 0 0 0 0 0 2 0 0 3.2999999523 0 0 1 0 -1 -1 -1 -1 0 0 0 0 0 0 0 
0
TEXT
8
DBLAYERS
10
0
20
-176.784
40
1.778
1
Layer_56:=56 0 0 0 0 0 0 0 0 0 0 2 0 0 3.2999999523 0 0 1 0 -1 -1 -1 -1 0 0 0 0 0 0 0 
0
TEXT
8
DBLAYERS
10
0
20
-179.832
40
1.778
1
Layer_57:=57 0 0 0 0 0 0 0 0 0 0 2 0 0 3.2999999523 0 0 1 0 -1 -1 -1 -1 0 0 0 0 0 0 0 
0
TEXT
8
DBLAYERS
10
0
20
-182.88
40
1.778
1
Layer_58:=58 0 0 0 0 0 0 0 0 0 0 2 0 0 3.2999999523 0 0 1 0 -1 -1 -1 -1 0 0 0 0 0 0 0 
0
TEXT
8
DBLAYERS
10
0
20
-185.928
40
1.778
1
Layer_59:=59 0 0 0 0 0 0 0 0 0 0 2 0 0 3.2999999523 0 0 1 0 -1 -1 -1 -1 0 0 0 0 0 0 0 
0
TEXT
8
DBLAYERS
10
0
20
-188.976
40
1.778
1
Layer_60:=60 0 0 0 0 0 0 0 0 0 0 2 0 0 3.2999999523 0 0 1 0 -1 -1 -1 -1 0 0 0 0 0 0 0 
0
TEXT
8
DBLAYERS
10
0
20
-192.024
40
1.778
1
Layer_61:=61 0 0 0 0 0 0 0 0 0 0 2 0 0 3.2999999523 0 0 1 0 -1 -1 -1 -1 0 0 0 0 0 0 0 
0
TEXT
8
DBLAYERS
10
0
20
-195.072
40
1.778
1
Layer_62:=62 0 0 0 0 0 0 0 0 0 0 2 0 0 3.2999999523 0 0 1 0 -1 -1 -1 -1 0 0 0 0 0 0 0 
0
TEXT
8
DBLAYERS
10
0
20
-198.12
40
1.778
1
Layer_63:=63 0 0 0 0 0 0 0 0 0 0 2 0 0 3.2999999523 0 0 1 0 -1 -1 -1 -1 0 0 0 0 0 0 0 
0
TEXT
8
DBLAYERS
10
0
20
-201.168
40
1.778
1
Layer_64:=64 0 0 0 0 0 0 0 0 0 0 2 0 0 3.2999999523 0 0 1 0 -1 -1 -1 -1 0 0 0 0 0 0 0 
0
TEXT
8
DBLAYERS
10
0
20
-204.216
40
1.778
1
Layer_65:=65 0 0 0 0 0 21 7 0 0 0 2 0 0 3.2999999523 0 0 1 0 -1 -1 -1 -1 0 0 0 0 0 0 0 
0
TEXT
8
DBLAYERS
10
0
20
-207.264
40
1.778
1
Layer_66:=66 0 0 0 0 0 7 7 0 0 0 2 0 0 3.2999999523 0 0 1 0 -1 -1 -1 -1 0 0 0 0 0 0 0 
0
TEXT
8
DBLAYERS
10
0
20
-210.312
40
1.778
1
Layer_67:=67 0 0 0 0 0 0 0 0 0 0 2 0 0 3.2999999523 0 0 1 0 -1 -1 -1 -1 0 0 0 0 0 0 0 
0
TEXT
8
DBLAYERS
10
0
20
-213.36
40
1.778
1
Layer_68:=68 0 0 0 0 0 0 0 0 0 0 2 0 0 3.2999999523 0 0 1 0 -1 -1 -1 -1 0 0 0 0 0 0 0 
0
TEXT
8
DBLAYERS
10
0
20
-216.408
40
1.778
1
Layer_69:=69 0 0 0 0 0 0 0 0 0 0 2 0 0 3.2999999523 0 0 1 0 -1 -1 -1 -1 0 0 0 0 0 0 0 
0
TEXT
8
DBLAYERS
10
0
20
-219.456
40
1.778
1
Layer_70:=70 0 0 0 0 0 0 0 0 0 0 2 0 0 3.2999999523 0 0 1 0 -1 -1 -1 -1 0 0 0 0 0 0 0 
0
TEXT
8
DBLAYERS
10
0
20
-222.504
40
1.778
1
Layer_71:=71 0 0 0 0 0 0 0 0 0 0 2 0 0 3.2999999523 0 0 1 0 -1 -1 -1 -1 0 0 0 0 0 0 0 
0
TEXT
8
DBLAYERS
10
0
20
-225.552
40
1.778
1
Layer_72:=72 0 0 0 0 0 0 0 0 0 0 2 0 0 3.2999999523 0 0 1 0 -1 -1 -1 -1 0 0 0 0 0 0 0 
0
TEXT
8
DBLAYERS
10
0
20
-228.6
40
1.778
1
Layer_73:=73 0 0 0 0 0 0 0 0 0 0 2 0 0 3.2999999523 0 0 1 0 -1 -1 -1 -1 0 0 0 0 0 0 0 
0
TEXT
8
DBLAYERS
10
0
20
-231.648
40
1.778
1
Layer_74:=74 0 0 0 0 0 0 0 0 0 0 2 0 0 3.2999999523 0 0 1 0 -1 -1 -1 -1 0 0 0 0 0 0 0 
0
TEXT
8
DBLAYERS
10
0
20
-234.696
40
1.778
1
Layer_75:=75 0 0 0 0 0 0 0 0 0 0 2 0 0 3.2999999523 0 0 1 0 -1 -1 -1 -1 0 0 0 0 0 0 0 
0
TEXT
8
DBLAYERS
10
0
20
-237.744
40
1.778
1
Layer_76:=76 0 0 0 0 0 0 0 0 0 0 2 0 0 3.2999999523 0 0 1 0 -1 -1 -1 -1 0 0 0 0 0 0 0 
0
TEXT
8
DBLAYERS
10
0
20
-240.792
40
1.778
1
Layer_77:=77 0 0 0 0 0 0 0 0 0 0 2 0 0 3.2999999523 0 0 1 0 -1 -1 -1 -1 0 0 0 0 0 0 0 
0
TEXT
8
DBLAYERS
10
0
20
-243.84
40
1.778
1
Layer_78:=78 0 0 0 0 0 0 0 0 0 0 2 0 0 3.2999999523 0 0 1 0 -1 -1 -1 -1 0 0 0 0 0 0 0 
0
TEXT
8
DBLAYERS
10
0
20
-246.888
40
1.778
1
Layer_79:=79 0 0 0 0 0 0 0 0 0 0 2 0 0 3.2999999523 0 0 1 0 -1 -1 -1 -1 0 0 0 0 0 0 0 
0
TEXT
8
DBLAYERS
10
0
20
-249.936
40
1.778
1
Layer_80:=80 0 0 0 0 0 0 0 0 0 0 2 0 0 3.2999999523 0 0 1 0 -1 -1 -1 -1 0 0 0 0 0 0 0 
0
TEXT
8
DBLAYERS
10
0
20
-252.984
40
1.778
1
Layer_81:=81 0 0 0 0 0 0 0 0 0 0 2 0 0 3.2999999523 0 0 1 0 -1 -1 -1 -1 0 0 0 0 0 0 0 
0
TEXT
8
DBLAYERS
10
0
20
-256.032
40
1.778
1
Layer_82:=82 0 0 0 0 0 0 0 0 0 0 2 0 0 3.2999999523 0 0 1 0 -1 -1 -1 -1 0 0 0 0 0 0 0 
0
TEXT
8
DBLAYERS
10
0
20
-259.08
40
1.778
1
Layer_83:=83 0 0 0 0 0 0 0 0 0 0 2 0 0 3.2999999523 0 0 1 0 -1 -1 -1 -1 0 0 0 0 0 0 0 
0
TEXT
8
DBLAYERS
10
0
20
-262.128
40
1.778
1
Layer_84:=84 0 0 0 0 0 0 0 0 0 0 2 0 0 3.2999999523 0 0 1 0 -1 -1 -1 -1 0 0 0 0 0 0 0 
0
TEXT
8
DBLAYERS
10
0
20
-265.176
40
1.778
1
Layer_85:=85 0 0 0 0 0 0 0 0 0 0 2 0 0 3.2999999523 0 0 1 0 -1 -1 -1 -1 0 0 0 0 0 0 0 
0
TEXT
8
DBLAYERS
10
0
20
-268.224
40
1.778
1
Layer_86:=86 0 0 0 0 0 0 0 0 0 0 2 0 0 3.2999999523 0 0 1 0 -1 -1 -1 -1 0 0 0 0 0 0 0 
0
TEXT
8
DBLAYERS
10
0
20
-271.272
40
1.778
1
Layer_87:=87 0 0 0 0 0 0 0 0 0 0 2 0 0 3.2999999523 0 0 1 0 -1 -1 -1 -1 0 0 0 0 0 0 0 
0
TEXT
8
DBLAYERS
10
0
20
-274.32
40
1.778
1
Layer_88:=88 0 0 0 0 0 0 0 0 0 0 2 0 0 3.2999999523 0 0 1 0 -1 -1 -1 -1 0 0 0 0 0 0 0 
0
TEXT
8
DBLAYERS
10
0
20
-277.368
40
1.778
1
Layer_89:=89 0 0 0 0 0 0 0 0 0 0 2 0 0 3.2999999523 0 0 1 0 -1 -1 -1 -1 0 0 0 0 0 0 0 
0
TEXT
8
DBLAYERS
10
0
20
-280.416
40
1.778
1
Layer_90:=90 0 0 0 0 0 0 0 0 0 0 2 0 0 3.2999999523 0 0 1 0 -1 -1 -1 -1 0 0 0 0 0 0 0 
0
TEXT
8
DBLAYERS
10
0
20
-283.464
40
1.778
1
Layer_91:=91 0 0 0 0 0 0 0 0 0 0 2 0 0 3.2999999523 0 0 1 0 -1 -1 -1 -1 0 0 0 0 0 0 0 
0
TEXT
8
DBLAYERS
10
0
20
-286.512
40
1.778
1
Layer_92:=92 0 0 0 0 0 0 0 0 0 0 2 0 0 3.2999999523 0 0 1 0 -1 -1 -1 -1 0 0 0 0 0 0 0 
0
TEXT
8
DBLAYERS
10
0
20
-289.56
40
1.778
1
Layer_93:=93 0 0 0 0 0 0 0 0 0 0 2 0 0 3.2999999523 0 0 1 0 -1 -1 -1 -1 0 0 0 0 0 0 0 
0
TEXT
8
DBLAYERS
10
0
20
-292.608
40
1.778
1
Layer_94:=94 0 0 0 0 0 0 0 0 0 0 2 0 0 3.2999999523 0 0 1 0 -1 -1 -1 -1 0 0 0 0 0 0 0 
0
TEXT
8
DBLAYERS
10
0
20
-295.656
40
1.778
1
Layer_95:=95 0 0 0 0 0 0 0 0 0 0 2 0 0 3.2999999523 0 0 1 0 -1 -1 -1 -1 0 0 0 0 0 0 0 
0
TEXT
8
DBLAYERS
10
0
20
-298.704
40
1.778
1
Layer_96:=96 0 0 0 0 0 0 0 0 0 0 2 0 0 3.2999999523 0 0 1 0 -1 -1 -1 -1 0 0 0 0 0 0 0 
0
TEXT
8
DBLAYERS
10
0
20
-301.752
40
1.778
1
Layer_97:=97 0 0 0 0 0 0 0 0 0 0 2 0 0 3.2999999523 0 0 1 0 -1 -1 -1 -1 0 0 0 0 0 0 0 
0
TEXT
8
DBLAYERS
10
0
20
-304.8
40
1.778
1
Layer_98:=98 0 0 0 0 0 0 0 0 0 0 2 0 0 3.2999999523 0 0 1 0 -1 -1 -1 -1 0 0 0 0 0 0 0 
0
TEXT
8
DBLAYERS
10
0
20
-307.848
40
1.778
1
Layer_99:=99 0 0 0 0 0 0 0 0 0 0 2 0 0 3.2999999523 0 0 1 0 -1 -1 -1 -1 0 0 0 0 0 0 0 
0
TEXT
8
DBLAYERS
10
0
20
-310.896
40
1.778
1
Layer_100:=100 0 0 0 0 0 0 0 0 0 0 2 0 0 3.2999999523 0 0 1 0 -1 -1 -1 -1 0 0 0 0 0 0 0 
0
TEXT
8
DBLAYERS
10
0
20
-313.944
40
1.778
1
Layer_101:=101 0 0 0 0 0 0 0 0 0 0 2 0 0 3.2999999523 0 0 1 0 -1 -1 -1 -1 0 0 0 0 0 0 0 
0
TEXT
8
DBLAYERS
10
0
20
-316.992
40
1.778
1
Layer_102:=102 0 0 0 0 0 0 0 0 0 0 2 0 0 3.2999999523 0 0 1 0 -1 -1 -1 -1 0 0 0 0 0 0 0 
0
TEXT
8
DBLAYERS
10
0
20
-320.04
40
1.778
1
Layer_103:=103 0 0 0 0 0 0 0 0 0 0 2 0 0 3.2999999523 0 1 1 0 -1 -1 -1 -1 0 0 0 0 0 0 0 
0
TEXT
8
DBLAYERS
10
0
20
-323.088
40
1.778
1
Layer_104:=104 0 0 0 0 0 0 0 0 0 0 2 0 0 3.2999999523 0 1 1 0 -1 -1 -1 -1 0 0 0 0 0 0 0 
0
TEXT
8
DBLAYERS
10
0
20
-326.136
40
1.778
1
Layer_105:=105 0 0 0 0 0 0 0 0 0 0 2 0 0 3.2999999523 0 1 1 0 -1 -1 -1 -1 0 0 0 0 0 0 0 
0
TEXT
8
DBLAYERS
10
0
20
-329.184
40
1.778
1
Layer_106:=106 0 0 0 0 0 0 0 0 0 0 2 0 0 3.2999999523 0 1 1 0 -1 -1 -1 -1 0 0 0 0 0 0 0 
0
TEXT
8
DBLAYERS
10
0
20
-332.232
40
1.778
1
Layer_107:=107 0 0 0 0 0 0 0 0 0 0 2 0 0 3.2999999523 0 1 1 0 -1 -1 -1 -1 0 0 0 0 0 0 0 
0
TEXT
8
DBLAYERS
10
0
20
-335.28
40
1.778
1
Layer_108:=108 0 0 0 0 0 0 0 0 0 0 2 0 0 3.2999999523 0 1 1 0 -1 -1 -1 -1 0 0 0 0 0 0 0 
0
TEXT
8
DBLAYERS
10
0
20
-338.328
40
1.778
1
Layer_109:=109 0 0 0 0 0 0 0 0 0 0 2 0 0 3.2999999523 0 1 1 0 -1 -1 -1 -1 0 0 0 0 0 0 0 
0
TEXT
8
DBLAYERS
10
0
20
-341.376
40
1.778
1
Layer_110:=110 0 0 0 0 0 0 0 0 0 0 2 0 0 3.2999999523 0 1 1 0 -1 -1 -1 -1 0 0 0 0 0 0 0 
0
TEXT
8
DBLAYERS
10
0
20
-344.424
40
1.778
1
Layer_111:=111 0 0 0 0 0 0 0 0 0 0 2 0 0 3.2999999523 0 1 1 0 -1 -1 -1 -1 0 0 0 0 0 0 0 
0
TEXT
8
DBLAYERS
10
0
20
-347.472
40
1.778
1
Layer_112:=112 0 0 0 0 0 0 0 0 0 0 2 0 0 3.2999999523 0 1 1 0 -1 -1 -1 -1 0 0 0 0 0 0 0 
0
TEXT
8
DBLAYERS
10
0
20
-350.52
40
1.778
1
Layer_113:=113 0 0 0 0 0 0 0 0 0 0 2 0 0 3.2999999523 0 1 1 0 -1 -1 -1 -1 0 0 0 0 0 0 0 
0
TEXT
8
DBLAYERS
10
0
20
-353.568
40
1.778
1
Layer_114:=114 0 0 0 0 0 0 0 0 0 0 2 0 0 3.2999999523 0 1 1 0 -1 -1 -1 -1 0 0 0 0 0 0 0 
0
TEXT
8
DBLAYERS
10
0
20
-356.616
40
1.778
1
Layer_115:=115 0 0 0 0 0 0 0 0 0 0 2 0 0 3.2999999523 0 1 1 0 -1 -1 -1 -1 0 0 0 0 0 0 0 
0
TEXT
8
DBLAYERS
10
0
20
-359.664
40
1.778
1
Layer_116:=116 0 0 0 0 0 0 0 0 0 0 2 0 0 3.2999999523 0 1 1 0 -1 -1 -1 -1 0 0 0 0 0 0 0 
0
TEXT
8
DBLAYERS
10
0
20
-362.712
40
1.778
1
Layer_117:=117 0 0 0 0 0 0 0 0 0 0 2 0 0 3.2999999523 0 1 1 0 -1 -1 -1 -1 0 0 0 0 0 0 0 
0
TEXT
8
DBLAYERS
10
0
20
-365.76
40
1.778
1
Layer_118:=118 0 0 0 0 0 0 0 0 0 0 2 0 0 3.2999999523 0 1 1 0 -1 -1 -1 -1 0 0 0 0 0 0 0 
0
TEXT
8
DBLAYERS
10
0
20
-368.808
40
1.778
1
Layer_119:=119 0 0 0 0 0 0 0 0 0 0 2 0 0 3.2999999523 0 1 1 0 -1 -1 -1 -1 0 0 0 0 0 0 0 
0
TEXT
8
DBLAYERS
10
0
20
-371.856
40
1.778
1
Layer_120:=120 0 0 0 0 0 0 0 0 0 0 2 0 0 3.2999999523 0 1 1 0 -1 -1 -1 -1 0 0 0 0 0 0 0 
0
TEXT
8
DBLAYERS
10
0
20
-374.904
40
1.778
1
Top Solder Mask:=121 5 5 5 5 5 5 5 5 5 5 2 0 0 3.2999999523 0 0 1 0 -1 -1 -1 -1 0 0 0 5 5 5 5 
0
TEXT
8
DBLAYERS
10
0
20
-377.952
40
1.778
1
Paste Mask Bottom:=122 4 4 4 4 4 4 4 4 4 4 2 0 0 3.2999999523 0 0 1 0 -1 -1 -1 -1 0 0 0 4 4 4 4 
0
TEXT
8
DBLAYERS
10
0
20
-381
40
1.778
1
Paste Mask Top:=123 4 7 7 7 7 7 7 7 7 7 2 0 0 3.2999999523 0 0 1 0 -1 -1 -1 -1 0 0 0 7 7 7 7 
0
TEXT
8
DBLAYERS
10
0
20
-384.048
40
1.778
1
Drill Drawing:=124 2 12 12 12 12 12 12 12 12 12 2 0 0 3.2999999523 0 0 1 0 -1 -1 -1 -1 0 0 0 12 12 12 12 
0
TEXT
8
DBLAYERS
10
0
20
-387.096
40
1.778
1
Drill Guide:=125 0 4 4 4 4 4 4 4 4 4 2 0 0 3.2999999523 0 0 1 0 -1 -1 -1 -1 0 0 0 4 4 4 4 
0
TEXT
8
DBLAYERS
10
0
20
-390.144
40
1.778
1
Silkscreen Top:=126 3 8 14 14 8 8 8 14 8 8 2 0 0 3.2999999523 0 1 1 0 -1 -1 -1 -1 0 0 0 14 14 14 14 
0
TEXT
8
DBLAYERS
10
0
20
-393.192
40
1.778
1
Layer_127:=127 0 0 0 0 0 0 0 0 0 0 2 0 0 3.2999999523 0 1 1 0 -1 -1 -1 -1 0 0 0 0 0 0 0 
0
TEXT
8
DBLAYERS
10
0
20
-396.24
40
1.778
1
Bottom Solder Mask:=128 5 13 13 13 13 13 13 13 13 13 2 0 0 3.2999999523 0 0 1 0 -1 -1 -1 -1 0 0 0 13 13 13 13 
0
TEXT
8
DBLAYERS
10
0
20
-399.288
40
1.778
1
Silkscreen Bottom:=129 3 6 6 6 6 6 6 6 6 6 2 0 0 3.2999999523 0 0 1 0 -1 -1 -1 -1 0 0 0 6 6 6 6 
0
TEXT
8
DBLAYERS
10
0
20
-402.336
40
1.778
1
Layer_130:=130 0 0 0 0 0 0 0 0 0 0 2 0 0 3.2999999523 0 1 1 0 -1 -1 -1 -1 0 0 0 0 0 0 0 
0
TEXT
8
DBLAYERS
10
0
20
-405.384
40
1.778
1
Layer_131:=131 0 0 0 0 0 0 0 0 0 0 2 0 0 3.2999999523 0 0 1 0 -1 -1 -1 -1 0 0 0 0 0 0 0 
0
TEXT
8
DBLAYERS
10
0
20
-408.432
40
1.778
1
Layer_132:=132 0 0 0 0 0 0 0 0 0 0 2 0 0 3.2999999523 0 0 1 0 -1 -1 -1 -1 0 0 0 0 0 0 0 
0
TEXT
8
DBLAYERS
10
0
20
-411.48
40
1.778
1
Layer_133:=133 0 0 0 0 0 0 0 0 0 0 2 0 0 3.2999999523 0 0 1 0 -1 -1 -1 -1 0 0 0 0 0 0 0 
0
TEXT
8
DBLAYERS
10
0
20
-414.528
40
1.778
1
Layer_134:=134 0 0 0 0 0 0 0 0 0 0 2 0 0 3.2999999523 0 0 1 0 -1 -1 -1 -1 0 0 0 0 0 0 0 
0
TEXT
8
DBLAYERS
10
0
20
-417.576
40
1.778
1
Layer_135:=135 0 0 0 0 0 0 0 0 0 0 2 0 0 3.2999999523 0 0 1 0 -1 -1 -1 -1 0 0 0 0 0 0 0 
0
TEXT
8
DBLAYERS
10
0
20
-420.624
40
1.778
1
Layer_136:=136 0 0 0 0 0 0 0 0 0 0 2 0 0 3.2999999523 0 0 1 0 -1 -1 -1 -1 0 0 0 0 0 0 0 
0
TEXT
8
DBLAYERS
10
0
20
-423.672
40
1.778
1
Layer_137:=137 0 0 0 0 0 0 0 0 0 0 2 0 0 3.2999999523 0 0 1 0 -1 -1 -1 -1 0 0 0 0 0 0 0 
0
TEXT
8
DBLAYERS
10
0
20
-426.72
40
1.778
1
Layer_138:=138 0 0 0 0 0 0 0 0 0 0 2 0 0 3.2999999523 0 0 1 0 -1 -1 -1 -1 0 0 0 0 0 0 0 
0
TEXT
8
DBLAYERS
10
0
20
-429.768
40
1.778
1
Layer_139:=139 0 0 0 0 0 0 0 0 0 0 2 0 0 3.2999999523 0 0 1 0 -1 -1 -1 -1 0 0 0 0 0 0 0 
0
TEXT
8
DBLAYERS
10
0
20
-432.816
40
1.778
1
Layer_140:=140 0 0 0 0 0 0 0 0 0 0 2 0 0 3.2999999523 0 0 1 0 -1 -1 -1 -1 0 0 0 0 0 0 0 
0
TEXT
8
DBLAYERS
10
0
20
-435.864
40
1.778
1
Layer_141:=141 0 0 0 0 0 0 0 0 0 0 2 0 0 3.2999999523 0 0 1 0 -1 -1 -1 -1 0 0 0 0 0 0 0 
0
TEXT
8
DBLAYERS
10
0
20
-438.912
40
1.778
1
Layer_142:=142 0 0 0 0 0 0 0 0 0 0 2 0 0 3.2999999523 0 0 1 0 -1 -1 -1 -1 0 0 0 0 0 0 0 
0
TEXT
8
DBLAYERS
10
0
20
-441.96
40
1.778
1
Layer_143:=143 0 0 0 0 0 0 0 0 0 0 2 0 0 3.2999999523 0 0 1 0 -1 -1 -1 -1 0 0 0 0 0 0 0 
0
TEXT
8
DBLAYERS
10
0
20
-445.008
40
1.778
1
Layer_144:=144 0 0 0 0 0 0 0 0 0 0 2 0 0 3.2999999523 0 0 1 0 -1 -1 -1 -1 0 0 0 0 0 0 0 
0
TEXT
8
DBLAYERS
10
0
20
-448.056
40
1.778
1
Layer_145:=145 0 0 0 0 0 0 0 0 0 0 2 0 0 3.2999999523 0 0 1 0 -1 -1 -1 -1 0 0 0 0 0 0 0 
0
TEXT
8
DBLAYERS
10
0
20
-451.104
40
1.778
1
Layer_146:=146 0 0 0 0 0 0 0 0 0 0 2 0 0 3.2999999523 0 0 1 0 -1 -1 -1 -1 0 0 0 0 0 0 0 
0
TEXT
8
DBLAYERS
10
0
20
-454.152
40
1.778
1
Layer_147:=147 0 0 0 0 0 0 0 0 0 0 2 0 0 3.2999999523 0 0 1 0 -1 -1 -1 -1 0 0 0 0 0 0 0 
0
TEXT
8
DBLAYERS
10
0
20
-457.2
40
1.778
1
Layer_148:=148 0 0 0 0 0 0 0 0 0 0 2 0 0 3.2999999523 0 0 1 0 -1 -1 -1 -1 0 0 0 0 0 0 0 
0
TEXT
8
DBLAYERS
10
0
20
-460.248
40
1.778
1
Layer_149:=149 0 0 0 0 0 0 0 0 0 0 2 0 0 3.2999999523 0 0 1 0 -1 -1 -1 -1 0 0 0 0 0 0 0 
0
TEXT
8
DBLAYERS
10
0
20
-463.296
40
1.778
1
Layer_150:=150 0 0 0 0 0 0 0 0 0 0 2 0 0 3.2999999523 0 0 1 0 -1 -1 -1 -1 0 0 0 0 0 0 0 
0
TEXT
8
DBLAYERS
10
0
20
-466.344
40
1.778
1
Layer_151:=151 0 0 0 0 0 0 0 0 0 0 2 0 0 3.2999999523 0 0 1 0 -1 -1 -1 -1 0 0 0 0 0 0 0 
0
TEXT
8
DBLAYERS
10
0
20
-469.392
40
1.778
1
Layer_152:=152 0 0 0 0 0 0 0 0 0 0 2 0 0 3.2999999523 0 0 1 0 -1 -1 -1 -1 0 0 0 0 0 0 0 
0
TEXT
8
DBLAYERS
10
0
20
-472.44
40
1.778
1
Layer_153:=153 0 0 0 0 0 0 0 0 0 0 2 0 0 3.2999999523 0 0 1 0 -1 -1 -1 -1 0 0 0 0 0 0 0 
0
TEXT
8
DBLAYERS
10
0
20
-475.488
40
1.778
1
Layer_154:=154 0 0 0 0 0 0 0 0 0 0 2 0 0 3.2999999523 0 0 1 0 -1 -1 -1 -1 0 0 0 0 0 0 0 
0
TEXT
8
DBLAYERS
10
0
20
-478.536
40
1.778
1
Layer_155:=155 0 0 0 0 0 0 0 0 0 0 2 0 0 3.2999999523 0 0 1 0 -1 -1 -1 -1 0 0 0 0 0 0 0 
0
TEXT
8
DBLAYERS
10
0
20
-481.584
40
1.778
1
Layer_156:=156 0 0 0 0 0 0 0 0 0 0 2 0 0 3.2999999523 0 0 1 0 -1 -1 -1 -1 0 0 0 0 0 0 0 
0
TEXT
8
DBLAYERS
10
0
20
-484.632
40
1.778
1
Layer_157:=157 0 0 0 0 0 0 0 0 0 0 2 0 0 3.2999999523 0 0 1 0 -1 -1 -1 -1 0 0 0 0 0 0 0 
0
TEXT
8
DBLAYERS
10
0
20
-487.68
40
1.778
1
Layer_158:=158 0 0 0 0 0 0 0 0 0 0 2 0 0 3.2999999523 0 0 1 0 -1 -1 -1 -1 0 0 0 0 0 0 0 
0
TEXT
8
DBLAYERS
10
0
20
-490.728
40
1.778
1
Layer_159:=159 0 0 0 0 0 0 0 0 0 0 2 0 0 3.2999999523 0 0 1 0 -1 -1 -1 -1 0 0 0 0 0 0 0 
0
TEXT
8
DBLAYERS
10
0
20
-493.776
40
1.778
1
Layer_160:=160 0 0 0 0 0 0 0 0 0 0 2 0 0 3.2999999523 0 0 1 0 -1 -1 -1 -1 0 0 0 0 0 0 0 
0
TEXT
8
DBLAYERS
10
0
20
-496.824
40
1.778
1
Layer_161:=161 0 0 0 0 0 0 0 0 0 0 2 0 0 3.2999999523 0 0 1 0 -1 -1 -1 -1 0 0 0 0 0 0 0 
0
TEXT
8
DBLAYERS
10
0
20
-499.872
40
1.778
1
Layer_162:=162 0 0 0 0 0 0 0 0 0 0 2 0 0 3.2999999523 0 0 1 0 -1 -1 -1 -1 0 0 0 0 0 0 0 
0
TEXT
8
DBLAYERS
10
0
20
-502.92
40
1.778
1
Layer_163:=163 0 0 0 0 0 0 0 0 0 0 2 0 0 3.2999999523 0 0 1 0 -1 -1 -1 -1 0 0 0 0 0 0 0 
0
TEXT
8
DBLAYERS
10
0
20
-505.968
40
1.778
1
Layer_164:=164 0 0 0 0 0 0 0 0 0 0 2 0 0 3.2999999523 0 0 1 0 -1 -1 -1 -1 0 0 0 0 0 0 0 
0
TEXT
8
DBLAYERS
10
0
20
-509.016
40
1.778
1
Layer_165:=165 0 0 0 0 0 0 0 0 0 0 2 0 0 3.2999999523 0 0 1 0 -1 -1 -1 -1 0 0 0 0 0 0 0 
0
TEXT
8
DBLAYERS
10
0
20
-512.064
40
1.778
1
Layer_166:=166 0 0 0 0 0 0 0 0 0 0 2 0 0 3.2999999523 0 0 1 0 -1 -1 -1 -1 0 0 0 0 0 0 0 
0
TEXT
8
DBLAYERS
10
0
20
-515.112
40
1.778
1
Layer_167:=167 0 0 0 0 0 0 0 0 0 0 2 0 0 3.2999999523 0 0 1 0 -1 -1 -1 -1 0 0 0 0 0 0 0 
0
TEXT
8
DBLAYERS
10
0
20
-518.16
40
1.778
1
Layer_168:=168 0 0 0 0 0 0 0 0 0 0 2 0 0 3.2999999523 0 0 1 0 -1 -1 -1 -1 0 0 0 0 0 0 0 
0
TEXT
8
DBLAYERS
10
0
20
-521.208
40
1.778
1
Layer_169:=169 0 0 0 0 0 0 0 0 0 0 2 0 0 3.2999999523 0 0 1 0 -1 -1 -1 -1 0 0 0 0 0 0 0 
0
TEXT
8
DBLAYERS
10
0
20
-524.256
40
1.778
1
Layer_170:=170 0 0 0 0 0 0 0 0 0 0 2 0 0 3.2999999523 0 0 1 0 -1 -1 -1 -1 0 0 0 0 0 0 0 
0
TEXT
8
DBLAYERS
10
0
20
-527.304
40
1.778
1
Layer_171:=171 0 0 0 0 0 0 0 0 0 0 2 0 0 3.2999999523 0 0 1 0 -1 -1 -1 -1 0 0 0 0 0 0 0 
0
TEXT
8
DBLAYERS
10
0
20
-530.352
40
1.778
1
Layer_172:=172 0 0 0 0 0 0 0 0 0 0 2 0 0 3.2999999523 0 0 1 0 -1 -1 -1 -1 0 0 0 0 0 0 0 
0
TEXT
8
DBLAYERS
10
0
20
-533.4
40
1.778
1
Layer_173:=173 0 0 0 0 0 0 0 0 0 0 2 0 0 3.2999999523 0 0 1 0 -1 -1 -1 -1 0 0 0 0 0 0 0 
0
TEXT
8
DBLAYERS
10
0
20
-536.448
40
1.778
1
Layer_174:=174 0 0 0 0 0 0 0 0 0 0 2 0 0 3.2999999523 0 0 1 0 -1 -1 -1 -1 0 0 0 0 0 0 0 
0
TEXT
8
DBLAYERS
10
0
20
-539.496
40
1.778
1
Layer_175:=175 0 0 0 0 0 0 0 0 0 0 2 0 0 3.2999999523 0 0 1 0 -1 -1 -1 -1 0 0 0 0 0 0 0 
0
TEXT
8
DBLAYERS
10
0
20
-542.544
40
1.778
1
Layer_176:=176 0 0 0 0 0 0 0 0 0 0 2 0 0 3.2999999523 0 0 1 0 -1 -1 -1 -1 0 0 0 0 0 0 0 
0
TEXT
8
DBLAYERS
10
0
20
-545.592
40
1.778
1
Layer_177:=177 0 0 0 0 0 0 0 0 0 0 2 0 0 3.2999999523 0 0 1 0 -1 -1 -1 -1 0 0 0 0 0 0 0 
0
TEXT
8
DBLAYERS
10
0
20
-548.64
40
1.778
1
Layer_178:=178 0 0 0 0 0 0 0 0 0 0 2 0 0 3.2999999523 0 0 1 0 -1 -1 -1 -1 0 0 0 0 0 0 0 
0
TEXT
8
DBLAYERS
10
0
20
-551.688
40
1.778
1
Layer_179:=179 0 0 0 0 0 0 0 0 0 0 2 0 0 3.2999999523 0 0 1 0 -1 -1 -1 -1 0 0 0 0 0 0 0 
0
TEXT
8
DBLAYERS
10
0
20
-554.736
40
1.778
1
Layer_180:=180 0 0 0 0 0 0 0 0 0 0 2 0 0 3.2999999523 0 0 1 0 -1 -1 -1 -1 0 0 0 0 0 0 0 
0
TEXT
8
DBLAYERS
10
0
20
-557.784
40
1.778
1
Layer_181:=181 0 0 0 0 0 0 0 0 0 0 2 0 0 3.2999999523 0 0 1 0 -1 -1 -1 -1 0 0 0 0 0 0 0 
0
TEXT
8
DBLAYERS
10
0
20
-560.832
40
1.778
1
Layer_182:=182 0 0 0 0 0 0 0 0 0 0 2 0 0 3.2999999523 0 0 1 0 -1 -1 -1 -1 0 0 0 0 0 0 0 
0
TEXT
8
DBLAYERS
10
0
20
-563.88
40
1.778
1
Layer_183:=183 0 0 0 0 0 0 0 0 0 0 2 0 0 3.2999999523 0 0 1 0 -1 -1 -1 -1 0 0 0 0 0 0 0 
0
TEXT
8
DBLAYERS
10
0
20
-566.928
40
1.778
1
Layer_184:=184 0 0 0 0 0 0 0 0 0 0 2 0 0 3.2999999523 0 0 1 0 -1 -1 -1 -1 0 0 0 0 0 0 0 
0
TEXT
8
DBLAYERS
10
0
20
-569.976
40
1.778
1
Layer_185:=185 0 0 0 0 0 0 0 0 0 0 2 0 0 3.2999999523 0 0 1 0 -1 -1 -1 -1 0 0 0 0 0 0 0 
0
TEXT
8
DBLAYERS
10
0
20
-573.024
40
1.778
1
Layer_186:=186 0 0 0 0 0 0 0 0 0 0 2 0 0 3.2999999523 0 0 1 0 -1 -1 -1 -1 0 0 0 0 0 0 0 
0
TEXT
8
DBLAYERS
10
0
20
-576.072
40
1.778
1
Layer_187:=187 0 0 0 0 0 0 0 0 0 0 2 0 0 3.2999999523 0 0 1 0 -1 -1 -1 -1 0 0 0 0 0 0 0 
0
TEXT
8
DBLAYERS
10
0
20
-579.12
40
1.778
1
Layer_188:=188 0 0 0 0 0 0 0 0 0 0 2 0 0 3.2999999523 0 0 1 0 -1 -1 -1 -1 0 0 0 0 0 0 0 
0
TEXT
8
DBLAYERS
10
0
20
-582.168
40
1.778
1
Layer_189:=189 0 0 0 0 0 0 0 0 0 0 2 0 0 3.2999999523 0 0 1 0 -1 -1 -1 -1 0 0 0 0 0 0 0 
0
TEXT
8
DBLAYERS
10
0
20
-585.216
40
1.778
1
Layer_190:=190 0 0 0 0 0 0 0 0 0 0 2 0 0 3.2999999523 0 0 1 0 -1 -1 -1 -1 0 0 0 0 0 0 0 
0
TEXT
8
DBLAYERS
10
0
20
-588.264
40
1.778
1
Layer_191:=191 0 0 0 0 0 0 0 0 0 0 2 0 0 3.2999999523 0 0 1 0 -1 -1 -1 -1 0 0 0 0 0 0 0 
0
TEXT
8
DBLAYERS
10
0
20
-591.312
40
1.778
1
Layer_192:=192 0 0 0 0 0 0 0 0 0 0 2 0 0 3.2999999523 0 0 1 0 -1 -1 -1 -1 0 0 0 0 0 0 0 
0
TEXT
8
DBLAYERS
10
0
20
-594.36
40
1.778
1
Layer_193:=193 0 0 0 0 0 0 0 0 0 0 2 0 0 3.2999999523 0 0 1 0 -1 -1 -1 -1 0 0 0 0 0 0 0 
0
TEXT
8
DBLAYERS
10
0
20
-597.408
40
1.778
1
Layer_194:=194 0 0 0 0 0 0 0 0 0 0 2 0 0 3.2999999523 0 0 1 0 -1 -1 -1 -1 0 0 0 0 0 0 0 
0
TEXT
8
DBLAYERS
10
0
20
-600.456
40
1.778
1
Layer_195:=195 0 0 0 0 0 0 0 0 0 0 2 0 0 3.2999999523 0 0 1 0 -1 -1 -1 -1 0 0 0 0 0 0 0 
0
TEXT
8
DBLAYERS
10
0
20
-603.504
40
1.778
1
Layer_196:=196 0 0 0 0 0 0 0 0 0 0 2 0 0 3.2999999523 0 0 1 0 -1 -1 -1 -1 0 0 0 0 0 0 0 
0
TEXT
8
DBLAYERS
10
0
20
-606.552
40
1.778
1
Layer_197:=197 0 0 0 0 0 0 0 0 0 0 2 0 0 3.2999999523 0 0 1 0 -1 -1 -1 -1 0 0 0 0 0 0 0 
0
TEXT
8
DBLAYERS
10
0
20
-609.6
40
1.778
1
Layer_198:=198 0 0 0 0 0 0 0 0 0 0 2 0 0 3.2999999523 0 0 1 0 -1 -1 -1 -1 0 0 0 0 0 0 0 
0
TEXT
8
DBLAYERS
10
0
20
-612.648
40
1.778
1
Layer_199:=199 0 0 0 0 0 0 0 0 0 0 2 0 0 3.2999999523 0 0 1 0 -1 -1 -1 -1 0 0 0 0 0 0 0 
0
TEXT
8
DBLAYERS
10
0
20
-615.696
40
1.778
1
Layer_200:=200 0 0 0 0 0 0 0 0 0 0 2 0 0 3.2999999523 0 0 1 0 -1 -1 -1 -1 0 0 0 0 0 0 0 
0
TEXT
8
DBLAYERS
10
0
20
-618.744
40
1.778
1
Layer_201:=201 0 0 0 0 0 0 0 0 0 0 2 0 0 3.2999999523 0 0 1 0 -1 -1 -1 -1 0 0 0 0 0 0 0 
0
TEXT
8
DBLAYERS
10
0
20
-621.792
40
1.778
1
Layer_202:=202 0 0 0 0 0 0 0 0 0 0 2 0 0 3.2999999523 0 0 1 0 -1 -1 -1 -1 0 0 0 0 0 0 0 
0
TEXT
8
DBLAYERS
10
0
20
-624.84
40
1.778
1
Layer_203:=203 0 0 0 0 0 0 0 0 0 0 2 0 0 3.2999999523 0 0 1 0 -1 -1 -1 -1 0 0 0 0 0 0 0 
0
TEXT
8
DBLAYERS
10
0
20
-627.888
40
1.778
1
Layer_204:=204 0 0 0 0 0 0 0 0 0 0 2 0 0 3.2999999523 0 0 1 0 -1 -1 -1 -1 0 0 0 0 0 0 0 
0
TEXT
8
DBLAYERS
10
0
20
-630.936
40
1.778
1
Layer_205:=205 0 0 0 0 0 0 0 0 0 0 2 0 0 3.2999999523 0 0 1 0 -1 -1 -1 -1 0 0 0 0 0 0 0 
0
TEXT
8
DBLAYERS
10
0
20
-633.984
40
1.778
1
Layer_206:=206 0 0 0 0 0 0 0 0 0 0 2 0 0 3.2999999523 0 0 1 0 -1 -1 -1 -1 0 0 0 0 0 0 0 
0
TEXT
8
DBLAYERS
10
0
20
-637.032
40
1.778
1
Layer_207:=207 0 0 0 0 0 0 0 0 0 0 2 0 0 3.2999999523 0 0 1 0 -1 -1 -1 -1 0 0 0 0 0 0 0 
0
TEXT
8
DBLAYERS
10
0
20
-640.08
40
1.778
1
Layer_208:=208 0 0 0 0 0 0 0 0 0 0 2 0 0 3.2999999523 0 0 1 0 -1 -1 -1 -1 0 0 0 0 0 0 0 
0
TEXT
8
DBLAYERS
10
0
20
-643.128
40
1.778
1
Layer_209:=209 0 0 0 0 0 0 0 0 0 0 2 0 0 3.2999999523 0 0 1 0 -1 -1 -1 -1 0 0 0 0 0 0 0 
0
TEXT
8
DBLAYERS
10
0
20
-646.176
40
1.778
1
Layer_210:=210 0 0 0 0 0 0 0 0 0 0 2 0 0 3.2999999523 0 0 1 0 -1 -1 -1 -1 0 0 0 0 0 0 0 
0
TEXT
8
DBLAYERS
10
0
20
-649.224
40
1.778
1
Layer_211:=211 0 0 0 0 0 0 0 0 0 0 2 0 0 3.2999999523 0 0 1 0 -1 -1 -1 -1 0 0 0 0 0 0 0 
0
TEXT
8
DBLAYERS
10
0
20
-652.272
40
1.778
1
Layer_212:=212 0 0 0 0 0 0 0 0 0 0 2 0 0 3.2999999523 0 0 1 0 -1 -1 -1 -1 0 0 0 0 0 0 0 
0
TEXT
8
DBLAYERS
10
0
20
-655.32
40
1.778
1
Layer_213:=213 0 0 0 0 0 0 0 0 0 0 2 0 0 3.2999999523 0 0 1 0 -1 -1 -1 -1 0 0 0 0 0 0 0 
0
TEXT
8
DBLAYERS
10
0
20
-658.368
40
1.778
1
Layer_214:=214 0 0 0 0 0 0 0 0 0 0 2 0 0 3.2999999523 0 0 1 0 -1 -1 -1 -1 0 0 0 0 0 0 0 
0
TEXT
8
DBLAYERS
10
0
20
-661.416
40
1.778
1
Layer_215:=215 0 0 0 0 0 0 0 0 0 0 2 0 0 3.2999999523 0 0 1 0 -1 -1 -1 -1 0 0 0 0 0 0 0 
0
TEXT
8
DBLAYERS
10
0
20
-664.464
40
1.778
1
Layer_216:=216 0 0 0 0 0 0 0 0 0 0 2 0 0 3.2999999523 0 0 1 0 -1 -1 -1 -1 0 0 0 0 0 0 0 
0
TEXT
8
DBLAYERS
10
0
20
-667.512
40
1.778
1
Layer_217:=217 0 0 0 0 0 0 0 0 0 0 2 0 0 3.2999999523 0 0 1 0 -1 -1 -1 -1 0 0 0 0 0 0 0 
0
TEXT
8
DBLAYERS
10
0
20
-670.56
40
1.778
1
Layer_218:=218 0 0 0 0 0 0 0 0 0 0 2 0 0 3.2999999523 0 0 1 0 -1 -1 -1 -1 0 0 0 0 0 0 0 
0
TEXT
8
DBLAYERS
10
0
20
-673.608
40
1.778
1
Layer_219:=219 0 0 0 0 0 0 0 0 0 0 2 0 0 3.2999999523 0 0 1 0 -1 -1 -1 -1 0 0 0 0 0 0 0 
0
TEXT
8
DBLAYERS
10
0
20
-676.656
40
1.778
1
Layer_220:=220 0 0 0 0 0 0 0 0 0 0 2 0 0 3.2999999523 0 0 1 0 -1 -1 -1 -1 0 0 0 0 0 0 0 
0
TEXT
8
DBLAYERS
10
0
20
-679.704
40
1.778
1
Layer_221:=221 0 0 0 0 0 0 0 0 0 0 2 0 0 3.2999999523 0 0 1 0 -1 -1 -1 -1 0 0 0 0 0 0 0 
0
TEXT
8
DBLAYERS
10
0
20
-682.752
40
1.778
1
Layer_222:=222 0 0 0 0 0 0 0 0 0 0 2 0 0 3.2999999523 0 0 1 0 -1 -1 -1 -1 0 0 0 0 0 0 0 
0
TEXT
8
DBLAYERS
10
0
20
-685.8
40
1.778
1
Layer_223:=223 0 0 0 0 0 0 0 0 0 0 2 0 0 3.2999999523 0 0 1 0 -1 -1 -1 -1 0 0 0 0 0 0 0 
0
TEXT
8
DBLAYERS
10
0
20
-688.848
40
1.778
1
Layer_224:=224 0 0 0 0 0 0 0 0 0 0 2 0 0 3.2999999523 0 0 1 0 -1 -1 -1 -1 0 0 0 0 0 0 0 
0
TEXT
8
DBLAYERS
10
0
20
-691.896
40
1.778
1
Layer_225:=225 0 0 0 0 0 0 0 0 0 0 2 0 0 3.2999999523 0 0 1 0 -1 -1 -1 -1 0 0 0 0 0 0 0 
0
TEXT
8
DBLAYERS
10
0
20
-694.944
40
1.778
1
Layer_226:=226 0 0 0 0 0 0 0 0 0 0 2 0 0 3.2999999523 0 0 1 0 -1 -1 -1 -1 0 0 0 0 0 0 0 
0
TEXT
8
DBLAYERS
10
0
20
-697.992
40
1.778
1
Layer_227:=227 0 0 0 0 0 0 0 0 0 0 2 0 0 3.2999999523 0 0 1 0 -1 -1 -1 -1 0 0 0 0 0 0 0 
0
TEXT
8
DBLAYERS
10
0
20
-701.04
40
1.778
1
Layer_228:=228 0 0 0 0 0 0 0 0 0 0 2 0 0 3.2999999523 0 0 1 0 -1 -1 -1 -1 0 0 0 0 0 0 0 
0
TEXT
8
DBLAYERS
10
0
20
-704.088
40
1.778
1
Layer_229:=229 0 0 0 0 0 0 0 0 0 0 2 0 0 3.2999999523 0 0 1 0 -1 -1 -1 -1 0 0 0 0 0 0 0 
0
TEXT
8
DBLAYERS
10
0
20
-707.136
40
1.778
1
Layer_230:=230 0 0 0 0 0 0 0 0 0 0 2 0 0 3.2999999523 0 0 1 0 -1 -1 -1 -1 0 0 0 0 0 0 0 
0
TEXT
8
DBLAYERS
10
0
20
-710.184
40
1.778
1
Layer_231:=231 0 0 0 0 0 0 0 0 0 0 2 0 0 3.2999999523 0 0 1 0 -1 -1 -1 -1 0 0 0 0 0 0 0 
0
TEXT
8
DBLAYERS
10
0
20
-713.232
40
1.778
1
Layer_232:=232 0 0 0 0 0 0 0 0 0 0 2 0 0 3.2999999523 0 0 1 0 -1 -1 -1 -1 0 0 0 0 0 0 0 
0
TEXT
8
DBLAYERS
10
0
20
-716.28
40
1.778
1
Layer_233:=233 0 0 0 0 0 0 0 0 0 0 2 0 0 3.2999999523 0 0 1 0 -1 -1 -1 -1 0 0 0 0 0 0 0 
0
TEXT
8
DBLAYERS
10
0
20
-719.328
40
1.778
1
Layer_234:=234 0 0 0 0 0 0 0 0 0 0 2 0 0 3.2999999523 0 0 1 0 -1 -1 -1 -1 0 0 0 0 0 0 0 
0
TEXT
8
DBLAYERS
10
0
20
-722.376
40
1.778
1
Layer_235:=235 0 0 0 0 0 0 0 0 0 0 2 0 0 3.2999999523 0 0 1 0 -1 -1 -1 -1 0 0 0 0 0 0 0 
0
TEXT
8
DBLAYERS
10
0
20
-725.424
40
1.778
1
Layer_236:=236 0 0 0 0 0 0 0 0 0 0 2 0 0 3.2999999523 0 0 1 0 -1 -1 -1 -1 0 0 0 0 0 0 0 
0
TEXT
8
DBLAYERS
10
0
20
-728.472
40
1.778
1
Layer_237:=237 0 0 0 0 0 0 0 0 0 0 2 0 0 3.2999999523 0 0 1 0 -1 -1 -1 -1 0 0 0 0 0 0 0 
0
TEXT
8
DBLAYERS
10
0
20
-731.52
40
1.778
1
Layer_238:=238 0 0 0 0 0 0 0 0 0 0 2 0 0 3.2999999523 0 0 1 0 -1 -1 -1 -1 0 0 0 0 0 0 0 
0
TEXT
8
DBLAYERS
10
0
20
-734.568
40
1.778
1
Layer_239:=239 0 0 0 0 0 0 0 0 0 0 2 0 0 3.2999999523 0 0 1 0 -1 -1 -1 -1 0 0 0 0 0 0 0 
0
TEXT
8
DBLAYERS
10
0
20
-737.616
40
1.778
1
Layer_240:=240 0 0 0 0 0 0 0 0 0 0 2 0 0 3.2999999523 0 0 1 0 -1 -1 -1 -1 0 0 0 0 0 0 0 
0
TEXT
8
DBLAYERS
10
0
20
-740.664
40
1.778
1
Layer_241:=241 0 0 0 0 0 0 0 0 0 0 2 0 0 3.2999999523 0 0 1 0 -1 -1 -1 -1 0 0 0 0 0 0 0 
0
TEXT
8
DBLAYERS
10
0
20
-743.712
40
1.778
1
Layer_242:=242 0 0 0 0 0 0 0 0 0 0 2 0 0 3.2999999523 0 0 1 0 -1 -1 -1 -1 0 0 0 0 0 0 0 
0
TEXT
8
DBLAYERS
10
0
20
-746.76
40
1.778
1
Layer_243:=243 0 0 0 0 0 0 0 0 0 0 2 0 0 3.2999999523 0 0 1 0 -1 -1 -1 -1 0 0 0 0 0 0 0 
0
TEXT
8
DBLAYERS
10
0
20
-749.808
40
1.778
1
Layer_244:=244 0 0 0 0 0 0 0 0 0 0 2 0 0 3.2999999523 0 0 1 0 -1 -1 -1 -1 0 0 0 0 0 0 0 
0
TEXT
8
DBLAYERS
10
0
20
-752.856
40
1.778
1
Layer_245:=245 0 0 0 0 0 0 0 0 0 0 2 0 0 3.2999999523 0 0 1 0 -1 -1 -1 -1 0 0 0 0 0 0 0 
0
TEXT
8
DBLAYERS
10
0
20
-755.904
40
1.778
1
Layer_246:=246 0 0 0 0 0 0 0 0 0 0 2 0 0 3.2999999523 0 0 1 0 -1 -1 -1 -1 0 0 0 0 0 0 0 
0
TEXT
8
DBLAYERS
10
0
20
-758.952
40
1.778
1
Layer_247:=247 0 0 0 0 0 0 0 0 0 0 2 0 0 3.2999999523 0 0 1 0 -1 -1 -1 -1 0 0 0 0 0 0 0 
0
TEXT
8
DBLAYERS
10
0
20
-762
40
1.778
1
Layer_248:=248 0 0 0 0 0 0 0 0 0 0 2 0 0 3.2999999523 0 0 1 0 -1 -1 -1 -1 0 0 0 0 0 0 0 
0
TEXT
8
DBLAYERS
10
0
20
-765.048
40
1.778
1
Layer_249:=249 0 0 0 0 0 0 0 0 0 0 2 0 0 3.2999999523 0 0 1 0 -1 -1 -1 -1 0 0 0 0 0 0 0 
0
TEXT
8
DBLAYERS
10
0
20
-768.096
40
1.778
1
Layer_250:=250 0 0 0 0 0 0 0 0 0 0 2 0 0 3.2999999523 0 0 1 0 -1 -1 -1 -1 0 0 0 0 0 0 0 
0
ENDBLK
999
*** POWERPCB  BOARD ***
0
BLOCK
2
BOARD_8
8
0
10
0
20
0
3
BOARD_8
70
64
0
POLYLINE
8
BOARD_OUTLINE_00
66
1
40
0.2
41
0.2
70
1
0
VERTEX
8
BOARD_OUTLINE_00
10
-0.3556
20
-0.589
0
VERTEX
8
BOARD_OUTLINE_00
10
20.1444
20
-0.589
0
VERTEX
8
BOARD_OUTLINE_00
10
20.1444
20
-13.589
0
VERTEX
8
BOARD_OUTLINE_00
10
-0.3556
20
-13.589
0
SEQEND
0
INSERT
2
SMOOTH_0$2
8
BOARD_OUTLINE_00
10
-0.3556
20
-0.589
0
INSERT
2
SMOOTH_0$2
8
BOARD_OUTLINE_00
10
20.1444
20
-0.589
0
INSERT
2
SMOOTH_0$2
8
BOARD_OUTLINE_00
10
20.1444
20
-13.589
0
INSERT
2
SMOOTH_0$2
8
BOARD_OUTLINE_00
10
-0.3556
20
-13.589
0
ENDBLK
999
*** POWERPCB  2DLINE ***
999
*** POWERPCB  COMPONENT ***
0
BLOCK
2
PART_TOP_0
8
0
10
0
20
0
3
PART_TOP_0
70
64
0
INSERT
2
SYM_TOP_8
8
0
10
0
20
0
0
INSERT
2
PKG_1
8
0
10
0
20
0
0
TEXT
8
LABEL_INFO
10
-0.889
20
0.3889386667
40
0.889
1
0 0 0 2 0 1
73
2
11
-0.889
21
0.3889386667
41
0.75
7
W0$127
0
TEXT
8
LABEL_ATTRIBUTE
10
-0.889
20
0.3889386667
40
0.889
1
PartType
73
2
11
-0.889
21
0.3889386667
41
0.75
7
W0$127
0
TEXT
8
PART_TYPE_01
10
-0.889
20
0.3889386667
40
0.889
1
MARK
73
3
11
-0.889
21
0.3889386667
41
0.75
7
W0$127
0
TEXT
8
PART_NAME_TOP
10
0
20
0
40
1.778
1
M1
73
3
11
0
21
0
41
0.75
7
W0$254
0
TEXT
8
PART_INFO
10
0
20
-2.54
40
1.778
1
000000
73
3
11
0
21
-2.54
41
0.75
7
W0$254
0
TEXT
8
PART_PTS
10
0
20
-5.08
40
1.778
1
1 
73
3
11
0
21
-5.08
41
0.75
7
W0$254
0
ENDBLK
0
BLOCK
2
PART_TOP_1
8
0
10
0
20
0
3
PART_TOP_1
70
64
0
INSERT
2
SYM_TOP_9
8
0
10
0
20
0
0
INSERT
2
PKG_2
8
0
10
0
20
0
0
TEXT
8
LABEL_INFO
10
-3.3378166667
20
0.4883186667
40
0.7112
1
0 486000000 0 0 0 1
50
270
41
0.75
7
W0$1016
0
TEXT
8
LABEL_ATTRIBUTE
10
-3.3378166667
20
0.4883186667
40
0.7112
1
Ref.Des.
50
270
41
0.75
7
W0$1016
0
TEXT
8
PART_NAME_01
10
-3.3378166667
20
0.4883186667
40
0.7112
1
U1
50
270
41
0.75
7
W0$1016
0
TEXT
8
LABEL_INFO
10
-2.3999966667
20
2.6031966667
40
0.889
1
0 0 0 0 0 1
41
0.75
7
W0$127
0
TEXT
8
LABEL_ATTRIBUTE
10
-2.3999966667
20
2.6031966667
40
0.889
1
Comment
41
0.75
7
W0$127
0
TEXT
8
ATTRIBUTE_126
10
-2.3999966667
20
2.6031966667
40
0.889
1
MPU-6000
41
0.75
7
W0$127
0
TEXT
8
PART_TYPE_TOP
10
-2.3999966667
20
1.3331966667
40
0.889
1
ICM20689
41
0.75
7
W0$127
0
TEXT
8
PART_INFO
10
-2.3999966667
20
0.0631966667
40
0.889
1
000000
41
0.75
7
W0$127
0
TEXT
8
PART_PTS
10
-2.3999966667
20
-1.2068033333
40
0.889
1
1 2 3 4 5 6 7 8 9 10 11 12 13 14 15 16 17 18 19 20 21 22 23 24 25 
41
0.75
7
W0$127
0
ENDBLK
0
BLOCK
2
PART_TOP_2
8
0
10
0
20
0
3
PART_TOP_2
70
64
0
INSERT
2
SYM_TOP_5
8
0
10
0
20
0
0
INSERT
2
PKG_0
8
0
10
0
20
0
0
TEXT
8
LABEL_INFO
10
-2.0705433333
20
0.30169
40
0.7112
1
0 324000000 0 0 0 1
50
180
41
0.75
7
W0$1016
0
TEXT
8
LABEL_ATTRIBUTE
10
-2.0705433333
20
0.30169
40
0.7112
1
Ref.Des.
50
180
41
0.75
7
W0$1016
0
TEXT
8
PART_NAME_01
10
-2.0705433333
20
0.30169
40
0.7112
1
C1
50
180
41
0.75
7
W0$1016
0
TEXT
8
LABEL_INFO
10
1.254506
20
1.0267473333
40
0.9779
1
0 0 0 2 0 1
73
2
11
1.254506
21
1.0267473333
41
0.75
7
W0$1397
0
TEXT
8
LABEL_ATTRIBUTE
10
1.254506
20
1.0267473333
40
0.9779
1
PartType
73
2
11
1.254506
21
1.0267473333
41
0.75
7
W0$1397
0
TEXT
8
PART_TYPE_01
10
1.254506
20
1.0267473333
40
0.9779
1
CAP
73
3
11
1.254506
21
1.0267473333
41
0.75
7
W0$1397
0
TEXT
8
PART_INFO
10
1.254506
20
-0.3702526667
40
0.9779
1
000002
73
3
11
1.254506
21
-0.3702526667
41
0.75
7
W0$1397
0
TEXT
8
PART_PTS
10
1.254506
20
-1.7672526667
40
0.9779
1
1 2 
73
3
11
1.254506
21
-1.7672526667
41
0.75
7
W0$1397
0
ENDBLK
0
BLOCK
2
PART_TOP_3
8
0
10
0
20
0
3
PART_TOP_3
70
64
0
INSERT
2
SYM_TOP_5
8
0
10
0
20
0
0
INSERT
2
PKG_0
8
0
10
0
20
0
0
TEXT
8
LABEL_INFO
10
-1.9846006667
20
0.371242
40
0.7112
1
0 324000000 0 0 0 1
50
180
41
0.75
7
W0$1016
0
TEXT
8
LABEL_ATTRIBUTE
10
-1.9846006667
20
0.371242
40
0.7112
1
Ref.Des.
50
180
41
0.75
7
W0$1016
0
TEXT
8
PART_NAME_01
10
-1.9846006667
20
0.371242
40
0.7112
1
C5
50
180
41
0.75
7
W0$1016
0
TEXT
8
LABEL_INFO
10
1.254506
20
1.0267473333
40
0.9779
1
0 0 0 2 0 1
73
2
11
1.254506
21
1.0267473333
41
0.75
7
W0$1397
0
TEXT
8
LABEL_ATTRIBUTE
10
1.254506
20
1.0267473333
40
0.9779
1
PartType
73
2
11
1.254506
21
1.0267473333
41
0.75
7
W0$1397
0
TEXT
8
PART_TYPE_01
10
1.254506
20
1.0267473333
40
0.9779
1
CAP
73
3
11
1.254506
21
1.0267473333
41
0.75
7
W0$1397
0
TEXT
8
PART_INFO
10
1.254506
20
-0.3702526667
40
0.9779
1
000002
73
3
11
1.254506
21
-0.3702526667
41
0.75
7
W0$1397
0
TEXT
8
PART_PTS
10
1.254506
20
-1.7672526667
40
0.9779
1
1 2 
73
3
11
1.254506
21
-1.7672526667
41
0.75
7
W0$1397
0
ENDBLK
0
BLOCK
2
PART_TOP_4
8
0
10
0
20
0
3
PART_TOP_4
70
64
0
INSERT
2
SYM_TOP_5
8
0
10
0
20
0
0
INSERT
2
PKG_0
8
0
10
0
20
0
0
TEXT
8
LABEL_INFO
10
0.575824
20
1.242202
40
0.7112
1
0 324000000 0 0 0 1
50
180
41
0.75
7
W0$1016
0
TEXT
8
LABEL_ATTRIBUTE
10
0.575824
20
1.242202
40
0.7112
1
Ref.Des.
50
180
41
0.75
7
W0$1016
0
TEXT
8
PART_NAME_01
10
0.575824
20
1.242202
40
0.7112
1
C6
50
180
41
0.75
7
W0$1016
0
TEXT
8
LABEL_INFO
10
1.254506
20
1.0267473333
40
0.9779
1
0 0 0 2 0 1
73
2
11
1.254506
21
1.0267473333
41
0.75
7
W0$1397
0
TEXT
8
LABEL_ATTRIBUTE
10
1.254506
20
1.0267473333
40
0.9779
1
PartType
73
2
11
1.254506
21
1.0267473333
41
0.75
7
W0$1397
0
TEXT
8
PART_TYPE_01
10
1.254506
20
1.0267473333
40
0.9779
1
CAP
73
3
11
1.254506
21
1.0267473333
41
0.75
7
W0$1397
0
TEXT
8
PART_INFO
10
1.254506
20
-0.3702526667
40
0.9779
1
000002
73
3
11
1.254506
21
-0.3702526667
41
0.75
7
W0$1397
0
TEXT
8
PART_PTS
10
1.254506
20
-1.7672526667
40
0.9779
1
1 2 
73
3
11
1.254506
21
-1.7672526667
41
0.75
7
W0$1397
0
ENDBLK
0
BLOCK
2
PART_TOP_5
8
0
10
0
20
0
3
PART_TOP_5
70
64
0
INSERT
2
SYM_TOP_5
8
0
10
0
20
0
0
INSERT
2
PKG_0
8
0
10
0
20
0
0
TEXT
8
LABEL_INFO
10
-1.485918
20
0.5663713333
40
0.7112
1
0 0 0 0 0 1
41
0.75
7
W0$1016
0
TEXT
8
LABEL_ATTRIBUTE
10
-1.485918
20
0.5663713333
40
0.7112
1
Ref.Des.
41
0.75
7
W0$1016
0
TEXT
8
PART_NAME_01
10
-1.485918
20
0.5663713333
40
0.7112
1
C7
41
0.75
7
W0$1016
0
TEXT
8
LABEL_INFO
10
1.254506
20
1.0267473333
40
0.9779
1
0 0 0 2 0 1
73
2
11
1.254506
21
1.0267473333
41
0.75
7
W0$1397
0
TEXT
8
LABEL_ATTRIBUTE
10
1.254506
20
1.0267473333
40
0.9779
1
PartType
73
2
11
1.254506
21
1.0267473333
41
0.75
7
W0$1397
0
TEXT
8
PART_TYPE_01
10
1.254506
20
1.0267473333
40
0.9779
1
CAP
73
3
11
1.254506
21
1.0267473333
41
0.75
7
W0$1397
0
TEXT
8
PART_INFO
10
1.254506
20
-0.3702526667
40
0.9779
1
000002
73
3
11
1.254506
21
-0.3702526667
41
0.75
7
W0$1397
0
TEXT
8
PART_PTS
10
1.254506
20
-1.7672526667
40
0.9779
1
1 2 
73
3
11
1.254506
21
-1.7672526667
41
0.75
7
W0$1397
0
ENDBLK
0
BLOCK
2
PART_TOP_6
8
0
10
0
20
0
3
PART_TOP_6
70
64
0
INSERT
2
SYM_TOP_10
8
0
10
0
20
0
0
INSERT
2
PKG_3
8
0
10
0
20
0
0
TEXT
8
LABEL_INFO
10
-3.5000006667
20
3.2082
40
0.889
1
0 0 0 0 0 1
41
0.75
7
W0$127
0
TEXT
8
LABEL_ATTRIBUTE
10
-3.5000006667
20
3.2082
40
0.889
1
Comment
41
0.75
7
W0$127
0
TEXT
8
ATTRIBUTE_126
10
-3.5000006667
20
3.2082
40
0.889
1
Flash 4Mbits
41
0.75
7
W0$127
0
TEXT
8
LABEL_INFO
10
-0.4625606667
20
0.59087
40
0.7112
1
0 486000000 0 0 0 1
50
270
41
0.75
7
W0$1016
0
TEXT
8
LABEL_ATTRIBUTE
10
-0.4625606667
20
0.59087
40
0.7112
1
Ref.Des.
50
270
41
0.75
7
W0$1016
0
TEXT
8
PART_NAME_01
10
-0.4625606667
20
0.59087
40
0.7112
1
U2
50
270
41
0.75
7
W0$1016
0
TEXT
8
PART_TYPE_TOP
10
-0.4625606667
20
-0.42513
40
0.7112
1
FLASH_W25X40BVSNIG
50
270
41
0.75
7
W0$1016
0
TEXT
8
PART_INFO
10
-0.4625606667
20
-1.44113
40
0.7112
1
000000
50
270
41
0.75
7
W0$1016
0
TEXT
8
PART_PTS
10
-0.4625606667
20
-2.45713
40
0.7112
1
1 2 3 4 5 6 7 8 
50
270
41
0.75
7
W0$1016
0
ENDBLK
0
BLOCK
2
PART_TOP_7
8
0
10
0
20
0
3
PART_TOP_7
70
64
0
INSERT
2
SYM_TOP_12
8
0
10
0
20
0
0
INSERT
2
PKG_4
8
0
10
0
20
0
0
TEXT
8
LABEL_INFO
10
-0.613576
20
-0.4981173333
40
0.7112
1
0 0 0 0 0 1
41
0.75
7
W0$1016
0
TEXT
8
LABEL_ATTRIBUTE
10
-0.613576
20
-0.4981173333
40
0.7112
1
Ref.Des.
41
0.75
7
W0$1016
0
TEXT
8
PART_NAME_01
10
-0.613576
20
-0.4981173333
40
0.7112
1
U3
41
0.75
7
W0$1016
0
TEXT
8
LABEL_INFO
10
0
20
0
40
0.889
1
0 0 0 2 0 1
73
2
11
0
21
0
41
0.75
7
W0$127
0
TEXT
8
LABEL_ATTRIBUTE
10
0
20
0
40
0.889
1
PartType
73
2
11
0
21
0
41
0.75
7
W0$127
0
TEXT
8
PART_TYPE_01
10
0
20
0
40
0.889
1
BMI055
73
3
11
0
21
0
41
0.75
7
W0$127
0
TEXT
8
PART_INFO
10
0
20
-1.27
40
0.889
1
000000
73
3
11
0
21
-1.27
41
0.75
7
W0$127
0
TEXT
8
PART_PTS
10
0
20
-2.54
40
0.889
1
1 2 3 4 5 6 7 8 9 10 11 12 13 14 15 16 
73
3
11
0
21
-2.54
41
0.75
7
W0$127
0
ENDBLK
0
BLOCK
2
PART_TOP_8
8
0
10
0
20
0
3
PART_TOP_8
70
64
0
INSERT
2
SYM_TOP_5
8
0
10
0
20
0
0
INSERT
2
PKG_0
8
0
10
0
20
0
0
TEXT
8
LABEL_INFO
10
-0.614008
20
-0.558822
40
0.7112
1
0 324000000 0 0 0 1
50
180
41
0.75
7
W0$1016
0
TEXT
8
LABEL_ATTRIBUTE
10
-0.614008
20
-0.558822
40
0.7112
1
Ref.Des.
50
180
41
0.75
7
W0$1016
0
TEXT
8
PART_NAME_01
10
-0.614008
20
-0.558822
40
0.7112
1
C3
50
180
41
0.75
7
W0$1016
0
TEXT
8
LABEL_INFO
10
1.254506
20
1.0267473333
40
0.9779
1
0 0 0 2 0 1
73
2
11
1.254506
21
1.0267473333
41
0.75
7
W0$1397
0
TEXT
8
LABEL_ATTRIBUTE
10
1.254506
20
1.0267473333
40
0.9779
1
PartType
73
2
11
1.254506
21
1.0267473333
41
0.75
7
W0$1397
0
TEXT
8
PART_TYPE_01
10
1.254506
20
1.0267473333
40
0.9779
1
CAP
73
3
11
1.254506
21
1.0267473333
41
0.75
7
W0$1397
0
TEXT
8
PART_INFO
10
1.254506
20
-0.3702526667
40
0.9779
1
000002
73
3
11
1.254506
21
-0.3702526667
41
0.75
7
W0$1397
0
TEXT
8
PART_PTS
10
1.254506
20
-1.7672526667
40
0.9779
1
1 2 
73
3
11
1.254506
21
-1.7672526667
41
0.75
7
W0$1397
0
ENDBLK
0
BLOCK
2
PART_TOP_9
8
0
10
0
20
0
3
PART_TOP_9
70
64
0
INSERT
2
SYM_TOP_5
8
0
10
0
20
0
0
INSERT
2
PKG_0
8
0
10
0
20
0
0
TEXT
8
LABEL_INFO
10
-0.450484
20
0.64609
40
0.7112
1
0 0 0 0 0 1
41
0.75
7
W0$1016
0
TEXT
8
LABEL_ATTRIBUTE
10
-0.450484
20
0.64609
40
0.7112
1
Ref.Des.
41
0.75
7
W0$1016
0
TEXT
8
PART_NAME_01
10
-0.450484
20
0.64609
40
0.7112
1
C4
41
0.75
7
W0$1016
0
TEXT
8
LABEL_INFO
10
1.254506
20
1.0267473333
40
0.9779
1
0 0 0 2 0 1
73
2
11
1.254506
21
1.0267473333
41
0.75
7
W0$1397
0
TEXT
8
LABEL_ATTRIBUTE
10
1.254506
20
1.0267473333
40
0.9779
1
PartType
73
2
11
1.254506
21
1.0267473333
41
0.75
7
W0$1397
0
TEXT
8
PART_TYPE_01
10
1.254506
20
1.0267473333
40
0.9779
1
CAP
73
3
11
1.254506
21
1.0267473333
41
0.75
7
W0$1397
0
TEXT
8
PART_INFO
10
1.254506
20
-0.3702526667
40
0.9779
1
000002
73
3
11
1.254506
21
-0.3702526667
41
0.75
7
W0$1397
0
TEXT
8
PART_PTS
10
1.254506
20
-1.7672526667
40
0.9779
1
1 2 
73
3
11
1.254506
21
-1.7672526667
41
0.75
7
W0$1397
0
ENDBLK
0
BLOCK
2
PART_TOP_10
8
0
10
0
20
0
3
PART_TOP_10
70
64
0
INSERT
2
SYM_TOP_5
8
0
10
0
20
0
0
INSERT
2
PKG_0
8
0
10
0
20
0
0
TEXT
8
LABEL_INFO
10
1.962516
20
-0.3360166667
40
0.7112
1
0 0 0 0 0 1
41
0.75
7
W0$1016
0
TEXT
8
LABEL_ATTRIBUTE
10
1.962516
20
-0.3360166667
40
0.7112
1
Ref.Des.
41
0.75
7
W0$1016
0
TEXT
8
PART_NAME_01
10
1.962516
20
-0.3360166667
40
0.7112
1
C8
41
0.75
7
W0$1016
0
TEXT
8
LABEL_INFO
10
1.254506
20
1.0267473333
40
0.9779
1
0 0 0 2 0 1
73
2
11
1.254506
21
1.0267473333
41
0.75
7
W0$1397
0
TEXT
8
LABEL_ATTRIBUTE
10
1.254506
20
1.0267473333
40
0.9779
1
PartType
73
2
11
1.254506
21
1.0267473333
41
0.75
7
W0$1397
0
TEXT
8
PART_TYPE_01
10
1.254506
20
1.0267473333
40
0.9779
1
CAP
73
3
11
1.254506
21
1.0267473333
41
0.75
7
W0$1397
0
TEXT
8
PART_INFO
10
1.254506
20
-0.3702526667
40
0.9779
1
000002
73
3
11
1.254506
21
-0.3702526667
41
0.75
7
W0$1397
0
TEXT
8
PART_PTS
10
1.254506
20
-1.7672526667
40
0.9779
1
1 2 
73
3
11
1.254506
21
-1.7672526667
41
0.75
7
W0$1397
0
ENDBLK
0
BLOCK
2
PART_TOP_11
8
0
10
0
20
0
3
PART_TOP_11
70
64
0
INSERT
2
SYM_TOP_20
8
0
10
0
20
0
0
INSERT
2
PKG_6
8
0
10
0
20
0
0
TEXT
8
LABEL_INFO
10
2.0062926667
20
-0.3635146667
40
0.7112
1
0 0 0 0 0 1
41
0.75
7
W0$1016
0
TEXT
8
LABEL_ATTRIBUTE
10
2.0062926667
20
-0.3635146667
40
0.7112
1
Ref.Des.
41
0.75
7
W0$1016
0
TEXT
8
PART_NAME_01
10
2.0062926667
20
-0.3635146667
40
0.7112
1
R1
41
0.75
7
W0$1016
0
TEXT
8
LABEL_INFO
10
1.636522
20
1.2385833333
40
0.9779
1
0 0 0 2 0 1
73
2
11
1.636522
21
1.2385833333
41
0.75
7
W0$1397
0
TEXT
8
LABEL_ATTRIBUTE
10
1.636522
20
1.2385833333
40
0.9779
1
PartType
73
2
11
1.636522
21
1.2385833333
41
0.75
7
W0$1397
0
TEXT
8
PART_TYPE_01
10
1.636522
20
1.2385833333
40
0.9779
1
RES
73
3
11
1.636522
21
1.2385833333
41
0.75
7
W0$1397
0
TEXT
8
PART_INFO
10
1.636522
20
-0.1584166667
40
0.9779
1
000001
73
3
11
1.636522
21
-0.1584166667
41
0.75
7
W0$1397
0
TEXT
8
PART_PTS
10
1.636522
20
-1.5554166667
40
0.9779
1
1 2 
73
3
11
1.636522
21
-1.5554166667
41
0.75
7
W0$1397
0
ENDBLK
0
BLOCK
2
PART_TOP_12
8
0
10
0
20
0
3
PART_TOP_12
70
64
0
INSERT
2
SYM_TOP_3
8
0
10
0
20
0
0
INSERT
2
PKG_0
8
0
10
0
20
0
0
TEXT
8
LABEL_INFO
10
1.254506
20
1.0267473333
40
0.9779
1
0 0 0 2 0 1
73
2
11
1.254506
21
1.0267473333
41
0.75
7
W0$1397
0
TEXT
8
LABEL_ATTRIBUTE
10
1.254506
20
1.0267473333
40
0.9779
1
PartType
73
2
11
1.254506
21
1.0267473333
41
0.75
7
W0$1397
0
TEXT
8
PART_TYPE_01
10
1.254506
20
1.0267473333
40
0.9779
1
CAP
73
3
11
1.254506
21
1.0267473333
41
0.75
7
W0$1397
0
TEXT
8
LABEL_INFO
10
0.6146793333
20
1.4732
40
0.7112
1
0 324000000 0 0 0 1
50
180
41
0.75
7
W0$1016
0
TEXT
8
LABEL_ATTRIBUTE
10
0.6146793333
20
1.4732
40
0.7112
1
Ref.Des.
50
180
41
0.75
7
W0$1016
0
TEXT
8
PART_NAME_01
10
0.6146793333
20
1.4732
40
0.7112
1
C10
50
180
41
0.75
7
W0$1016
0
TEXT
8
PART_INFO
10
0.6146793333
20
0.4572
40
0.7112
1
000000
50
180
41
0.75
7
W0$1016
0
TEXT
8
PART_PTS
10
0.6146793333
20
-0.5588
40
0.7112
1
1 2 
50
180
41
0.75
7
W0$1016
0
ENDBLK
0
BLOCK
2
PART_TOP_13
8
0
10
0
20
0
3
PART_TOP_13
70
64
0
INSERT
2
SYM_TOP_3
8
0
10
0
20
0
0
INSERT
2
PKG_0
8
0
10
0
20
0
0
TEXT
8
LABEL_INFO
10
1.254506
20
1.0267473333
40
0.9779
1
0 0 0 2 0 1
73
2
11
1.254506
21
1.0267473333
41
0.75
7
W0$1397
0
TEXT
8
LABEL_ATTRIBUTE
10
1.254506
20
1.0267473333
40
0.9779
1
PartType
73
2
11
1.254506
21
1.0267473333
41
0.75
7
W0$1397
0
TEXT
8
PART_TYPE_01
10
1.254506
20
1.0267473333
40
0.9779
1
CAP
73
3
11
1.254506
21
1.0267473333
41
0.75
7
W0$1397
0
TEXT
8
LABEL_INFO
10
-2.191808
20
-0.5234653333
40
0.7112
1
0 0 0 0 0 1
41
0.75
7
W0$1016
0
TEXT
8
LABEL_ATTRIBUTE
10
-2.191808
20
-0.5234653333
40
0.7112
1
Ref.Des.
41
0.75
7
W0$1016
0
TEXT
8
PART_NAME_01
10
-2.191808
20
-0.5234653333
40
0.7112
1
C2
41
0.75
7
W0$1016
0
TEXT
8
PART_INFO
10
-2.191808
20
-1.5394653333
40
0.7112
1
000000
41
0.75
7
W0$1016
0
TEXT
8
PART_PTS
10
-2.191808
20
-2.5554653333
40
0.7112
1
1 2 
41
0.75
7
W0$1016
0
ENDBLK
0
BLOCK
2
PART_TOP_14
8
0
10
0
20
0
3
PART_TOP_14
70
64
0
INSERT
2
SYM_TOP_3
8
0
10
0
20
0
0
INSERT
2
PKG_0
8
0
10
0
20
0
0
TEXT
8
LABEL_INFO
10
1.254506
20
1.0267473333
40
0.9779
1
0 0 0 2 0 1
73
2
11
1.254506
21
1.0267473333
41
0.75
7
W0$1397
0
TEXT
8
LABEL_ATTRIBUTE
10
1.254506
20
1.0267473333
40
0.9779
1
PartType
73
2
11
1.254506
21
1.0267473333
41
0.75
7
W0$1397
0
TEXT
8
PART_TYPE_01
10
1.254506
20
1.0267473333
40
0.9779
1
CAP
73
3
11
1.254506
21
1.0267473333
41
0.75
7
W0$1397
0
TEXT
8
LABEL_INFO
10
-0.551058
20
-1.47545
40
0.7112
1
0 0 0 0 0 1
41
0.75
7
W0$1016
0
TEXT
8
LABEL_ATTRIBUTE
10
-0.551058
20
-1.47545
40
0.7112
1
Ref.Des.
41
0.75
7
W0$1016
0
TEXT
8
PART_NAME_01
10
-0.551058
20
-1.47545
40
0.7112
1
C9
41
0.75
7
W0$1016
0
TEXT
8
PART_INFO
10
-0.551058
20
-2.49145
40
0.7112
1
000000
41
0.75
7
W0$1016
0
TEXT
8
PART_PTS
10
-0.551058
20
-3.50745
40
0.7112
1
1 2 
41
0.75
7
W0$1016
0
ENDBLK
0
BLOCK
2
PART_TOP_15
8
0
10
0
20
0
3
PART_TOP_15
70
64
0
INSERT
2
SYM_TOP_13
8
0
10
0
20
0
0
INSERT
2
PKG_5
8
0
10
0
20
0
0
TEXT
8
LABEL_INFO
10
-2.74955
20
1.7188646667
40
0.9779
1
0 0 0 2 0 1
73
2
11
-2.74955
21
1.7188646667
41
0.75
7
W0$1397
0
TEXT
8
LABEL_ATTRIBUTE
10
-2.74955
20
1.7188646667
40
0.9779
1
PartType
73
2
11
-2.74955
21
1.7188646667
41
0.75
7
W0$1397
0
TEXT
8
PART_TYPE_01
10
-2.74955
20
1.7188646667
40
0.9779
1
FB
73
3
11
-2.74955
21
1.7188646667
41
0.75
7
W0$1397
0
TEXT
8
LABEL_INFO
10
-0.4149073333
20
0.9586906667
40
0.7112
1
0 0 0 0 0 1
41
0.75
7
W0$1016
0
TEXT
8
LABEL_ATTRIBUTE
10
-0.4149073333
20
0.9586906667
40
0.7112
1
Ref.Des.
41
0.75
7
W0$1016
0
TEXT
8
PART_NAME_01
10
-0.4149073333
20
0.9586906667
40
0.7112
1
L1
41
0.75
7
W0$1016
0
TEXT
8
PART_INFO
10
-0.4149073333
20
-0.0573093333
40
0.7112
1
000000
41
0.75
7
W0$1016
0
TEXT
8
PART_PTS
10
-0.4149073333
20
-1.0733093333
40
0.7112
1
1 2 
41
0.75
7
W0$1016
0
ENDBLK
0
BLOCK
2
PART_TOP_16
8
0
10
0
20
0
3
PART_TOP_16
70
64
0
INSERT
2
SYM_TOP_25
8
0
10
0
20
0
0
INSERT
2
PKG_7
8
0
10
0
20
0
0
TEXT
8
LABEL_INFO
10
-0.021772
20
-0.7865306667
40
0.7112
1
0 162000000 0 0 0 1
50
90
41
0.75
7
W0$1016
0
TEXT
8
LABEL_ATTRIBUTE
10
-0.021772
20
-0.7865306667
40
0.7112
1
Ref.Des.
50
90
41
0.75
7
W0$1016
0
TEXT
8
PART_NAME_01
10
-0.021772
20
-0.7865306667
40
0.7112
1
J1
50
90
41
0.75
7
W0$1016
0
TEXT
8
LABEL_INFO
10
0
20
0
40
0.889
1
0 0 0 2 0 1
73
2
11
0
21
0
41
0.75
7
W0$127
0
TEXT
8
LABEL_ATTRIBUTE
10
0
20
0
40
0.889
1
PartType
73
2
11
0
21
0
41
0.75
7
W0$127
0
TEXT
8
PART_TYPE_01
10
0
20
0
40
0.889
1
FPC-03-17P
73
3
11
0
21
0
41
0.75
7
W0$127
0
TEXT
8
PART_INFO
10
0
20
-1.27
40
0.889
1
000000
73
3
11
0
21
-1.27
41
0.75
7
W0$127
0
TEXT
8
PART_PTS
10
0
20
-2.54
40
0.889
1
1 2 3 4 5 6 7 8 9 10 11 12 13 14 15 16 17 
73
3
11
0
21
-2.54
41
0.75
7
W0$127
0
ENDBLK
0
BLOCK
2
SYM_TOP_8
8
0
10
0
20
0
3
SYM_TOP_8
70
64
0
TEXT
8
SYM_NAME
10
0
20
0
40
1.778
1
MARK/CW
41
0.75
0
TEXT
8
SYM_PART_TYPE_01
10
-0.889
20
0.3889386667
40
0.889
1
 
73
2
11
-0.889
21
0.3889386667
41
0.75
7
W0$127R0
0
TEXT
8
SYM_PART_NAME_01
10
-0.889
20
0
40
0.889
1
 
41
0.75
7
W0$127R0
0
INSERT
2
PART_BODY_TOP_6
8
0
10
0
20
0
0
INSERT
2
STK_TOP_356
8
0
10
0
20
0
0
TEXT
8
SYM_TERMINAL
10
0
20
-3.048
40
1.778
1
1
0
ENDBLK
0
BLOCK
2
PKG_1
8
0
10
0
20
0
3
PKG_1
70
64
0
TEXT
8
PKG_INFO
10
0
20
0
40
1.778
1
*SYM:= 8
0
TEXT
8
PKG_INFO
10
0
20
-3.048
40
1.778
1
*PKG:= 0 MARK MAR
0
TEXT
8
PKG_INFO
10
0
20
-6.096
40
1.778
1
*GATE:=1
0
TEXT
8
PKG_INFO
10
0
20
-9.144
40
1.778
1
*GATEPIN:= 0 9 1 <>
0
ENDBLK
0
BLOCK
2
SYM_TOP_9
8
0
10
0
20
0
3
SYM_TOP_9
70
64
0
TEXT
8
SYM_NAME
10
0
20
0
40
1.778
1
QFN-24
41
0.75
0
TEXT
8
SYM_PART_NAME_126
10
-2.3999966667
20
3.8731966667
40
0.889
1
 
41
0.75
7
W0$127R0
0
TEXT
8
SYM_ATTRIBUTE_126
10
-2.3999966667
20
2.6031966667
40
0.889
1
Comment
41
0.75
7
W0$127R0
0
INSERT
2
PART_BODY_TOP_7
8
0
10
0
20
0
0
INSERT
2
STK_TOP_66
8
0
10
-1.999996
20
1.249934
0
TEXT
8
SYM_TERMINAL
10
0
20
-3.048
40
1.778
1
1
0
INSERT
2
STK_TOP_66
8
0
10
-1.999996
20
0.7500613333
0
TEXT
8
SYM_TERMINAL
10
0
20
-6.096
40
1.778
1
2
0
INSERT
2
STK_TOP_66
8
0
10
-1.999996
20
0.2499353333
0
TEXT
8
SYM_TERMINAL
10
0
20
-9.144
40
1.778
1
3
0
INSERT
2
STK_TOP_66
8
0
10
-1.999996
20
-0.2499353333
0
TEXT
8
SYM_TERMINAL
10
0
20
-12.192
40
1.778
1
4
0
INSERT
2
STK_TOP_66
8
0
10
-1.999996
20
-0.7500613333
0
TEXT
8
SYM_TERMINAL
10
0
20
-15.24
40
1.778
1
5
0
INSERT
2
STK_TOP_66
8
0
10
-1.999996
20
-1.249934
0
TEXT
8
SYM_TERMINAL
10
0
20
-18.288
40
1.778
1
6
0
INSERT
2
STK_TOP_68
8
0
10
-1.25001
20
-1.999996
0
TEXT
8
SYM_TERMINAL
10
0
20
-21.336
40
1.778
1
7
0
INSERT
2
STK_TOP_68
8
0
10
-0.7500106667
20
-1.999996
0
TEXT
8
SYM_TERMINAL
10
0
20
-24.384
40
1.778
1
8
0
INSERT
2
STK_TOP_68
8
0
10
-0.250012
20
-1.999996
0
TEXT
8
SYM_TERMINAL
10
0
20
-27.432
40
1.778
1
9
0
INSERT
2
STK_TOP_68
8
0
10
0.2499866667
20
-1.999996
0
TEXT
8
SYM_TERMINAL
10
0
20
-30.48
40
1.778
1
10
0
INSERT
2
STK_TOP_68
8
0
10
0.7500106667
20
-1.999996
0
TEXT
8
SYM_TERMINAL
10
0
20
-33.528
40
1.778
1
11
0
INSERT
2
STK_TOP_68
8
0
10
1.25001
20
-1.999996
0
TEXT
8
SYM_TERMINAL
10
0
20
-36.576
40
1.778
1
12
0
INSERT
2
STK_TOP_66
8
0
10
1.999996
20
-1.249934
0
TEXT
8
SYM_TERMINAL
10
0
20
-39.624
40
1.778
1
13
0
INSERT
2
STK_TOP_66
8
0
10
1.999996
20
-0.7500613333
0
TEXT
8
SYM_TERMINAL
10
0
20
-42.672
40
1.778
1
14
0
INSERT
2
STK_TOP_66
8
0
10
1.999996
20
-0.2499353333
0
TEXT
8
SYM_TERMINAL
10
0
20
-45.72
40
1.778
1
15
0
INSERT
2
STK_TOP_66
8
0
10
1.999996
20
0.2499353333
0
TEXT
8
SYM_TERMINAL
10
0
20
-48.768
40
1.778
1
16
0
INSERT
2
STK_TOP_66
8
0
10
1.999996
20
0.7500613333
0
TEXT
8
SYM_TERMINAL
10
0
20
-51.816
40
1.778
1
17
0
INSERT
2
STK_TOP_66
8
0
10
1.999996
20
1.249934
0
TEXT
8
SYM_TERMINAL
10
0
20
-54.864
40
1.778
1
18
0
INSERT
2
STK_TOP_68
8
0
10
1.25001
20
1.999996
0
TEXT
8
SYM_TERMINAL
10
0
20
-57.912
40
1.778
1
19
0
INSERT
2
STK_TOP_68
8
0
10
0.7500106667
20
1.999996
0
TEXT
8
SYM_TERMINAL
10
0
20
-60.96
40
1.778
1
20
0
INSERT
2
STK_TOP_68
8
0
10
0.2499866667
20
1.999996
0
TEXT
8
SYM_TERMINAL
10
0
20
-64.008
40
1.778
1
21
0
INSERT
2
STK_TOP_68
8
0
10
-0.250012
20
1.999996
0
TEXT
8
SYM_TERMINAL
10
0
20
-67.056
40
1.778
1
22
0
INSERT
2
STK_TOP_68
8
0
10
-0.7500106667
20
1.999996
0
TEXT
8
SYM_TERMINAL
10
0
20
-70.104
40
1.778
1
23
0
INSERT
2
STK_TOP_68
8
0
10
-1.25001
20
1.999996
0
TEXT
8
SYM_TERMINAL
10
0
20
-73.152
40
1.778
1
24
0
INSERT
2
STK_TOP_195
8
0
10
0
20
0
0
TEXT
8
SYM_TERMINAL
10
0
20
-76.2
40
1.778
1
25
0
ENDBLK
0
BLOCK
2
PKG_2
8
0
10
0
20
0
3
PKG_2
70
64
0
TEXT
8
PKG_INFO
10
0
20
0
40
1.778
1
*SYM:= 9
0
TEXT
8
PKG_INFO
10
0
20
-3.048
40
1.778
1
*PKG:= 0 ICM20689 TTL
0
TEXT
8
PKG_INFO
10
0
20
-6.096
40
1.778
1
*GATE:=0
0
TEXT
8
PKG_INFO
10
0
20
-9.144
40
1.778
1
*GATEPIN:= 0 5 8 VDDIO
0
TEXT
8
PKG_INFO
10
0
20
-12.192
40
1.778
1
*GATEPIN:= 0 5 9 AD0/SDO
0
TEXT
8
PKG_INFO
10
0
20
-15.24
40
1.778
1
*GATEPIN:= 0 5 7 NC6
0
TEXT
8
PKG_INFO
10
0
20
-18.288
40
1.778
1
*GATEPIN:= 0 5 6 NC5
0
TEXT
8
PKG_INFO
10
0
20
-21.336
40
1.778
1
*GATEPIN:= 0 5 1 NC0
0
TEXT
8
PKG_INFO
10
0
20
-24.384
40
1.778
1
*GATEPIN:= 0 5 22 NCS
0
TEXT
8
PKG_INFO
10
0
20
-27.432
40
1.778
1
*GATEPIN:= 0 5 20 NC12
0
TEXT
8
PKG_INFO
10
0
20
-30.48
40
1.778
1
*GATEPIN:= 0 5 11 FSYNC
0
TEXT
8
PKG_INFO
10
0
20
-33.528
40
1.778
1
*GATEPIN:= 0 5 18 GND
0
TEXT
8
PKG_INFO
10
0
20
-36.576
40
1.778
1
*GATEPIN:= 0 5 12 INT
0
TEXT
8
PKG_INFO
10
0
20
-39.624
40
1.778
1
*GATEPIN:= 0 5 2 NC1
0
TEXT
8
PKG_INFO
10
0
20
-42.672
40
1.778
1
*GATEPIN:= 0 5 3 NC2
0
TEXT
8
PKG_INFO
10
0
20
-45.72
40
1.778
1
*GATEPIN:= 0 5 4 NC3
0
TEXT
8
PKG_INFO
10
0
20
-48.768
40
1.778
1
*GATEPIN:= 0 5 5 NC4
0
TEXT
8
PKG_INFO
10
0
20
-51.816
40
1.778
1
*GATEPIN:= 0 5 14 NC7
0
TEXT
8
PKG_INFO
10
0
20
-54.864
40
1.778
1
*GATEPIN:= 0 5 15 NC8
0
TEXT
8
PKG_INFO
10
0
20
-57.912
40
1.778
1
*GATEPIN:= 0 5 16 NC9
0
TEXT
8
PKG_INFO
10
0
20
-60.96
40
1.778
1
*GATEPIN:= 0 5 17 NC10
0
TEXT
8
PKG_INFO
10
0
20
-64.008
40
1.778
1
*GATEPIN:= 0 5 10 REGOUT
0
TEXT
8
PKG_INFO
10
0
20
-67.056
40
1.778
1
*GATEPIN:= 0 5 19 NC11
0
TEXT
8
PKG_INFO
10
0
20
-70.104
40
1.778
1
*GATEPIN:= 0 5 21 NC13
0
TEXT
8
PKG_INFO
10
0
20
-73.152
40
1.778
1
*GATEPIN:= 0 5 23 SCL/SCLK
0
TEXT
8
PKG_INFO
10
0
20
-76.2
40
1.778
1
*GATEPIN:= 0 5 24 SDA/SDI
0
TEXT
8
PKG_INFO
10
0
20
-79.248
40
1.778
1
*GATEPIN:= 0 5 13 VDD
0
TEXT
8
PKG_INFO
10
0
20
-82.296
40
1.778
1
*GATEPIN:= 0 9 25 HET
0
ENDBLK
0
BLOCK
2
SYM_TOP_5
8
0
10
0
20
0
3
SYM_TOP_5
70
64
0
TEXT
8
SYM_NAME
10
0
20
0
40
1.778
1
C0402
41
0.75
0
TEXT
8
SYM_PART_TYPE_01
10
1.254506
20
1.0267473333
40
0.9779
1
 
73
2
11
1.254506
21
1.0267473333
41
0.75
7
W0$1397R0
0
TEXT
8
SYM_PART_NAME_01
10
-1.286256
20
-0.329692
40
0.7112
1
 
41
0.75
7
W0$1016R0
0
INSERT
2
PART_BODY_TOP_3
8
0
10
0
20
0
0
INSERT
2
STK_TOP_54
8
0
10
-0.425
20
0
0
TEXT
8
SYM_TERMINAL
10
0
20
-3.048
40
1.778
1
1
0
INSERT
2
STK_TOP_54
8
0
10
0.425
20
0
0
TEXT
8
SYM_TERMINAL
10
0
20
-6.096
40
1.778
1
2
0
ENDBLK
0
BLOCK
2
PKG_0
8
0
10
0
20
0
3
PKG_0
70
64
0
TEXT
8
PKG_INFO
10
0
20
0
40
1.778
1
*SYM:= 3 4 5 6 7
0
TEXT
8
PKG_INFO
10
0
20
-3.048
40
1.778
1
*PKG:= 0 CAP CAP
0
TEXT
8
PKG_INFO
10
0
20
-6.096
40
1.778
1
*GATE:=0
0
TEXT
8
PKG_INFO
10
0
20
-9.144
40
1.778
1
*GATEPIN:= 2 9 1 <>
0
TEXT
8
PKG_INFO
10
0
20
-12.192
40
1.778
1
*GATEPIN:= 1 9 2 <>
0
ENDBLK
0
BLOCK
2
SYM_TOP_10
8
0
10
0
20
0
3
SYM_TOP_10
70
64
0
TEXT
8
SYM_NAME
10
0
20
0
40
1.778
1
SOIC8_N
41
0.75
0
TEXT
8
SYM_PART_NAME_126
10
-3.5000006667
20
4.4782
40
0.889
1
 
41
0.75
7
W0$127R0
0
TEXT
8
SYM_ATTRIBUTE_126
10
-3.5000006667
20
3.2082
40
0.889
1
Comment
41
0.75
7
W0$127R0
0
INSERT
2
PART_BODY_TOP_9
8
0
10
0
20
0
0
INSERT
2
STK_TOP_396
8
0
10
-2.4
20
1.905
0
TEXT
8
SYM_TERMINAL
10
0
20
-3.048
40
1.778
1
1
0
INSERT
2
STK_TOP_396
8
0
10
-2.4
20
0.635
0
TEXT
8
SYM_TERMINAL
10
0
20
-6.096
40
1.778
1
2
0
INSERT
2
STK_TOP_396
8
0
10
-2.4
20
-0.635
0
TEXT
8
SYM_TERMINAL
10
0
20
-9.144
40
1.778
1
3
0
INSERT
2
STK_TOP_396
8
0
10
-2.4
20
-1.905
0
TEXT
8
SYM_TERMINAL
10
0
20
-12.192
40
1.778
1
4
0
INSERT
2
STK_TOP_396
8
0
10
2.4
20
-1.905
0
TEXT
8
SYM_TERMINAL
10
0
20
-15.24
40
1.778
1
5
0
INSERT
2
STK_TOP_396
8
0
10
2.4
20
-0.635
0
TEXT
8
SYM_TERMINAL
10
0
20
-18.288
40
1.778
1
6
0
INSERT
2
STK_TOP_396
8
0
10
2.4
20
0.635
0
TEXT
8
SYM_TERMINAL
10
0
20
-21.336
40
1.778
1
7
0
INSERT
2
STK_TOP_396
8
0
10
2.4
20
1.905
0
TEXT
8
SYM_TERMINAL
10
0
20
-24.384
40
1.778
1
8
0
ENDBLK
0
BLOCK
2
PKG_3
8
0
10
0
20
0
3
PKG_3
70
64
0
TEXT
8
PKG_INFO
10
0
20
0
40
1.778
1
*SYM:= 10 11
0
TEXT
8
PKG_INFO
10
0
20
-3.048
40
1.778
1
*PKG:= 0 FLASH_W25X40BVSNIG TTL
0
TEXT
8
PKG_INFO
10
0
20
-6.096
40
1.778
1
*GATE:=0
0
TEXT
8
PKG_INFO
10
0
20
-9.144
40
1.778
1
*GATEPIN:= 0 5 1 \CS
0
TEXT
8
PKG_INFO
10
0
20
-12.192
40
1.778
1
*GATEPIN:= 0 0 2 SO
0
TEXT
8
PKG_INFO
10
0
20
-15.24
40
1.778
1
*GATEPIN:= 0 5 3 \WP
0
TEXT
8
PKG_INFO
10
0
20
-18.288
40
1.778
1
*GATEPIN:= 0 7 4 VSS
0
TEXT
8
PKG_INFO
10
0
20
-21.336
40
1.778
1
*GATEPIN:= 0 5 5 SI
0
TEXT
8
PKG_INFO
10
0
20
-24.384
40
1.778
1
*GATEPIN:= 0 5 6 SCK
0
TEXT
8
PKG_INFO
10
0
20
-27.432
40
1.778
1
*GATEPIN:= 0 5 7 \HOLD
0
TEXT
8
PKG_INFO
10
0
20
-30.48
40
1.778
1
*GATEPIN:= 0 7 8 VCC
0
ENDBLK
0
BLOCK
2
SYM_TOP_12
8
0
10
0
20
0
3
SYM_TOP_12
70
64
0
TEXT
8
SYM_NAME
10
0
20
0
40
1.778
1
BMI055
41
0.75
0
TEXT
8
SYM_PART_TYPE_01
10
0
20
0
40
0.889
1
 
73
2
11
0
21
0
41
0.75
7
W0$127R0
0
TEXT
8
SYM_PART_NAME_01
10
0
20
0
40
0.889
1
 
41
0.75
7
W0$127R0
0
INSERT
2
PART_BODY_TOP_11
8
0
10
0
20
0
0
INSERT
2
STK_TOP_379
8
0
10
-1.5
20
1.4
0
TEXT
8
SYM_TERMINAL
10
0
20
-3.048
40
1.778
1
1
0
INSERT
2
STK_TOP_379
8
0
10
-1
20
1.4
0
TEXT
8
SYM_TERMINAL
10
0
20
-6.096
40
1.778
1
2
0
INSERT
2
STK_TOP_379
8
0
10
-0.5
20
1.4
0
TEXT
8
SYM_TERMINAL
10
0
20
-9.144
40
1.778
1
3
0
INSERT
2
STK_TOP_379
8
0
10
0
20
1.4
0
TEXT
8
SYM_TERMINAL
10
0
20
-12.192
40
1.778
1
4
0
INSERT
2
STK_TOP_379
8
0
10
0.5
20
1.4
0
TEXT
8
SYM_TERMINAL
10
0
20
-15.24
40
1.778
1
5
0
INSERT
2
STK_TOP_379
8
0
10
1
20
1.4
0
TEXT
8
SYM_TERMINAL
10
0
20
-18.288
40
1.778
1
6
0
INSERT
2
STK_TOP_379
8
0
10
1.5
20
1.4
0
TEXT
8
SYM_TERMINAL
10
0
20
-21.336
40
1.778
1
7
0
INSERT
2
STK_TOP_380
8
0
10
2.2
20
0
0
TEXT
8
SYM_TERMINAL
10
0
20
-24.384
40
1.778
1
8
0
INSERT
2
STK_TOP_379
8
0
10
1.5
20
-1.4
0
TEXT
8
SYM_TERMINAL
10
0
20
-27.432
40
1.778
1
9
0
INSERT
2
STK_TOP_379
8
0
10
1
20
-1.4
0
TEXT
8
SYM_TERMINAL
10
0
20
-30.48
40
1.778
1
10
0
INSERT
2
STK_TOP_379
8
0
10
0.5
20
-1.4
0
TEXT
8
SYM_TERMINAL
10
0
20
-33.528
40
1.778
1
11
0
INSERT
2
STK_TOP_379
8
0
10
0
20
-1.4
0
TEXT
8
SYM_TERMINAL
10
0
20
-36.576
40
1.778
1
12
0
INSERT
2
STK_TOP_379
8
0
10
-0.5
20
-1.4
0
TEXT
8
SYM_TERMINAL
10
0
20
-39.624
40
1.778
1
13
0
INSERT
2
STK_TOP_379
8
0
10
-1
20
-1.4
0
TEXT
8
SYM_TERMINAL
10
0
20
-42.672
40
1.778
1
14
0
INSERT
2
STK_TOP_379
8
0
10
-1.5
20
-1.4
0
TEXT
8
SYM_TERMINAL
10
0
20
-45.72
40
1.778
1
15
0
INSERT
2
STK_TOP_380
8
0
10
-2.2
20
0
0
TEXT
8
SYM_TERMINAL
10
0
20
-48.768
40
1.778
1
16
0
ENDBLK
0
BLOCK
2
PKG_4
8
0
10
0
20
0
3
PKG_4
70
64
0
TEXT
8
PKG_INFO
10
0
20
0
40
1.778
1
*SYM:= 12
0
TEXT
8
PKG_INFO
10
0
20
-3.048
40
1.778
1
*PKG:= 0 BMI055 UND
0
TEXT
8
PKG_INFO
10
0
20
-6.096
40
1.778
1
*GATE:=0
0
TEXT
8
PKG_INFO
10
0
20
-9.144
40
1.778
1
*GATEPIN:= 0 9 1 INT2
0
TEXT
8
PKG_INFO
10
0
20
-12.192
40
1.778
1
*GATEPIN:= 0 9 2 NC
0
TEXT
8
PKG_INFO
10
0
20
-15.24
40
1.778
1
*GATEPIN:= 0 9 3 VDD
0
TEXT
8
PKG_INFO
10
0
20
-18.288
40
1.778
1
*GATEPIN:= 0 9 4 GNDA
0
TEXT
8
PKG_INFO
10
0
20
-21.336
40
1.778
1
*GATEPIN:= 0 9 5 CSB2
0
TEXT
8
PKG_INFO
10
0
20
-24.384
40
1.778
1
*GATEPIN:= 0 9 6 GNDIO
0
TEXT
8
PKG_INFO
10
0
20
-27.432
40
1.778
1
*GATEPIN:= 0 9 7 PS
0
TEXT
8
PKG_INFO
10
0
20
-30.48
40
1.778
1
*GATEPIN:= 0 9 8 SCX
0
TEXT
8
PKG_INFO
10
0
20
-33.528
40
1.778
1
*GATEPIN:= 0 9 9 SDX
0
TEXT
8
PKG_INFO
10
0
20
-36.576
40
1.778
1
*GATEPIN:= 0 9 10 SDO2
0
TEXT
8
PKG_INFO
10
0
20
-39.624
40
1.778
1
*GATEPIN:= 0 9 11 VDDIO
0
TEXT
8
PKG_INFO
10
0
20
-42.672
40
1.778
1
*GATEPIN:= 0 9 12 INT3
0
TEXT
8
PKG_INFO
10
0
20
-45.72
40
1.778
1
*GATEPIN:= 0 9 13 INT4
0
TEXT
8
PKG_INFO
10
0
20
-48.768
40
1.778
1
*GATEPIN:= 0 9 14 CSB1
0
TEXT
8
PKG_INFO
10
0
20
-51.816
40
1.778
1
*GATEPIN:= 0 9 15 SDO1
0
TEXT
8
PKG_INFO
10
0
20
-54.864
40
1.778
1
*GATEPIN:= 0 9 16 INT1
0
ENDBLK
0
BLOCK
2
SYM_TOP_20
8
0
10
0
20
0
3
SYM_TOP_20
70
64
0
TEXT
8
SYM_NAME
10
0
20
0
40
1.778
1
R0402
41
0.75
0
TEXT
8
SYM_PART_TYPE_01
10
1.636522
20
1.2385833333
40
0.9779
1
 
73
2
11
1.636522
21
1.2385833333
41
0.75
7
W0$1397R0
0
TEXT
8
SYM_PART_NAME_01
10
-1.062228
20
-0.279654
40
0.7112
1
 
41
0.75
7
W0$1016R0
0
INSERT
2
PART_BODY_TOP_19
8
0
10
0
20
0
0
INSERT
2
STK_TOP_54
8
0
10
-0.425
20
0
0
TEXT
8
SYM_TERMINAL
10
0
20
-3.048
40
1.778
1
1
0
INSERT
2
STK_TOP_54
8
0
10
0.425
20
0
0
TEXT
8
SYM_TERMINAL
10
0
20
-6.096
40
1.778
1
2
0
ENDBLK
0
BLOCK
2
PKG_6
8
0
10
0
20
0
3
PKG_6
70
64
0
TEXT
8
PKG_INFO
10
0
20
0
40
1.778
1
*SYM:= 19 20 21 22 23 24
0
TEXT
8
PKG_INFO
10
0
20
-3.048
40
1.778
1
*PKG:= 0 RES RES
0
TEXT
8
PKG_INFO
10
0
20
-6.096
40
1.778
1
*GATE:=1
0
TEXT
8
PKG_INFO
10
0
20
-9.144
40
1.778
1
*GATEPIN:= 1 9 1 <>
0
TEXT
8
PKG_INFO
10
0
20
-12.192
40
1.778
1
*GATEPIN:= 1 9 2 <>
0
ENDBLK
0
BLOCK
2
SYM_TOP_3
8
0
10
0
20
0
3
SYM_TOP_3
70
64
0
TEXT
8
SYM_NAME
10
0
20
0
40
1.778
1
C0603
41
0.75
0
TEXT
8
SYM_PART_TYPE_01
10
-3.175
20
4.4211893333
40
1.778
1
 
73
2
11
-3.175
21
4.4211893333
41
0.75
7
W0$254R0
0
TEXT
8
SYM_PART_NAME_01
10
-2.355
20
1.18
40
1.05
1
 
41
0.75
7
W0$15R0
0
INSERT
2
PART_BODY_TOP_1
8
0
10
0
20
0
0
INSERT
2
STK_TOP_69
8
0
10
-0.675
20
0
0
TEXT
8
SYM_TERMINAL
10
0
20
-3.048
40
1.778
1
1
0
INSERT
2
STK_TOP_69
8
0
10
0.675
20
0
0
TEXT
8
SYM_TERMINAL
10
0
20
-6.096
40
1.778
1
2
0
ENDBLK
0
BLOCK
2
SYM_TOP_13
8
0
10
0
20
0
3
SYM_TOP_13
70
64
0
TEXT
8
SYM_NAME
10
0
20
0
40
1.778
1
FB-0603
41
0.75
0
TEXT
8
SYM_PART_NAME_01
10
1.975
20
-0.5
40
1.05
1
 
41
0.75
7
W0$15R0
0
TEXT
8
SYM_PART_TYPE_01
10
1.975
20
-2
40
1.05
1
 
41
0.75
7
W0$15R0
0
INSERT
2
PART_BODY_TOP_12
8
0
10
0
20
0
0
INSERT
2
STK_TOP_69
8
0
10
-0.675
20
0
0
TEXT
8
SYM_TERMINAL
10
0
20
-3.048
40
1.778
1
1
0
INSERT
2
STK_TOP_69
8
0
10
0.675
20
0
0
TEXT
8
SYM_TERMINAL
10
0
20
-6.096
40
1.778
1
2
0
ENDBLK
0
BLOCK
2
PKG_5
8
0
10
0
20
0
3
PKG_5
70
64
0
TEXT
8
PKG_INFO
10
0
20
0
40
1.778
1
*SYM:= 13 14 15 16 17 18
0
TEXT
8
PKG_INFO
10
0
20
-3.048
40
1.778
1
*PKG:= 0 FB IND
0
TEXT
8
PKG_INFO
10
0
20
-6.096
40
1.778
1
*GATE:=0
0
TEXT
8
PKG_INFO
10
0
20
-9.144
40
1.778
1
*GATEPIN:= 0 9 1 <>
0
TEXT
8
PKG_INFO
10
0
20
-12.192
40
1.778
1
*GATEPIN:= 0 9 2 <>
0
ENDBLK
0
BLOCK
2
SYM_TOP_25
8
0
10
0
20
0
3
SYM_TOP_25
70
64
0
TEXT
8
SYM_NAME
10
0
20
0
40
1.778
1
AYF311715
41
0.75
0
TEXT
8
SYM_PART_NAME_01
10
0
20
0
40
0.889
1
 
41
0.75
7
W0$127R0
0
TEXT
8
SYM_PART_TYPE_01
10
0
20
0
40
0.889
1
 
73
2
11
0
21
0
41
0.75
7
W0$127R0
0
INSERT
2
PART_BODY_TOP_26
8
0
10
0
20
0
0
INSERT
2
STK_TOP_373
8
0
10
-1.8
20
2.1
0
TEXT
8
SYM_TERMINAL
10
0
20
-3.048
40
1.778
1
1
0
INSERT
2
STK_TOP_374
8
0
10
1.3
20
1.8
0
TEXT
8
SYM_TERMINAL
10
0
20
-6.096
40
1.778
1
2
0
INSERT
2
STK_TOP_373
8
0
10
-1.8
20
1.5
0
TEXT
8
SYM_TERMINAL
10
0
20
-9.144
40
1.778
1
3
0
INSERT
2
STK_TOP_374
8
0
10
1.3
20
1.2
0
TEXT
8
SYM_TERMINAL
10
0
20
-12.192
40
1.778
1
4
0
INSERT
2
STK_TOP_373
8
0
10
-1.8
20
0.9
0
TEXT
8
SYM_TERMINAL
10
0
20
-15.24
40
1.778
1
5
0
INSERT
2
STK_TOP_374
8
0
10
1.3
20
0.6
0
TEXT
8
SYM_TERMINAL
10
0
20
-18.288
40
1.778
1
6
0
INSERT
2
STK_TOP_373
8
0
10
-1.8
20
0.3
0
TEXT
8
SYM_TERMINAL
10
0
20
-21.336
40
1.778
1
7
0
INSERT
2
STK_TOP_374
8
0
10
1.3
20
0
0
TEXT
8
SYM_TERMINAL
10
0
20
-24.384
40
1.778
1
8
0
INSERT
2
STK_TOP_373
8
0
10
-1.8
20
-0.3
0
TEXT
8
SYM_TERMINAL
10
0
20
-27.432
40
1.778
1
9
0
INSERT
2
STK_TOP_374
8
0
10
1.3
20
-0.6
0
TEXT
8
SYM_TERMINAL
10
0
20
-30.48
40
1.778
1
10
0
INSERT
2
STK_TOP_373
8
0
10
-1.8
20
-0.9
0
TEXT
8
SYM_TERMINAL
10
0
20
-33.528
40
1.778
1
11
0
INSERT
2
STK_TOP_374
8
0
10
1.3
20
-1.2
0
TEXT
8
SYM_TERMINAL
10
0
20
-36.576
40
1.778
1
12
0
INSERT
2
STK_TOP_373
8
0
10
-1.8
20
-1.5
0
TEXT
8
SYM_TERMINAL
10
0
20
-39.624
40
1.778
1
13
0
INSERT
2
STK_TOP_374
8
0
10
1.3
20
-1.8
0
TEXT
8
SYM_TERMINAL
10
0
20
-42.672
40
1.778
1
14
0
INSERT
2
STK_TOP_373
8
0
10
-1.8
20
-2.1
0
TEXT
8
SYM_TERMINAL
10
0
20
-45.72
40
1.778
1
15
0
INSERT
2
STK_TOP_374
8
0
10
1.3
20
-2.4
0
TEXT
8
SYM_TERMINAL
10
0
20
-48.768
40
1.778
1
16
0
INSERT
2
STK_TOP_373
8
0
10
-1.8
20
-2.7
0
TEXT
8
SYM_TERMINAL
10
0
20
-51.816
40
1.778
1
17
0
ENDBLK
0
BLOCK
2
PKG_7
8
0
10
0
20
0
3
PKG_7
70
64
0
TEXT
8
PKG_INFO
10
0
20
0
40
1.778
1
*SYM:= 25
0
TEXT
8
PKG_INFO
10
0
20
-3.048
40
1.778
1
*PKG:= 0 FPC-03-17P UND
0
TEXT
8
PKG_INFO
10
0
20
-6.096
40
1.778
1
*GATE:=0
0
TEXT
8
PKG_INFO
10
0
20
-9.144
40
1.778
1
*GATEPIN:= 0 9 1 1
0
TEXT
8
PKG_INFO
10
0
20
-12.192
40
1.778
1
*GATEPIN:= 0 9 2 2
0
TEXT
8
PKG_INFO
10
0
20
-15.24
40
1.778
1
*GATEPIN:= 0 9 3 3
0
TEXT
8
PKG_INFO
10
0
20
-18.288
40
1.778
1
*GATEPIN:= 0 9 4 4
0
TEXT
8
PKG_INFO
10
0
20
-21.336
40
1.778
1
*GATEPIN:= 0 9 5 5
0
TEXT
8
PKG_INFO
10
0
20
-24.384
40
1.778
1
*GATEPIN:= 0 9 6 6
0
TEXT
8
PKG_INFO
10
0
20
-27.432
40
1.778
1
*GATEPIN:= 0 9 7 7
0
TEXT
8
PKG_INFO
10
0
20
-30.48
40
1.778
1
*GATEPIN:= 0 9 8 8
0
TEXT
8
PKG_INFO
10
0
20
-33.528
40
1.778
1
*GATEPIN:= 0 9 9 9
0
TEXT
8
PKG_INFO
10
0
20
-36.576
40
1.778
1
*GATEPIN:= 0 9 10 10
0
TEXT
8
PKG_INFO
10
0
20
-39.624
40
1.778
1
*GATEPIN:= 0 9 11 11
0
TEXT
8
PKG_INFO
10
0
20
-42.672
40
1.778
1
*GATEPIN:= 0 9 12 12
0
TEXT
8
PKG_INFO
10
0
20
-45.72
40
1.778
1
*GATEPIN:= 0 9 13 13
0
TEXT
8
PKG_INFO
10
0
20
-48.768
40
1.778
1
*GATEPIN:= 0 9 14 14
0
TEXT
8
PKG_INFO
10
0
20
-51.816
40
1.778
1
*GATEPIN:= 0 9 15 15
0
TEXT
8
PKG_INFO
10
0
20
-54.864
40
1.778
1
*GATEPIN:= 0 9 16 16
0
TEXT
8
PKG_INFO
10
0
20
-57.912
40
1.778
1
*GATEPIN:= 0 9 17 17
0
ENDBLK
0
BLOCK
2
PART_BODY_TOP_6
8
0
10
0
20
0
3
PART_BODY_TOP_6
70
64
0
POLYLINE
8
PART_TOP_COPPER_121
66
1
40
0.762
41
0.762
70
1
0
VERTEX
8
PART_TOP_COPPER_121
10
0.219
20
0
42
1
0
VERTEX
8
PART_TOP_COPPER_121
10
-0.219
20
0
42
1
0
SEQEND
0
POLYLINE
8
KEEPOUT_01
6
KEEPOUT_00011110$0
66
1
70
1
0
VERTEX
8
KEEPOUT_01
10
0.7
20
0
42
1
0
VERTEX
8
KEEPOUT_01
10
-0.7
20
0
42
1
0
SEQEND
0
ENDBLK
0
BLOCK
2
STK_TOP_356
8
0
10
0
20
0
3
STK_TOP_356
70
64
0
INSERT
2
DRIL_HOLE_0
8
DRIL_PLTE_THRU_01
10
0
20
0
0
INSERT
2
DRIL_HOLE_0
8
DRIL_PLTE_THRU_02
10
0
20
0
0
INSERT
2
DRIL_HOLE_0
8
DRIL_PLTE_THRU_03
10
0
20
0
0
INSERT
2
DRIL_HOLE_0
8
DRIL_PLTE_THRU_04
10
0
20
0
0
INSERT
2
PAD_0
8
PADS_INNER
10
0
20
0
0
INSERT
2
PAD_0
8
PADS_BOT
10
0
20
0
0
INSERT
2
PAD_0
8
PADS_XR_125
10
0
20
0
0
INSERT
2
PAD_1
8
PADS_TOP
10
0
20
0
0
ENDBLK
0
BLOCK
2
PART_BODY_TOP_7
8
0
10
0
20
0
3
PART_BODY_TOP_7
70
64
0
POLYLINE
8
PART_TOP_2DLINE_126
66
1
40
0.2032
41
0.2032
0
VERTEX
8
PART_TOP_2DLINE_126
10
1.6500093333
20
-1.999996
0
VERTEX
8
PART_TOP_2DLINE_126
10
1.999996
20
-1.999996
0
VERTEX
8
PART_TOP_2DLINE_126
10
1.999996
20
-1.649984
0
SEQEND
0
INSERT
2
SMOOTH_0$2032
8
PART_TOP_2DLINE_126
10
1.6500093333
20
-1.999996
0
INSERT
2
SMOOTH_0$2032
8
PART_TOP_2DLINE_126
10
1.999996
20
-1.999996
0
INSERT
2
SMOOTH_0$2032
8
PART_TOP_2DLINE_126
10
1.999996
20
-1.649984
0
POLYLINE
8
PART_TOP_2DLINE_126
66
1
40
0.2032
41
0.2032
0
VERTEX
8
PART_TOP_2DLINE_126
10
-1.6500093333
20
-1.999996
0
VERTEX
8
PART_TOP_2DLINE_126
10
-1.999996
20
-1.999996
0
VERTEX
8
PART_TOP_2DLINE_126
10
-1.999996
20
-1.649984
0
SEQEND
0
INSERT
2
SMOOTH_0$2032
8
PART_TOP_2DLINE_126
10
-1.6500093333
20
-1.999996
0
INSERT
2
SMOOTH_0$2032
8
PART_TOP_2DLINE_126
10
-1.999996
20
-1.999996
0
INSERT
2
SMOOTH_0$2032
8
PART_TOP_2DLINE_126
10
-1.999996
20
-1.649984
0
POLYLINE
8
PART_TOP_2DLINE_126
66
1
40
0.2032
41
0.2032
0
VERTEX
8
PART_TOP_2DLINE_126
10
1.999996
20
1.649984
0
VERTEX
8
PART_TOP_2DLINE_126
10
1.999996
20
1.999996
0
VERTEX
8
PART_TOP_2DLINE_126
10
1.6500093333
20
1.999996
0
SEQEND
0
INSERT
2
SMOOTH_0$2032
8
PART_TOP_2DLINE_126
10
1.999996
20
1.649984
0
INSERT
2
SMOOTH_0$2032
8
PART_TOP_2DLINE_126
10
1.999996
20
1.999996
0
INSERT
2
SMOOTH_0$2032
8
PART_TOP_2DLINE_126
10
1.6500093333
20
1.999996
0
POLYLINE
8
PART_TOP_2DLINE_126
66
1
40
0.2032
41
0.2032
0
VERTEX
8
PART_TOP_2DLINE_126
10
-1.6500093333
20
1.999996
0
VERTEX
8
PART_TOP_2DLINE_126
10
-1.999996
20
1.649984
0
SEQEND
0
INSERT
2
SMOOTH_0$2032
8
PART_TOP_2DLINE_126
10
-1.6500093333
20
1.999996
0
INSERT
2
SMOOTH_0$2032
8
PART_TOP_2DLINE_126
10
-1.999996
20
1.649984
0
ENDBLK
0
BLOCK
2
STK_TOP_66
8
0
10
0
20
0
3
STK_TOP_66
70
64
0
INSERT
2
DRIL_HOLE_0
8
DRIL_NPLTE_THRU_01
10
0
20
0
0
INSERT
2
DRIL_HOLE_0
8
DRIL_NPLTE_THRU_02
10
0
20
0
0
INSERT
2
DRIL_HOLE_0
8
DRIL_NPLTE_THRU_03
10
0
20
0
0
INSERT
2
DRIL_HOLE_0
8
DRIL_NPLTE_THRU_04
10
0
20
0
0
INSERT
2
PAD_0
8
PADS_INNER
10
0
20
0
0
INSERT
2
PAD_0
8
PADS_BOT
10
0
20
0
0
INSERT
2
PAD_2
8
PADS_TOP
10
0
20
0
0
ENDBLK
0
BLOCK
2
STK_TOP_68
8
0
10
0
20
0
3
STK_TOP_68
70
64
0
INSERT
2
DRIL_HOLE_0
8
DRIL_NPLTE_THRU_01
10
0
20
0
0
INSERT
2
DRIL_HOLE_0
8
DRIL_NPLTE_THRU_02
10
0
20
0
0
INSERT
2
DRIL_HOLE_0
8
DRIL_NPLTE_THRU_03
10
0
20
0
0
INSERT
2
DRIL_HOLE_0
8
DRIL_NPLTE_THRU_04
10
0
20
0
0
INSERT
2
PAD_0
8
PADS_INNER
10
0
20
0
0
INSERT
2
PAD_0
8
PADS_BOT
10
0
20
0
0
INSERT
2
PAD_2
8
PADS_TOP
10
0
20
0
50
90
0
ENDBLK
0
BLOCK
2
STK_TOP_195
8
0
10
0
20
0
3
STK_TOP_195
70
64
0
INSERT
2
DRIL_HOLE_0
8
DRIL_NPLTE_THRU_01
10
0
20
0
0
INSERT
2
DRIL_HOLE_0
8
DRIL_NPLTE_THRU_02
10
0
20
0
0
INSERT
2
DRIL_HOLE_0
8
DRIL_NPLTE_THRU_03
10
0
20
0
0
INSERT
2
DRIL_HOLE_0
8
DRIL_NPLTE_THRU_04
10
0
20
0
0
INSERT
2
PAD_0
8
PADS_INNER
10
0
20
0
0
INSERT
2
PAD_0
8
PADS_BOT
10
0
20
0
0
INSERT
2
PAD_3
8
PADS_TOP
10
0
20
0
0
ENDBLK
0
BLOCK
2
PART_BODY_TOP_3
8
0
10
0
20
0
3
PART_BODY_TOP_3
70
64
0
POLYLINE
8
PART_TOP_2DLINE_01
66
1
40
0.0508
41
0.0508
0
VERTEX
8
PART_TOP_2DLINE_01
10
-0.18212
20
0.4
0
VERTEX
8
PART_TOP_2DLINE_01
10
-0.85
20
0.4
0
VERTEX
8
PART_TOP_2DLINE_01
10
-0.85
20
-0.4
0
VERTEX
8
PART_TOP_2DLINE_01
10
-0.19558
20
-0.4
0
SEQEND
0
INSERT
2
SMOOTH_0$0508
8
PART_TOP_2DLINE_01
10
-0.18212
20
0.4
0
INSERT
2
SMOOTH_0$0508
8
PART_TOP_2DLINE_01
10
-0.85
20
0.4
0
INSERT
2
SMOOTH_0$0508
8
PART_TOP_2DLINE_01
10
-0.85
20
-0.4
0
INSERT
2
SMOOTH_0$0508
8
PART_TOP_2DLINE_01
10
-0.19558
20
-0.4
0
POLYLINE
8
PART_TOP_2DLINE_01
66
1
40
0.0508
41
0.0508
0
VERTEX
8
PART_TOP_2DLINE_01
10
0.2032
20
0.4
0
VERTEX
8
PART_TOP_2DLINE_01
10
0.85
20
0.4
0
VERTEX
8
PART_TOP_2DLINE_01
10
0.85
20
-0.4
0
VERTEX
8
PART_TOP_2DLINE_01
10
0.19888
20
-0.4
0
SEQEND
0
INSERT
2
SMOOTH_0$0508
8
PART_TOP_2DLINE_01
10
0.2032
20
0.4
0
INSERT
2
SMOOTH_0$0508
8
PART_TOP_2DLINE_01
10
0.85
20
0.4
0
INSERT
2
SMOOTH_0$0508
8
PART_TOP_2DLINE_01
10
0.85
20
-0.4
0
INSERT
2
SMOOTH_0$0508
8
PART_TOP_2DLINE_01
10
0.19888
20
-0.4
0
POLYLINE
8
PART_TOP_2DLINE_01
66
1
40
0.0508
41
0.0508
0
VERTEX
8
PART_TOP_2DLINE_01
10
-0.0508
20
0.145034
0
VERTEX
8
PART_TOP_2DLINE_01
10
-0.0508
20
-0.138684
0
SEQEND
0
INSERT
2
SMOOTH_0$0508
8
PART_TOP_2DLINE_01
10
-0.0508
20
0.145034
0
INSERT
2
SMOOTH_0$0508
8
PART_TOP_2DLINE_01
10
-0.0508
20
-0.138684
0
POLYLINE
8
PART_TOP_2DLINE_01
66
1
40
0.0508
41
0.0508
0
VERTEX
8
PART_TOP_2DLINE_01
10
0.0508
20
0.149098
0
VERTEX
8
PART_TOP_2DLINE_01
10
0.0508
20
-0.13462
0
SEQEND
0
INSERT
2
SMOOTH_0$0508
8
PART_TOP_2DLINE_01
10
0.0508
20
0.149098
0
INSERT
2
SMOOTH_0$0508
8
PART_TOP_2DLINE_01
10
0.0508
20
-0.13462
0
POLYLINE
8
PART_TOP_2DLINE_01
66
1
40
0.0508
41
0.0508
0
VERTEX
8
PART_TOP_2DLINE_01
10
0.075438
20
0
0
VERTEX
8
PART_TOP_2DLINE_01
10
0.162306
20
0
0
SEQEND
0
INSERT
2
SMOOTH_0$0508
8
PART_TOP_2DLINE_01
10
0.075438
20
0
0
INSERT
2
SMOOTH_0$0508
8
PART_TOP_2DLINE_01
10
0.162306
20
0
0
POLYLINE
8
PART_TOP_2DLINE_01
66
1
40
0.0508
41
0.0508
0
VERTEX
8
PART_TOP_2DLINE_01
10
-0.070358
20
0
0
VERTEX
8
PART_TOP_2DLINE_01
10
-0.178308
20
0
0
SEQEND
0
INSERT
2
SMOOTH_0$0508
8
PART_TOP_2DLINE_01
10
-0.070358
20
0
0
INSERT
2
SMOOTH_0$0508
8
PART_TOP_2DLINE_01
10
-0.178308
20
0
0
ENDBLK
0
BLOCK
2
STK_TOP_54
8
0
10
0
20
0
3
STK_TOP_54
70
64
0
INSERT
2
DRIL_HOLE_0
8
DRIL_PLTE_THRU_01
10
0
20
0
0
INSERT
2
DRIL_HOLE_0
8
DRIL_PLTE_THRU_02
10
0
20
0
0
INSERT
2
DRIL_HOLE_0
8
DRIL_PLTE_THRU_03
10
0
20
0
0
INSERT
2
DRIL_HOLE_0
8
DRIL_PLTE_THRU_04
10
0
20
0
0
INSERT
2
PAD_0
8
PADS_INNER
10
0
20
0
0
INSERT
2
PAD_0
8
PADS_BOT
10
0
20
0
0
INSERT
2
PAD_4
8
PADS_TOP
10
0
20
0
0
ENDBLK
0
BLOCK
2
SYM_TOP_4
8
0
10
0
20
0
3
SYM_TOP_4
70
64
0
TEXT
8
SYM_NAME
10
0
20
0
40
1.778
1
C0805
41
0.75
0
TEXT
8
SYM_PART_TYPE_01
10
-0.0635
20
-2.286
40
1.6002
1
 
41
0.75
7
W0$127R0
0
TEXT
8
SYM_PART_NAME_01
10
1.425
20
-0.45
40
1.05
1
 
41
0.75
7
W0$15R0
0
INSERT
2
PART_BODY_TOP_2
8
0
10
0
20
0
0
INSERT
2
STK_TOP_70
8
0
10
0
20
1.13
0
TEXT
8
SYM_TERMINAL
10
0
20
-3.048
40
1.778
1
1
0
INSERT
2
STK_TOP_70
8
0
10
0
20
-1.1684
0
TEXT
8
SYM_TERMINAL
10
0
20
-6.096
40
1.778
1
2
0
ENDBLK
0
BLOCK
2
SYM_TOP_6
8
0
10
0
20
0
3
SYM_TOP_6
70
64
0
TEXT
8
SYM_NAME
10
0
20
0
40
1.778
1
C1210
41
0.75
0
TEXT
8
SYM_PART_NAME_01
10
-1.778
20
4.826
40
1.778
1
 
41
0.75
7
W0$254R0
0
TEXT
8
SYM_PART_TYPE_01
10
-1.778
20
4.826
40
1.778
1
 
73
2
11
-1.778
21
4.826
41
0.75
7
W0$254R0
0
INSERT
2
PART_BODY_TOP_4
8
0
10
0
20
0
0
INSERT
2
STK_TOP_104
8
0
10
-1.7145
20
0
0
TEXT
8
SYM_TERMINAL
10
0
20
-3.048
40
1.778
1
1
0
INSERT
2
STK_TOP_104
8
0
10
1.7145
20
0
0
TEXT
8
SYM_TERMINAL
10
0
20
-6.096
40
1.778
1
2
0
ENDBLK
0
BLOCK
2
SYM_TOP_7
8
0
10
0
20
0
3
SYM_TOP_7
70
64
0
TEXT
8
SYM_NAME
10
0
20
0
40
1.778
1
C1206
41
0.75
0
TEXT
8
SYM_PART_TYPE_01
10
-1.905
20
3.8655626667
40
1.778
1
 
73
2
11
-1.905
21
3.8655626667
41
0.75
7
W0$254R0
0
TEXT
8
SYM_PART_NAME_01
10
-1.905
20
3.81
40
1.778
1
 
41
0.75
7
W0$254R0
0
INSERT
2
PART_BODY_TOP_5
8
0
10
0
20
0
0
INSERT
2
STK_TOP_87
8
0
10
-1.7145
20
0
0
TEXT
8
SYM_TERMINAL
10
0
20
-3.048
40
1.778
1
1
0
INSERT
2
STK_TOP_87
8
0
10
1.7145
20
0
0
TEXT
8
SYM_TERMINAL
10
0
20
-6.096
40
1.778
1
2
0
ENDBLK
0
BLOCK
2
PART_BODY_TOP_9
8
0
10
0
20
0
3
PART_BODY_TOP_9
70
64
0
POLYLINE
8
PART_TOP_2DLINE_126
66
1
40
0.2499993333
41
0.2499993333
39
1.75006
70
1
0
VERTEX
8
PART_TOP_2DLINE_126
10
-2.2749993333
20
2.7550006667
42
1
0
VERTEX
8
PART_TOP_2DLINE_126
10
-2.5250006667
20
2.7550006667
42
1
0
SEQEND
0
POLYLINE
8
PART_TOP_2DLINE_120
66
1
40
0.0999993333
41
0.0999993333
39
1.75006
0
VERTEX
8
PART_TOP_2DLINE_120
10
-0.5000013333
20
0
0
VERTEX
8
PART_TOP_2DLINE_120
10
0.4999986667
20
0
0
SEQEND
0
INSERT
2
SMOOTH_0$0999993333
8
PART_TOP_2DLINE_120
10
-0.5000013333
20
0
0
INSERT
2
SMOOTH_0$0999993333
8
PART_TOP_2DLINE_120
10
0.4999986667
20
0
0
POLYLINE
8
PART_TOP_2DLINE_120
66
1
40
0.0999993333
41
0.0999993333
39
1.75006
0
VERTEX
8
PART_TOP_2DLINE_120
10
0
20
0.4999986667
0
VERTEX
8
PART_TOP_2DLINE_120
10
0
20
-0.4999986667
0
SEQEND
0
INSERT
2
SMOOTH_0$0999993333
8
PART_TOP_2DLINE_120
10
0
20
0.4999986667
0
INSERT
2
SMOOTH_0$0999993333
8
PART_TOP_2DLINE_120
10
0
20
-0.4999986667
0
POLYLINE
8
PART_TOP_2DLINE_126
66
1
40
0.1999993333
41
0.1999993333
39
1.75006
0
VERTEX
8
PART_TOP_2DLINE_126
10
-1.9558
20
2.4892
0
VERTEX
8
PART_TOP_2DLINE_126
10
1.9558
20
2.4892
0
SEQEND
0
INSERT
2
SMOOTH_0$1999993333
8
PART_TOP_2DLINE_126
10
-1.9558
20
2.4892
0
INSERT
2
SMOOTH_0$1999993333
8
PART_TOP_2DLINE_126
10
1.9558
20
2.4892
0
POLYLINE
8
PART_TOP_2DLINE_126
66
1
40
0.1999993333
41
0.1999993333
39
1.75006
0
VERTEX
8
PART_TOP_2DLINE_126
10
-1.9558
20
-2.4384
0
VERTEX
8
PART_TOP_2DLINE_126
10
1.9558
20
-2.4384
0
SEQEND
0
INSERT
2
SMOOTH_0$1999993333
8
PART_TOP_2DLINE_126
10
-1.9558
20
-2.4384
0
INSERT
2
SMOOTH_0$1999993333
8
PART_TOP_2DLINE_126
10
1.9558
20
-2.4384
0
ENDBLK
0
BLOCK
2
STK_TOP_396
8
0
10
0
20
0
3
STK_TOP_396
70
64
0
INSERT
2
DRIL_HOLE_0
8
DRIL_PLTE_THRU_01
10
0
20
0
0
INSERT
2
DRIL_HOLE_0
8
DRIL_PLTE_THRU_02
10
0
20
0
0
INSERT
2
DRIL_HOLE_0
8
DRIL_PLTE_THRU_03
10
0
20
0
0
INSERT
2
DRIL_HOLE_0
8
DRIL_PLTE_THRU_04
10
0
20
0
0
INSERT
2
PAD_0
8
PADS_INNER
10
0
20
0
0
INSERT
2
PAD_0
8
PADS_BOT
10
0
20
0
0
INSERT
2
PAD_5
8
PADS_TOP
10
0
20
0
0
ENDBLK
0
BLOCK
2
SYM_TOP_11
8
0
10
0
20
0
3
SYM_TOP_11
70
64
0
TEXT
8
SYM_NAME
10
0
20
0
40
1.778
1
SOIC8_FLASH
41
0.75
0
TEXT
8
SYM_PART_NAME_126
10
-3.5000006667
20
4.4782
40
0.889
1
 
41
0.75
7
W0$127R0
0
TEXT
8
SYM_ATTRIBUTE_126
10
-3.5000006667
20
3.2082
40
0.889
1
Comment
41
0.75
7
W0$127R0
0
INSERT
2
PART_BODY_TOP_10
8
0
10
0
20
0
0
INSERT
2
STK_TOP_377
8
0
10
-3.2
20
1.905
0
TEXT
8
SYM_TERMINAL
10
0
20
-3.048
40
1.778
1
1
0
INSERT
2
STK_TOP_377
8
0
10
-3.2
20
0.635
0
TEXT
8
SYM_TERMINAL
10
0
20
-6.096
40
1.778
1
2
0
INSERT
2
STK_TOP_377
8
0
10
-3.2
20
-0.635
0
TEXT
8
SYM_TERMINAL
10
0
20
-9.144
40
1.778
1
3
0
INSERT
2
STK_TOP_377
8
0
10
-3.2
20
-1.905
0
TEXT
8
SYM_TERMINAL
10
0
20
-12.192
40
1.778
1
4
0
INSERT
2
STK_TOP_377
8
0
10
3.2
20
-1.905
0
TEXT
8
SYM_TERMINAL
10
0
20
-15.24
40
1.778
1
5
0
INSERT
2
STK_TOP_377
8
0
10
3.2
20
-0.635
0
TEXT
8
SYM_TERMINAL
10
0
20
-18.288
40
1.778
1
6
0
INSERT
2
STK_TOP_377
8
0
10
3.2
20
0.635
0
TEXT
8
SYM_TERMINAL
10
0
20
-21.336
40
1.778
1
7
0
INSERT
2
STK_TOP_377
8
0
10
3.2
20
1.905
0
TEXT
8
SYM_TERMINAL
10
0
20
-24.384
40
1.778
1
8
0
ENDBLK
0
BLOCK
2
PART_BODY_TOP_11
8
0
10
0
20
0
3
PART_BODY_TOP_11
70
64
0
POLYLINE
8
PART_TOP_2DLINE_01
66
1
40
0.127
41
0.127
0
VERTEX
8
PART_TOP_2DLINE_01
10
-1.8
20
1.5
0
VERTEX
8
PART_TOP_2DLINE_01
10
-1.85
20
1.5
0
VERTEX
8
PART_TOP_2DLINE_01
10
-2.25
20
1.1
0
VERTEX
8
PART_TOP_2DLINE_01
10
-2.25
20
0.3
0
SEQEND
0
INSERT
2
SMOOTH_0$127
8
PART_TOP_2DLINE_01
10
-1.8
20
1.5
0
INSERT
2
SMOOTH_0$127
8
PART_TOP_2DLINE_01
10
-1.85
20
1.5
0
INSERT
2
SMOOTH_0$127
8
PART_TOP_2DLINE_01
10
-2.25
20
1.1
0
INSERT
2
SMOOTH_0$127
8
PART_TOP_2DLINE_01
10
-2.25
20
0.3
0
POLYLINE
8
PART_TOP_2DLINE_01
66
1
40
0.127
41
0.127
0
VERTEX
8
PART_TOP_2DLINE_01
10
-1.8
20
-1.5
0
VERTEX
8
PART_TOP_2DLINE_01
10
-2.25
20
-1.5
0
VERTEX
8
PART_TOP_2DLINE_01
10
-2.25
20
-0.3
0
SEQEND
0
INSERT
2
SMOOTH_0$127
8
PART_TOP_2DLINE_01
10
-1.8
20
-1.5
0
INSERT
2
SMOOTH_0$127
8
PART_TOP_2DLINE_01
10
-2.25
20
-1.5
0
INSERT
2
SMOOTH_0$127
8
PART_TOP_2DLINE_01
10
-2.25
20
-0.3
0
POLYLINE
8
PART_TOP_2DLINE_01
66
1
40
0.127
41
0.127
0
VERTEX
8
PART_TOP_2DLINE_01
10
1.8
20
1.5
0
VERTEX
8
PART_TOP_2DLINE_01
10
2.25
20
1.5
0
VERTEX
8
PART_TOP_2DLINE_01
10
2.25
20
0.3
0
SEQEND
0
INSERT
2
SMOOTH_0$127
8
PART_TOP_2DLINE_01
10
1.8
20
1.5
0
INSERT
2
SMOOTH_0$127
8
PART_TOP_2DLINE_01
10
2.25
20
1.5
0
INSERT
2
SMOOTH_0$127
8
PART_TOP_2DLINE_01
10
2.25
20
0.3
0
POLYLINE
8
PART_TOP_2DLINE_01
66
1
40
0.127
41
0.127
0
VERTEX
8
PART_TOP_2DLINE_01
10
1.8
20
-1.5
0
VERTEX
8
PART_TOP_2DLINE_01
10
2.25
20
-1.5
0
VERTEX
8
PART_TOP_2DLINE_01
10
2.25
20
-0.3
0
SEQEND
0
INSERT
2
SMOOTH_0$127
8
PART_TOP_2DLINE_01
10
1.8
20
-1.5
0
INSERT
2
SMOOTH_0$127
8
PART_TOP_2DLINE_01
10
2.25
20
-1.5
0
INSERT
2
SMOOTH_0$127
8
PART_TOP_2DLINE_01
10
2.25
20
-0.3
0
ENDBLK
0
BLOCK
2
STK_TOP_379
8
0
10
0
20
0
3
STK_TOP_379
70
64
0
INSERT
2
DRIL_HOLE_0
8
DRIL_NPLTE_THRU_01
10
0
20
0
0
INSERT
2
DRIL_HOLE_0
8
DRIL_NPLTE_THRU_02
10
0
20
0
0
INSERT
2
DRIL_HOLE_0
8
DRIL_NPLTE_THRU_03
10
0
20
0
0
INSERT
2
DRIL_HOLE_0
8
DRIL_NPLTE_THRU_04
10
0
20
0
0
INSERT
2
PAD_0
8
PADS_INNER
10
0
20
0
0
INSERT
2
PAD_0
8
PADS_BOT
10
0
20
0
0
INSERT
2
PAD_6
8
PADS_TOP
10
0
20
0
50
90
0
ENDBLK
0
BLOCK
2
STK_TOP_380
8
0
10
0
20
0
3
STK_TOP_380
70
64
0
INSERT
2
DRIL_HOLE_0
8
DRIL_NPLTE_THRU_01
10
0
20
0
0
INSERT
2
DRIL_HOLE_0
8
DRIL_NPLTE_THRU_02
10
0
20
0
0
INSERT
2
DRIL_HOLE_0
8
DRIL_NPLTE_THRU_03
10
0
20
0
0
INSERT
2
DRIL_HOLE_0
8
DRIL_NPLTE_THRU_04
10
0
20
0
0
INSERT
2
PAD_0
8
PADS_INNER
10
0
20
0
0
INSERT
2
PAD_0
8
PADS_BOT
10
0
20
0
0
INSERT
2
PAD_6
8
PADS_TOP
10
0
20
0
0
ENDBLK
0
BLOCK
2
PART_BODY_TOP_19
8
0
10
0
20
0
3
PART_BODY_TOP_19
70
64
0
POLYLINE
8
PART_TOP_2DLINE_01
66
1
40
0.1016
41
0.1016
70
1
0
VERTEX
8
PART_TOP_2DLINE_01
10
-0.85
20
0.4
0
VERTEX
8
PART_TOP_2DLINE_01
10
0.85
20
0.4
0
VERTEX
8
PART_TOP_2DLINE_01
10
0.85
20
-0.4
0
VERTEX
8
PART_TOP_2DLINE_01
10
-0.85
20
-0.4
0
SEQEND
0
INSERT
2
SMOOTH_0$1016
8
PART_TOP_2DLINE_01
10
-0.85
20
0.4
0
INSERT
2
SMOOTH_0$1016
8
PART_TOP_2DLINE_01
10
0.85
20
0.4
0
INSERT
2
SMOOTH_0$1016
8
PART_TOP_2DLINE_01
10
0.85
20
-0.4
0
INSERT
2
SMOOTH_0$1016
8
PART_TOP_2DLINE_01
10
-0.85
20
-0.4
0
ENDBLK
0
BLOCK
2
SYM_TOP_19
8
0
10
0
20
0
3
SYM_TOP_19
70
64
0
TEXT
8
SYM_NAME
10
0
20
0
40
1.778
1
R0603
41
0.75
0
TEXT
8
SYM_PART_TYPE_01
10
-3.175
20
4.4211893333
40
1.778
1
 
73
2
11
-3.175
21
4.4211893333
41
0.75
7
W0$254R0
0
TEXT
8
SYM_PART_NAME_01
10
-2.355
20
1.18
40
1.05
1
 
41
0.75
7
W0$15R0
0
INSERT
2
PART_BODY_TOP_18
8
0
10
0
20
0
0
INSERT
2
STK_TOP_69
8
0
10
-0.675
20
0
0
TEXT
8
SYM_TERMINAL
10
0
20
-3.048
40
1.778
1
1
0
INSERT
2
STK_TOP_69
8
0
10
0.675
20
0
0
TEXT
8
SYM_TERMINAL
10
0
20
-6.096
40
1.778
1
2
0
ENDBLK
0
BLOCK
2
SYM_TOP_21
8
0
10
0
20
0
3
SYM_TOP_21
70
64
0
TEXT
8
SYM_NAME
10
0
20
0
40
1.778
1
R1206-1
41
0.75
0
TEXT
8
SYM_PART_TYPE_01
10
-2.286
20
4.2862506667
40
1.778
1
 
73
2
11
-2.286
21
4.2862506667
41
0.75
7
W0$254R0
0
TEXT
8
SYM_PART_NAME_01
10
-2.286
20
4.064
40
1.778
1
 
41
0.75
7
W0$254R0
0
INSERT
2
PART_BODY_TOP_20
8
0
10
0
20
0
0
INSERT
2
STK_TOP_385
8
0
10
-1.7145
20
0
0
TEXT
8
SYM_TERMINAL
10
0
20
-3.048
40
1.778
1
1
0
INSERT
2
STK_TOP_385
8
0
10
1.7145
20
0
0
TEXT
8
SYM_TERMINAL
10
0
20
-6.096
40
1.778
1
2
0
ENDBLK
0
BLOCK
2
SYM_TOP_22
8
0
10
0
20
0
3
SYM_TOP_22
70
64
0
TEXT
8
SYM_NAME
10
0
20
0
40
1.778
1
R0805
41
0.75
0
TEXT
8
SYM_PART_TYPE_01
10
-0.0635
20
-2.286
40
1.6002
1
 
41
0.75
7
W0$127R0
0
TEXT
8
SYM_PART_NAME_01
10
1.425
20
-0.45
40
1.05
1
 
41
0.75
7
W0$15R0
0
INSERT
2
PART_BODY_TOP_21
8
0
10
0
20
0
0
INSERT
2
STK_TOP_70
8
0
10
0
20
1.13
0
TEXT
8
SYM_TERMINAL
10
0
20
-3.048
40
1.778
1
1
0
INSERT
2
STK_TOP_70
8
0
10
0
20
-1.13
0
TEXT
8
SYM_TERMINAL
10
0
20
-6.096
40
1.778
1
2
0
ENDBLK
0
BLOCK
2
SYM_TOP_23
8
0
10
0
20
0
3
SYM_TOP_23
70
64
0
TEXT
8
SYM_NAME
10
0
20
0
40
1.778
1
R0402S
41
0.75
0
TEXT
8
SYM_PART_NAME_01
10
-1.062228
20
-0.279654
40
0.7112
1
 
41
0.75
7
W0$1016R0
0
TEXT
8
SYM_PART_TYPE_01
10
1.636522
20
1.2385833333
40
0.9779
1
 
73
2
11
1.636522
21
1.2385833333
41
0.75
7
W0$1397R0
0
INSERT
2
PART_BODY_TOP_22
8
0
10
0
20
0
0
INSERT
2
STK_TOP_386
8
0
10
-0.5
20
0
0
TEXT
8
SYM_TERMINAL
10
0
20
-3.048
40
1.778
1
1
0
INSERT
2
STK_TOP_386
8
0
10
0.5
20
0
0
TEXT
8
SYM_TERMINAL
10
0
20
-6.096
40
1.778
1
2
0
ENDBLK
0
BLOCK
2
SYM_TOP_24
8
0
10
0
20
0
3
SYM_TOP_24
70
64
0
TEXT
8
SYM_NAME
10
0
20
0
40
1.778
1
R1210
41
0.75
0
TEXT
8
SYM_PART_NAME_01
10
-1.778
20
4.826
40
1.778
1
 
41
0.75
7
W0$254R0
0
TEXT
8
SYM_PART_TYPE_01
10
-1.778
20
4.826
40
1.778
1
 
73
2
11
-1.778
21
4.826
41
0.75
7
W0$254R0
0
INSERT
2
PART_BODY_TOP_23
8
0
10
0
20
0
0
INSERT
2
STK_TOP_387
8
0
10
-1.7145
20
0
0
TEXT
8
SYM_TERMINAL
10
0
20
-3.048
40
1.778
1
1
0
INSERT
2
STK_TOP_387
8
0
10
1.7145
20
0
0
TEXT
8
SYM_TERMINAL
10
0
20
-6.096
40
1.778
1
2
0
ENDBLK
0
BLOCK
2
PART_BODY_TOP_1
8
0
10
0
20
0
3
PART_BODY_TOP_1
70
64
0
POLYLINE
8
PART_TOP_2DLINE_01
66
1
40
0.0508
41
0.0508
0
VERTEX
8
PART_TOP_2DLINE_01
10
-0.18567
20
0.6
0
VERTEX
8
PART_TOP_2DLINE_01
10
-1.25
20
0.6
0
VERTEX
8
PART_TOP_2DLINE_01
10
-1.25
20
-0.6
0
VERTEX
8
PART_TOP_2DLINE_01
10
-0.18567
20
-0.6
0
SEQEND
0
INSERT
2
SMOOTH_0$0508
8
PART_TOP_2DLINE_01
10
-0.18567
20
0.6
0
INSERT
2
SMOOTH_0$0508
8
PART_TOP_2DLINE_01
10
-1.25
20
0.6
0
INSERT
2
SMOOTH_0$0508
8
PART_TOP_2DLINE_01
10
-1.25
20
-0.6
0
INSERT
2
SMOOTH_0$0508
8
PART_TOP_2DLINE_01
10
-0.18567
20
-0.6
0
POLYLINE
8
PART_TOP_2DLINE_01
66
1
40
0.0508
41
0.0508
0
VERTEX
8
PART_TOP_2DLINE_01
10
0.17267
20
-0.6
0
VERTEX
8
PART_TOP_2DLINE_01
10
1.25
20
-0.6
0
VERTEX
8
PART_TOP_2DLINE_01
10
1.25
20
0.6
0
VERTEX
8
PART_TOP_2DLINE_01
10
0.17267
20
0.6
0
SEQEND
0
INSERT
2
SMOOTH_0$0508
8
PART_TOP_2DLINE_01
10
0.17267
20
-0.6
0
INSERT
2
SMOOTH_0$0508
8
PART_TOP_2DLINE_01
10
1.25
20
-0.6
0
INSERT
2
SMOOTH_0$0508
8
PART_TOP_2DLINE_01
10
1.25
20
0.6
0
INSERT
2
SMOOTH_0$0508
8
PART_TOP_2DLINE_01
10
0.17267
20
0.6
0
POLYLINE
8
PART_TOP_2DLINE_01
66
1
40
0.0508
41
0.0508
0
VERTEX
8
PART_TOP_2DLINE_01
10
0.1
20
0.2
0
VERTEX
8
PART_TOP_2DLINE_01
10
0.1
20
-0.2
0
SEQEND
0
INSERT
2
SMOOTH_0$0508
8
PART_TOP_2DLINE_01
10
0.1
20
0.2
0
INSERT
2
SMOOTH_0$0508
8
PART_TOP_2DLINE_01
10
0.1
20
-0.2
0
POLYLINE
8
PART_TOP_2DLINE_01
66
1
40
0.0508
41
0.0508
0
VERTEX
8
PART_TOP_2DLINE_01
10
-0.1
20
0.2
0
VERTEX
8
PART_TOP_2DLINE_01
10
-0.1
20
-0.2
0
SEQEND
0
INSERT
2
SMOOTH_0$0508
8
PART_TOP_2DLINE_01
10
-0.1
20
0.2
0
INSERT
2
SMOOTH_0$0508
8
PART_TOP_2DLINE_01
10
-0.1
20
-0.2
0
POLYLINE
8
PART_TOP_2DLINE_01
66
1
40
0.0508
41
0.0508
0
VERTEX
8
PART_TOP_2DLINE_01
10
-0.1778
20
0.0254
0
VERTEX
8
PART_TOP_2DLINE_01
10
-0.2794
20
0.0254
0
SEQEND
0
INSERT
2
SMOOTH_0$0508
8
PART_TOP_2DLINE_01
10
-0.1778
20
0.0254
0
INSERT
2
SMOOTH_0$0508
8
PART_TOP_2DLINE_01
10
-0.2794
20
0.0254
0
POLYLINE
8
PART_TOP_2DLINE_01
66
1
40
0.0508
41
0.0508
0
VERTEX
8
PART_TOP_2DLINE_01
10
0.1778
20
0.0254
0
VERTEX
8
PART_TOP_2DLINE_01
10
0.2794
20
0.0254
0
SEQEND
0
INSERT
2
SMOOTH_0$0508
8
PART_TOP_2DLINE_01
10
0.1778
20
0.0254
0
INSERT
2
SMOOTH_0$0508
8
PART_TOP_2DLINE_01
10
0.2794
20
0.0254
0
ENDBLK
0
BLOCK
2
STK_TOP_69
8
0
10
0
20
0
3
STK_TOP_69
70
64
0
INSERT
2
DRIL_HOLE_0
8
DRIL_PLTE_THRU_01
10
0
20
0
0
INSERT
2
DRIL_HOLE_0
8
DRIL_PLTE_THRU_02
10
0
20
0
0
INSERT
2
DRIL_HOLE_0
8
DRIL_PLTE_THRU_03
10
0
20
0
0
INSERT
2
DRIL_HOLE_0
8
DRIL_PLTE_THRU_04
10
0
20
0
0
INSERT
2
PAD_0
8
PADS_INNER
10
0
20
0
0
INSERT
2
PAD_0
8
PADS_BOT
10
0
20
0
0
INSERT
2
PAD_7
8
PADS_TOP
10
0
20
0
50
90
0
ENDBLK
0
BLOCK
2
PART_BODY_TOP_12
8
0
10
0
20
0
3
PART_BODY_TOP_12
70
64
0
POLYLINE
8
PART_TOP_2DLINE_01
66
1
40
0.1016
41
0.1016
70
1
0
VERTEX
8
PART_TOP_2DLINE_01
10
-1.25
20
0.6
0
VERTEX
8
PART_TOP_2DLINE_01
10
-1.25
20
-0.6
0
VERTEX
8
PART_TOP_2DLINE_01
10
1.25
20
-0.6
0
VERTEX
8
PART_TOP_2DLINE_01
10
1.25
20
0.6
0
SEQEND
0
INSERT
2
SMOOTH_0$1016
8
PART_TOP_2DLINE_01
10
-1.25
20
0.6
0
INSERT
2
SMOOTH_0$1016
8
PART_TOP_2DLINE_01
10
-1.25
20
-0.6
0
INSERT
2
SMOOTH_0$1016
8
PART_TOP_2DLINE_01
10
1.25
20
-0.6
0
INSERT
2
SMOOTH_0$1016
8
PART_TOP_2DLINE_01
10
1.25
20
0.6
0
POLYLINE
8
PART_TOP_2DLINE_01
66
1
40
0.1016
41
0.1016
0
VERTEX
8
PART_TOP_2DLINE_01
10
-0.1666666667
20
0.4096666667
42
-1.386534195
0
VERTEX
8
PART_TOP_2DLINE_01
10
-0.1666666667
20
0.006
42
-1.386534195
0
VERTEX
8
PART_TOP_2DLINE_01
10
-0.1666666667
20
-0.3773333333
0
SEQEND
0
INSERT
2
SMOOTH_0$1016
8
PART_TOP_2DLINE_01
10
-0.1666666667
20
0.4096666667
0
INSERT
2
SMOOTH_0$1016
8
PART_TOP_2DLINE_01
10
-0.1666666667
20
0.006
0
INSERT
2
SMOOTH_0$1016
8
PART_TOP_2DLINE_01
10
-0.1666666667
20
-0.3773333333
0
ENDBLK
0
BLOCK
2
SYM_TOP_14
8
0
10
0
20
0
3
SYM_TOP_14
70
64
0
TEXT
8
SYM_NAME
10
0
20
0
40
1.778
1
SPH3012
41
0.75
0
TEXT
8
SYM_PART_NAME_01
10
1.975
20
-0.5
40
1.05
1
 
41
0.75
7
W0$15R0
0
TEXT
8
SYM_PART_TYPE_01
10
1.975
20
-2
40
1.05
1
 
41
0.75
7
W0$15R0
0
INSERT
2
PART_BODY_TOP_13
8
0
10
0
20
0
0
INSERT
2
STK_TOP_352
8
0
10
-1.15
20
0
0
TEXT
8
SYM_TERMINAL
10
0
20
-3.048
40
1.778
1
1
0
INSERT
2
STK_TOP_352
8
0
10
1.15
20
0
0
TEXT
8
SYM_TERMINAL
10
0
20
-6.096
40
1.778
1
2
0
ENDBLK
0
BLOCK
2
SYM_TOP_15
8
0
10
0
20
0
3
SYM_TOP_15
70
64
0
TEXT
8
SYM_NAME
10
0
20
0
40
1.778
1
FB-0805
41
0.75
0
TEXT
8
SYM_PART_TYPE_01
10
-0.0635
20
-2.286
40
1.6002
1
 
41
0.75
7
W0$127R0
0
TEXT
8
SYM_PART_NAME_01
10
1.425
20
-0.45
40
1.05
1
 
41
0.75
7
W0$15R0
0
INSERT
2
PART_BODY_TOP_14
8
0
10
0
20
0
0
INSERT
2
STK_TOP_70
8
0
10
0
20
1.13
0
TEXT
8
SYM_TERMINAL
10
0
20
-3.048
40
1.778
1
1
0
INSERT
2
STK_TOP_70
8
0
10
0
20
-1.1684
0
TEXT
8
SYM_TERMINAL
10
0
20
-6.096
40
1.778
1
2
0
ENDBLK
0
BLOCK
2
SYM_TOP_16
8
0
10
0
20
0
3
SYM_TOP_16
70
64
0
TEXT
8
SYM_NAME
10
0
20
0
40
1.778
1
FB0805
41
0.75
0
TEXT
8
SYM_PART_NAME_01
10
1.425
20
-0.45
40
1.05
1
 
41
0.75
7
W0$15R0
0
TEXT
8
SYM_PART_TYPE_01
10
-0.0635
20
-2.286
40
1.6002
1
 
41
0.75
7
W0$127R0
0
INSERT
2
PART_BODY_TOP_15
8
0
10
0
20
0
0
INSERT
2
STK_TOP_70
8
0
10
0
20
1.13
0
TEXT
8
SYM_TERMINAL
10
0
20
-3.048
40
1.778
1
1
0
INSERT
2
STK_TOP_70
8
0
10
0
20
-1.1684
0
TEXT
8
SYM_TERMINAL
10
0
20
-6.096
40
1.778
1
2
0
ENDBLK
0
BLOCK
2
SYM_TOP_17
8
0
10
0
20
0
3
SYM_TOP_17
70
64
0
TEXT
8
SYM_NAME
10
0
20
0
40
1.778
1
FB-0402
41
0.75
0
TEXT
8
SYM_PART_TYPE_01
10
-2.74955
20
1.7188646667
40
0.9779
1
 
73
2
11
-2.74955
21
1.7188646667
41
0.75
7
W0$1397R0
0
TEXT
8
SYM_PART_NAME_01
10
-2.74955
20
1.016
40
0.9779
1
 
41
0.75
7
W0$1397R0
0
INSERT
2
PART_BODY_TOP_16
8
0
10
0
20
0
0
INSERT
2
STK_TOP_88
8
0
10
-0.425
20
0
0
TEXT
8
SYM_TERMINAL
10
0
20
-3.048
40
1.778
1
1
0
INSERT
2
STK_TOP_88
8
0
10
0.425
20
0
0
TEXT
8
SYM_TERMINAL
10
0
20
-6.096
40
1.778
1
2
0
ENDBLK
0
BLOCK
2
SYM_TOP_18
8
0
10
0
20
0
3
SYM_TOP_18
70
64
0
TEXT
8
SYM_NAME
10
0
20
0
40
1.778
1
FB-0603L
41
0.75
0
TEXT
8
SYM_PART_NAME_01
10
1.975
20
-0.5
40
1.05
1
 
41
0.75
7
W0$15R0
0
TEXT
8
SYM_PART_TYPE_01
10
1.975
20
-2
40
1.05
1
 
41
0.75
7
W0$15R0
0
INSERT
2
PART_BODY_TOP_17
8
0
10
0
20
0
0
INSERT
2
STK_TOP_384
8
0
10
-0.75
20
0
0
TEXT
8
SYM_TERMINAL
10
0
20
-3.048
40
1.778
1
1
0
INSERT
2
STK_TOP_384
8
0
10
0.75
20
0
0
TEXT
8
SYM_TERMINAL
10
0
20
-6.096
40
1.778
1
2
0
ENDBLK
0
BLOCK
2
PART_BODY_TOP_26
8
0
10
0
20
0
3
PART_BODY_TOP_26
70
64
0
POLYLINE
8
TAG_01
66
1
0
VERTEX
8
TAG_01
10
0
20
0
0
VERTEX
8
TAG_01
10
0
20
0
0
SEQEND
0
POLYLINE
8
PART_TOP_2DLINE_120
66
1
40
0.2
41
0.2
39
1
0
VERTEX
8
PART_TOP_2DLINE_120
10
-0.5
20
0
0
VERTEX
8
PART_TOP_2DLINE_120
10
0
20
0
0
VERTEX
8
PART_TOP_2DLINE_120
10
0
20
0.5
0
SEQEND
0
INSERT
2
SMOOTH_0$2
8
PART_TOP_2DLINE_120
10
-0.5
20
0
0
INSERT
2
SMOOTH_0$2
8
PART_TOP_2DLINE_120
10
0
20
0
0
INSERT
2
SMOOTH_0$2
8
PART_TOP_2DLINE_120
10
0
20
0.5
0
POLYLINE
8
PART_TOP_2DLINE_120
66
1
40
0.2
41
0.2
39
1
0
VERTEX
8
PART_TOP_2DLINE_120
10
0
20
-0.5
0
VERTEX
8
PART_TOP_2DLINE_120
10
0
20
0
0
VERTEX
8
PART_TOP_2DLINE_120
10
0.5
20
0
0
SEQEND
0
INSERT
2
SMOOTH_0$2
8
PART_TOP_2DLINE_120
10
0
20
-0.5
0
INSERT
2
SMOOTH_0$2
8
PART_TOP_2DLINE_120
10
0
20
0
0
INSERT
2
SMOOTH_0$2
8
PART_TOP_2DLINE_120
10
0.5
20
0
0
POLYLINE
8
TAG_00
66
1
0
VERTEX
8
TAG_00
10
0
20
0
0
VERTEX
8
TAG_00
10
0
20
0
0
SEQEND
0
POLYLINE
8
PART_TOP_2DLINE_126
66
1
40
0.2
41
0.2
39
1
70
1
0
VERTEX
8
PART_TOP_2DLINE_126
10
-2.4
20
3.3
0
VERTEX
8
PART_TOP_2DLINE_126
10
1.8
20
3.3
0
VERTEX
8
PART_TOP_2DLINE_126
10
1.8
20
-3.9
0
VERTEX
8
PART_TOP_2DLINE_126
10
-2.4
20
-3.9
0
SEQEND
0
INSERT
2
SMOOTH_0$2
8
PART_TOP_2DLINE_126
10
-2.4
20
3.3
0
INSERT
2
SMOOTH_0$2
8
PART_TOP_2DLINE_126
10
1.8
20
3.3
0
INSERT
2
SMOOTH_0$2
8
PART_TOP_2DLINE_126
10
1.8
20
-3.9
0
INSERT
2
SMOOTH_0$2
8
PART_TOP_2DLINE_126
10
-2.4
20
-3.9
0
ENDBLK
0
BLOCK
2
STK_TOP_373
8
0
10
0
20
0
3
STK_TOP_373
70
64
0
INSERT
2
DRIL_HOLE_0
8
DRIL_NPLTE_THRU_01
10
0
20
0
0
INSERT
2
DRIL_HOLE_0
8
DRIL_NPLTE_THRU_02
10
0
20
0
0
INSERT
2
DRIL_HOLE_0
8
DRIL_NPLTE_THRU_03
10
0
20
0
0
INSERT
2
DRIL_HOLE_0
8
DRIL_NPLTE_THRU_04
10
0
20
0
0
INSERT
2
PAD_0
8
PADS_INNER
10
0
20
0
0
INSERT
2
PAD_0
8
PADS_BOT
10
0
20
0
0
INSERT
2
PAD_8
8
PADS_XR_121
10
0
20
0
0
INSERT
2
PAD_8
8
PADS_XR_123
10
0
20
0
0
INSERT
2
PAD_8
8
PADS_TOP
10
0
20
0
0
ENDBLK
0
BLOCK
2
STK_TOP_374
8
0
10
0
20
0
3
STK_TOP_374
70
64
0
INSERT
2
DRIL_HOLE_0
8
DRIL_NPLTE_THRU_01
10
0
20
0
0
INSERT
2
DRIL_HOLE_0
8
DRIL_NPLTE_THRU_02
10
0
20
0
0
INSERT
2
DRIL_HOLE_0
8
DRIL_NPLTE_THRU_03
10
0
20
0
0
INSERT
2
DRIL_HOLE_0
8
DRIL_NPLTE_THRU_04
10
0
20
0
0
INSERT
2
PAD_0
8
PADS_INNER
10
0
20
0
0
INSERT
2
PAD_0
8
PADS_BOT
10
0
20
0
0
INSERT
2
PAD_9
8
PADS_TOP
10
0
20
0
0
ENDBLK
0
BLOCK
2
PART_BODY_TOP_2
8
0
10
0
20
0
3
PART_BODY_TOP_2
70
64
0
POLYLINE
8
PART_TOP_2DLINE_01
66
1
40
0.127
41
0.127
0
VERTEX
8
PART_TOP_2DLINE_01
10
-0.842
20
0.20133
0
VERTEX
8
PART_TOP_2DLINE_01
10
-0.842
20
1.985
0
VERTEX
8
PART_TOP_2DLINE_01
10
0.842
20
1.985
0
VERTEX
8
PART_TOP_2DLINE_01
10
0.842
20
0.193
0
SEQEND
0
INSERT
2
SMOOTH_0$127
8
PART_TOP_2DLINE_01
10
-0.842
20
0.20133
0
INSERT
2
SMOOTH_0$127
8
PART_TOP_2DLINE_01
10
-0.842
20
1.985
0
INSERT
2
SMOOTH_0$127
8
PART_TOP_2DLINE_01
10
0.842
20
1.985
0
INSERT
2
SMOOTH_0$127
8
PART_TOP_2DLINE_01
10
0.842
20
0.193
0
POLYLINE
8
PART_TOP_2DLINE_01
66
1
40
0.127
41
0.127
0
VERTEX
8
PART_TOP_2DLINE_01
10
0.842
20
-0.25733
0
VERTEX
8
PART_TOP_2DLINE_01
10
0.842
20
-1.985
0
VERTEX
8
PART_TOP_2DLINE_01
10
-0.842
20
-1.985
0
VERTEX
8
PART_TOP_2DLINE_01
10
-0.842
20
-0.249
0
SEQEND
0
INSERT
2
SMOOTH_0$127
8
PART_TOP_2DLINE_01
10
0.842
20
-0.25733
0
INSERT
2
SMOOTH_0$127
8
PART_TOP_2DLINE_01
10
0.842
20
-1.985
0
INSERT
2
SMOOTH_0$127
8
PART_TOP_2DLINE_01
10
-0.842
20
-1.985
0
INSERT
2
SMOOTH_0$127
8
PART_TOP_2DLINE_01
10
-0.842
20
-0.249
0
POLYLINE
8
PART_TOP_2DLINE_01
66
1
40
0.127
41
0.127
0
VERTEX
8
PART_TOP_2DLINE_01
10
0.3
20
-0.2
0
VERTEX
8
PART_TOP_2DLINE_01
10
-0.3
20
-0.2
0
SEQEND
0
INSERT
2
SMOOTH_0$127
8
PART_TOP_2DLINE_01
10
0.3
20
-0.2
0
INSERT
2
SMOOTH_0$127
8
PART_TOP_2DLINE_01
10
-0.3
20
-0.2
0
POLYLINE
8
PART_TOP_2DLINE_01
66
1
40
0.127
41
0.127
0
VERTEX
8
PART_TOP_2DLINE_01
10
0.3
20
0.2
0
VERTEX
8
PART_TOP_2DLINE_01
10
-0.3
20
0.2
0
SEQEND
0
INSERT
2
SMOOTH_0$127
8
PART_TOP_2DLINE_01
10
0.3
20
0.2
0
INSERT
2
SMOOTH_0$127
8
PART_TOP_2DLINE_01
10
-0.3
20
0.2
0
POLYLINE
8
PART_TOP_2DLINE_01
66
1
40
0.127
41
0.127
0
VERTEX
8
PART_TOP_2DLINE_01
10
0
20
0.254
0
VERTEX
8
PART_TOP_2DLINE_01
10
0
20
0.508
0
SEQEND
0
INSERT
2
SMOOTH_0$127
8
PART_TOP_2DLINE_01
10
0
20
0.254
0
INSERT
2
SMOOTH_0$127
8
PART_TOP_2DLINE_01
10
0
20
0.508
0
POLYLINE
8
PART_TOP_2DLINE_01
66
1
40
0.127
41
0.127
0
VERTEX
8
PART_TOP_2DLINE_01
10
0
20
-0.2794
0
VERTEX
8
PART_TOP_2DLINE_01
10
0
20
-0.508
0
SEQEND
0
INSERT
2
SMOOTH_0$127
8
PART_TOP_2DLINE_01
10
0
20
-0.2794
0
INSERT
2
SMOOTH_0$127
8
PART_TOP_2DLINE_01
10
0
20
-0.508
0
ENDBLK
0
BLOCK
2
STK_TOP_70
8
0
10
0
20
0
3
STK_TOP_70
70
64
0
INSERT
2
DRIL_HOLE_0
8
DRIL_PLTE_THRU_01
10
0
20
0
0
INSERT
2
DRIL_HOLE_0
8
DRIL_PLTE_THRU_02
10
0
20
0
0
INSERT
2
DRIL_HOLE_0
8
DRIL_PLTE_THRU_03
10
0
20
0
0
INSERT
2
DRIL_HOLE_0
8
DRIL_PLTE_THRU_04
10
0
20
0
0
INSERT
2
PAD_0
8
PADS_INNER
10
0
20
0
0
INSERT
2
PAD_0
8
PADS_BOT
10
0
20
0
0
INSERT
2
PAD_10
8
PADS_TOP
10
0
20
0
0
ENDBLK
0
BLOCK
2
PART_BODY_TOP_4
8
0
10
0
20
0
3
PART_BODY_TOP_4
70
64
0
POLYLINE
8
PART_TOP_2DLINE_00
66
1
40
0.1524
41
0.1524
0
VERTEX
8
PART_TOP_2DLINE_00
10
-0.9525
20
1.778
0
VERTEX
8
PART_TOP_2DLINE_00
10
-2.9972
20
1.778
0
VERTEX
8
PART_TOP_2DLINE_00
10
-2.9972
20
-1.778
0
VERTEX
8
PART_TOP_2DLINE_00
10
-0.9525
20
-1.778
0
SEQEND
0
INSERT
2
SMOOTH_0$1524
8
PART_TOP_2DLINE_00
10
-0.9525
20
1.778
0
INSERT
2
SMOOTH_0$1524
8
PART_TOP_2DLINE_00
10
-2.9972
20
1.778
0
INSERT
2
SMOOTH_0$1524
8
PART_TOP_2DLINE_00
10
-2.9972
20
-1.778
0
INSERT
2
SMOOTH_0$1524
8
PART_TOP_2DLINE_00
10
-0.9525
20
-1.778
0
POLYLINE
8
PART_TOP_2DLINE_00
66
1
40
0.1524
41
0.1524
0
VERTEX
8
PART_TOP_2DLINE_00
10
0.9525
20
1.778
0
VERTEX
8
PART_TOP_2DLINE_00
10
2.9972
20
1.778
0
VERTEX
8
PART_TOP_2DLINE_00
10
2.9972
20
-1.778
0
VERTEX
8
PART_TOP_2DLINE_00
10
0.9525
20
-1.778
0
SEQEND
0
INSERT
2
SMOOTH_0$1524
8
PART_TOP_2DLINE_00
10
0.9525
20
1.778
0
INSERT
2
SMOOTH_0$1524
8
PART_TOP_2DLINE_00
10
2.9972
20
1.778
0
INSERT
2
SMOOTH_0$1524
8
PART_TOP_2DLINE_00
10
2.9972
20
-1.778
0
INSERT
2
SMOOTH_0$1524
8
PART_TOP_2DLINE_00
10
0.9525
20
-1.778
0
POLYLINE
8
PART_TOP_2DLINE_01
66
1
40
0.1524
41
0.1524
0
VERTEX
8
PART_TOP_2DLINE_01
10
-0.3048
20
0.6858
0
VERTEX
8
PART_TOP_2DLINE_01
10
-0.3048
20
-0.6604
0
SEQEND
0
INSERT
2
SMOOTH_0$1524
8
PART_TOP_2DLINE_01
10
-0.3048
20
0.6858
0
INSERT
2
SMOOTH_0$1524
8
PART_TOP_2DLINE_01
10
-0.3048
20
-0.6604
0
POLYLINE
8
PART_TOP_2DLINE_01
66
1
40
0.1524
41
0.1524
0
VERTEX
8
PART_TOP_2DLINE_01
10
0.3048
20
0.6858
0
VERTEX
8
PART_TOP_2DLINE_01
10
0.3048
20
-0.6604
0
SEQEND
0
INSERT
2
SMOOTH_0$1524
8
PART_TOP_2DLINE_01
10
0.3048
20
0.6858
0
INSERT
2
SMOOTH_0$1524
8
PART_TOP_2DLINE_01
10
0.3048
20
-0.6604
0
POLYLINE
8
PART_TOP_2DLINE_01
66
1
40
0.1524
41
0.1524
0
VERTEX
8
PART_TOP_2DLINE_01
10
-0.381
20
0
0
VERTEX
8
PART_TOP_2DLINE_01
10
-0.8636
20
0
0
SEQEND
0
INSERT
2
SMOOTH_0$1524
8
PART_TOP_2DLINE_01
10
-0.381
20
0
0
INSERT
2
SMOOTH_0$1524
8
PART_TOP_2DLINE_01
10
-0.8636
20
0
0
POLYLINE
8
PART_TOP_2DLINE_01
66
1
40
0.1524
41
0.1524
0
VERTEX
8
PART_TOP_2DLINE_01
10
0.381
20
0
0
VERTEX
8
PART_TOP_2DLINE_01
10
0.8382
20
0
0
SEQEND
0
INSERT
2
SMOOTH_0$1524
8
PART_TOP_2DLINE_01
10
0.381
20
0
0
INSERT
2
SMOOTH_0$1524
8
PART_TOP_2DLINE_01
10
0.8382
20
0
0
ENDBLK
0
BLOCK
2
STK_TOP_104
8
0
10
0
20
0
3
STK_TOP_104
70
64
0
INSERT
2
DRIL_HOLE_0
8
DRIL_PLTE_THRU_01
10
0
20
0
0
INSERT
2
DRIL_HOLE_0
8
DRIL_PLTE_THRU_02
10
0
20
0
0
INSERT
2
DRIL_HOLE_0
8
DRIL_PLTE_THRU_03
10
0
20
0
0
INSERT
2
DRIL_HOLE_0
8
DRIL_PLTE_THRU_04
10
0
20
0
0
INSERT
2
PAD_0
8
PADS_INNER
10
0
20
0
0
INSERT
2
PAD_0
8
PADS_BOT
10
0
20
0
0
INSERT
2
PAD_11
8
PADS_TOP
10
0
20
0
50
90
0
ENDBLK
0
BLOCK
2
PART_BODY_TOP_5
8
0
10
0
20
0
3
PART_BODY_TOP_5
70
64
0
POLYLINE
8
PART_TOP_2DLINE_00
66
1
40
0.254
41
0.254
0
VERTEX
8
PART_TOP_2DLINE_00
10
-0.9525
20
1.27
0
VERTEX
8
PART_TOP_2DLINE_00
10
-2.9972
20
1.27
0
VERTEX
8
PART_TOP_2DLINE_00
10
-2.9972
20
-1.27
0
VERTEX
8
PART_TOP_2DLINE_00
10
-0.9525
20
-1.27
0
SEQEND
0
INSERT
2
SMOOTH_0$254
8
PART_TOP_2DLINE_00
10
-0.9525
20
1.27
0
INSERT
2
SMOOTH_0$254
8
PART_TOP_2DLINE_00
10
-2.9972
20
1.27
0
INSERT
2
SMOOTH_0$254
8
PART_TOP_2DLINE_00
10
-2.9972
20
-1.27
0
INSERT
2
SMOOTH_0$254
8
PART_TOP_2DLINE_00
10
-0.9525
20
-1.27
0
POLYLINE
8
PART_TOP_2DLINE_00
66
1
40
0.254
41
0.254
0
VERTEX
8
PART_TOP_2DLINE_00
10
0.9525
20
1.27
0
VERTEX
8
PART_TOP_2DLINE_00
10
2.9972
20
1.27
0
VERTEX
8
PART_TOP_2DLINE_00
10
2.9972
20
-1.27
0
VERTEX
8
PART_TOP_2DLINE_00
10
0.9525
20
-1.27
0
SEQEND
0
INSERT
2
SMOOTH_0$254
8
PART_TOP_2DLINE_00
10
0.9525
20
1.27
0
INSERT
2
SMOOTH_0$254
8
PART_TOP_2DLINE_00
10
2.9972
20
1.27
0
INSERT
2
SMOOTH_0$254
8
PART_TOP_2DLINE_00
10
2.9972
20
-1.27
0
INSERT
2
SMOOTH_0$254
8
PART_TOP_2DLINE_00
10
0.9525
20
-1.27
0
POLYLINE
8
PART_TOP_2DLINE_01
66
1
40
0.127
41
0.127
0
VERTEX
8
PART_TOP_2DLINE_01
10
-0.3048
20
0.4572
0
VERTEX
8
PART_TOP_2DLINE_01
10
-0.3048
20
-0.4572
0
SEQEND
0
INSERT
2
SMOOTH_0$127
8
PART_TOP_2DLINE_01
10
-0.3048
20
0.4572
0
INSERT
2
SMOOTH_0$127
8
PART_TOP_2DLINE_01
10
-0.3048
20
-0.4572
0
POLYLINE
8
PART_TOP_2DLINE_01
66
1
40
0.127
41
0.127
0
VERTEX
8
PART_TOP_2DLINE_01
10
0.3048
20
0.4572
0
VERTEX
8
PART_TOP_2DLINE_01
10
0.3048
20
-0.4572
0
SEQEND
0
INSERT
2
SMOOTH_0$127
8
PART_TOP_2DLINE_01
10
0.3048
20
0.4572
0
INSERT
2
SMOOTH_0$127
8
PART_TOP_2DLINE_01
10
0.3048
20
-0.4572
0
POLYLINE
8
PART_TOP_2DLINE_01
66
1
40
0.127
41
0.127
0
VERTEX
8
PART_TOP_2DLINE_01
10
0.381
20
0
0
VERTEX
8
PART_TOP_2DLINE_01
10
0.7366
20
0
0
SEQEND
0
INSERT
2
SMOOTH_0$127
8
PART_TOP_2DLINE_01
10
0.381
20
0
0
INSERT
2
SMOOTH_0$127
8
PART_TOP_2DLINE_01
10
0.7366
20
0
0
POLYLINE
8
PART_TOP_2DLINE_01
66
1
40
0.127
41
0.127
0
VERTEX
8
PART_TOP_2DLINE_01
10
-0.381
20
0
0
VERTEX
8
PART_TOP_2DLINE_01
10
-0.7366
20
0
0
SEQEND
0
INSERT
2
SMOOTH_0$127
8
PART_TOP_2DLINE_01
10
-0.381
20
0
0
INSERT
2
SMOOTH_0$127
8
PART_TOP_2DLINE_01
10
-0.7366
20
0
0
ENDBLK
0
BLOCK
2
STK_TOP_87
8
0
10
0
20
0
3
STK_TOP_87
70
64
0
INSERT
2
DRIL_HOLE_0
8
DRIL_PLTE_THRU_01
10
0
20
0
0
INSERT
2
DRIL_HOLE_0
8
DRIL_PLTE_THRU_02
10
0
20
0
0
INSERT
2
DRIL_HOLE_0
8
DRIL_PLTE_THRU_03
10
0
20
0
0
INSERT
2
DRIL_HOLE_0
8
DRIL_PLTE_THRU_04
10
0
20
0
0
INSERT
2
PAD_0
8
PADS_INNER
10
0
20
0
0
INSERT
2
PAD_0
8
PADS_BOT
10
0
20
0
0
INSERT
2
PAD_12
8
PADS_TOP
10
0
20
0
0
ENDBLK
0
BLOCK
2
PART_BODY_TOP_10
8
0
10
0
20
0
3
PART_BODY_TOP_10
70
64
0
POLYLINE
8
PART_TOP_2DLINE_126
66
1
40
0.2499993333
41
0.2499993333
70
1
0
VERTEX
8
PART_TOP_2DLINE_126
10
-2.2749993333
20
2.7550006667
42
1
0
VERTEX
8
PART_TOP_2DLINE_126
10
-2.5250006667
20
2.7550006667
42
1
0
SEQEND
0
POLYLINE
8
PART_TOP_2DLINE_120
66
1
40
0.0999993333
41
0.0999993333
0
VERTEX
8
PART_TOP_2DLINE_120
10
-0.5000013333
20
0
0
VERTEX
8
PART_TOP_2DLINE_120
10
0.4999986667
20
0
0
SEQEND
0
INSERT
2
SMOOTH_0$0999993333
8
PART_TOP_2DLINE_120
10
-0.5000013333
20
0
0
INSERT
2
SMOOTH_0$0999993333
8
PART_TOP_2DLINE_120
10
0.4999986667
20
0
0
POLYLINE
8
PART_TOP_2DLINE_120
66
1
40
0.0999993333
41
0.0999993333
0
VERTEX
8
PART_TOP_2DLINE_120
10
0
20
0.4999986667
0
VERTEX
8
PART_TOP_2DLINE_120
10
0
20
-0.4999986667
0
SEQEND
0
INSERT
2
SMOOTH_0$0999993333
8
PART_TOP_2DLINE_120
10
0
20
0.4999986667
0
INSERT
2
SMOOTH_0$0999993333
8
PART_TOP_2DLINE_120
10
0
20
-0.4999986667
0
POLYLINE
8
PART_TOP_2DLINE_126
66
1
40
0.1999993333
41
0.1999993333
0
VERTEX
8
PART_TOP_2DLINE_126
10
-1.9558
20
2.4892
0
VERTEX
8
PART_TOP_2DLINE_126
10
1.9558
20
2.4892
0
SEQEND
0
INSERT
2
SMOOTH_0$1999993333
8
PART_TOP_2DLINE_126
10
-1.9558
20
2.4892
0
INSERT
2
SMOOTH_0$1999993333
8
PART_TOP_2DLINE_126
10
1.9558
20
2.4892
0
POLYLINE
8
PART_TOP_2DLINE_126
66
1
40
0.1999993333
41
0.1999993333
0
VERTEX
8
PART_TOP_2DLINE_126
10
-1.9558
20
-2.4384
0
VERTEX
8
PART_TOP_2DLINE_126
10
1.9558
20
-2.4384
0
SEQEND
0
INSERT
2
SMOOTH_0$1999993333
8
PART_TOP_2DLINE_126
10
-1.9558
20
-2.4384
0
INSERT
2
SMOOTH_0$1999993333
8
PART_TOP_2DLINE_126
10
1.9558
20
-2.4384
0
ENDBLK
0
BLOCK
2
STK_TOP_377
8
0
10
0
20
0
3
STK_TOP_377
70
64
0
INSERT
2
DRIL_HOLE_0
8
DRIL_PLTE_THRU_01
10
0
20
0
0
INSERT
2
DRIL_HOLE_0
8
DRIL_PLTE_THRU_02
10
0
20
0
0
INSERT
2
DRIL_HOLE_0
8
DRIL_PLTE_THRU_03
10
0
20
0
0
INSERT
2
DRIL_HOLE_0
8
DRIL_PLTE_THRU_04
10
0
20
0
0
INSERT
2
PAD_0
8
PADS_INNER
10
0
20
0
0
INSERT
2
PAD_0
8
PADS_BOT
10
0
20
0
0
INSERT
2
PAD_13
8
PADS_TOP
10
0
20
0
0
ENDBLK
0
BLOCK
2
PART_BODY_TOP_18
8
0
10
0
20
0
3
PART_BODY_TOP_18
70
64
0
POLYLINE
8
PART_TOP_2DLINE_01
66
1
40
0.15
41
0.15
0
VERTEX
8
PART_TOP_2DLINE_01
10
-0.18567
20
0.6
0
VERTEX
8
PART_TOP_2DLINE_01
10
-1.25
20
0.6
0
VERTEX
8
PART_TOP_2DLINE_01
10
-1.25
20
-0.6
0
VERTEX
8
PART_TOP_2DLINE_01
10
-0.18567
20
-0.6
0
SEQEND
0
INSERT
2
SMOOTH_0$15
8
PART_TOP_2DLINE_01
10
-0.18567
20
0.6
0
INSERT
2
SMOOTH_0$15
8
PART_TOP_2DLINE_01
10
-1.25
20
0.6
0
INSERT
2
SMOOTH_0$15
8
PART_TOP_2DLINE_01
10
-1.25
20
-0.6
0
INSERT
2
SMOOTH_0$15
8
PART_TOP_2DLINE_01
10
-0.18567
20
-0.6
0
POLYLINE
8
PART_TOP_2DLINE_01
66
1
40
0.15
41
0.15
0
VERTEX
8
PART_TOP_2DLINE_01
10
-0.3453333333
20
-0.6
0
VERTEX
8
PART_TOP_2DLINE_01
10
1.25
20
-0.6
0
VERTEX
8
PART_TOP_2DLINE_01
10
1.25
20
0.6
0
VERTEX
8
PART_TOP_2DLINE_01
10
-0.208
20
0.6
0
SEQEND
0
INSERT
2
SMOOTH_0$15
8
PART_TOP_2DLINE_01
10
-0.3453333333
20
-0.6
0
INSERT
2
SMOOTH_0$15
8
PART_TOP_2DLINE_01
10
1.25
20
-0.6
0
INSERT
2
SMOOTH_0$15
8
PART_TOP_2DLINE_01
10
1.25
20
0.6
0
INSERT
2
SMOOTH_0$15
8
PART_TOP_2DLINE_01
10
-0.208
20
0.6
0
ENDBLK
0
BLOCK
2
PART_BODY_TOP_20
8
0
10
0
20
0
3
PART_BODY_TOP_20
70
64
0
POLYLINE
8
PART_TOP_2DLINE_00
66
1
40
0.254
41
0.254
0
VERTEX
8
PART_TOP_2DLINE_00
10
-0.9525
20
1.1
0
VERTEX
8
PART_TOP_2DLINE_00
10
-2.7
20
1.1
0
VERTEX
8
PART_TOP_2DLINE_00
10
-2.7
20
-1.1
0
VERTEX
8
PART_TOP_2DLINE_00
10
0.90119
20
-1.1
0
SEQEND
0
INSERT
2
SMOOTH_0$254
8
PART_TOP_2DLINE_00
10
-0.9525
20
1.1
0
INSERT
2
SMOOTH_0$254
8
PART_TOP_2DLINE_00
10
-2.7
20
1.1
0
INSERT
2
SMOOTH_0$254
8
PART_TOP_2DLINE_00
10
-2.7
20
-1.1
0
INSERT
2
SMOOTH_0$254
8
PART_TOP_2DLINE_00
10
0.90119
20
-1.1
0
POLYLINE
8
PART_TOP_2DLINE_00
66
1
40
0.254
41
0.254
0
VERTEX
8
PART_TOP_2DLINE_00
10
-0.98552
20
1.1
0
VERTEX
8
PART_TOP_2DLINE_00
10
2.7
20
1.1
0
VERTEX
8
PART_TOP_2DLINE_00
10
2.7
20
-1.1
0
VERTEX
8
PART_TOP_2DLINE_00
10
0.9525
20
-1.1
0
SEQEND
0
INSERT
2
SMOOTH_0$254
8
PART_TOP_2DLINE_00
10
-0.98552
20
1.1
0
INSERT
2
SMOOTH_0$254
8
PART_TOP_2DLINE_00
10
2.7
20
1.1
0
INSERT
2
SMOOTH_0$254
8
PART_TOP_2DLINE_00
10
2.7
20
-1.1
0
INSERT
2
SMOOTH_0$254
8
PART_TOP_2DLINE_00
10
0.9525
20
-1.1
0
POLYLINE
8
PART_TOP_2DLINE_01
66
1
40
0.127
41
0.127
0
VERTEX
8
PART_TOP_2DLINE_01
10
0
20
0.8382
0
VERTEX
8
PART_TOP_2DLINE_01
10
0
20
0.3302
0
VERTEX
8
PART_TOP_2DLINE_01
10
0.127
20
0.2032
0
VERTEX
8
PART_TOP_2DLINE_01
10
-0.127
20
0.2032
0
VERTEX
8
PART_TOP_2DLINE_01
10
0.127
20
-0.0508
0
VERTEX
8
PART_TOP_2DLINE_01
10
-0.127
20
-0.0508
0
VERTEX
8
PART_TOP_2DLINE_01
10
0.127
20
-0.3048
0
VERTEX
8
PART_TOP_2DLINE_01
10
0
20
-0.3048
0
VERTEX
8
PART_TOP_2DLINE_01
10
0
20
-0.8636
0
SEQEND
0
INSERT
2
SMOOTH_0$127
8
PART_TOP_2DLINE_01
10
0
20
0.8382
0
INSERT
2
SMOOTH_0$127
8
PART_TOP_2DLINE_01
10
0
20
0.3302
0
INSERT
2
SMOOTH_0$127
8
PART_TOP_2DLINE_01
10
0.127
20
0.2032
0
INSERT
2
SMOOTH_0$127
8
PART_TOP_2DLINE_01
10
-0.127
20
0.2032
0
INSERT
2
SMOOTH_0$127
8
PART_TOP_2DLINE_01
10
0.127
20
-0.0508
0
INSERT
2
SMOOTH_0$127
8
PART_TOP_2DLINE_01
10
-0.127
20
-0.0508
0
INSERT
2
SMOOTH_0$127
8
PART_TOP_2DLINE_01
10
0.127
20
-0.3048
0
INSERT
2
SMOOTH_0$127
8
PART_TOP_2DLINE_01
10
0
20
-0.3048
0
INSERT
2
SMOOTH_0$127
8
PART_TOP_2DLINE_01
10
0
20
-0.8636
0
ENDBLK
0
BLOCK
2
STK_TOP_385
8
0
10
0
20
0
3
STK_TOP_385
70
64
0
INSERT
2
DRIL_HOLE_0
8
DRIL_PLTE_THRU_01
10
0
20
0
0
INSERT
2
DRIL_HOLE_0
8
DRIL_PLTE_THRU_02
10
0
20
0
0
INSERT
2
DRIL_HOLE_0
8
DRIL_PLTE_THRU_03
10
0
20
0
0
INSERT
2
DRIL_HOLE_0
8
DRIL_PLTE_THRU_04
10
0
20
0
0
INSERT
2
PAD_0
8
PADS_INNER
10
0
20
0
0
INSERT
2
PAD_0
8
PADS_BOT
10
0
20
0
0
INSERT
2
PAD_14
8
PADS_XR_125
10
0
20
0
0
INSERT
2
PAD_15
8
PADS_TOP
10
0
20
0
50
90
0
ENDBLK
0
BLOCK
2
PART_BODY_TOP_21
8
0
10
0
20
0
3
PART_BODY_TOP_21
70
64
0
POLYLINE
8
PART_TOP_2DLINE_01
66
1
40
0.127
41
0.127
0
VERTEX
8
PART_TOP_2DLINE_01
10
-0.85
20
0.20133
0
VERTEX
8
PART_TOP_2DLINE_01
10
-0.85
20
1.985
0
VERTEX
8
PART_TOP_2DLINE_01
10
0.85
20
1.985
0
VERTEX
8
PART_TOP_2DLINE_01
10
0.85
20
0.193
0
SEQEND
0
INSERT
2
SMOOTH_0$127
8
PART_TOP_2DLINE_01
10
-0.85
20
0.20133
0
INSERT
2
SMOOTH_0$127
8
PART_TOP_2DLINE_01
10
-0.85
20
1.985
0
INSERT
2
SMOOTH_0$127
8
PART_TOP_2DLINE_01
10
0.85
20
1.985
0
INSERT
2
SMOOTH_0$127
8
PART_TOP_2DLINE_01
10
0.85
20
0.193
0
POLYLINE
8
PART_TOP_2DLINE_01
66
1
40
0.127
41
0.127
0
VERTEX
8
PART_TOP_2DLINE_01
10
0.85
20
0.249
0
VERTEX
8
PART_TOP_2DLINE_01
10
0.85
20
-1.985
0
VERTEX
8
PART_TOP_2DLINE_01
10
-0.85
20
-1.985
0
VERTEX
8
PART_TOP_2DLINE_01
10
-0.85
20
0.2246666667
0
SEQEND
0
INSERT
2
SMOOTH_0$127
8
PART_TOP_2DLINE_01
10
0.85
20
0.249
0
INSERT
2
SMOOTH_0$127
8
PART_TOP_2DLINE_01
10
0.85
20
-1.985
0
INSERT
2
SMOOTH_0$127
8
PART_TOP_2DLINE_01
10
-0.85
20
-1.985
0
INSERT
2
SMOOTH_0$127
8
PART_TOP_2DLINE_01
10
-0.85
20
0.2246666667
0
POLYLINE
8
PART_TOP_2DLINE_127
66
1
40
0.127
41
0.127
0
VERTEX
8
PART_TOP_2DLINE_127
10
0.761238
20
-0.036576
0
VERTEX
8
PART_TOP_2DLINE_127
10
0.380238
20
-0.036576
0
VERTEX
8
PART_TOP_2DLINE_127
10
0.253238
20
-0.163576
0
VERTEX
8
PART_TOP_2DLINE_127
10
0.253238
20
0.090424
0
VERTEX
8
PART_TOP_2DLINE_127
10
-0.000762
20
-0.163576
0
VERTEX
8
PART_TOP_2DLINE_127
10
-0.000762
20
0.090424
0
VERTEX
8
PART_TOP_2DLINE_127
10
-0.254762
20
-0.163576
0
VERTEX
8
PART_TOP_2DLINE_127
10
-0.254762
20
-0.036576
0
VERTEX
8
PART_TOP_2DLINE_127
10
-0.813562
20
-0.036576
0
SEQEND
0
INSERT
2
SMOOTH_0$127
8
PART_TOP_2DLINE_127
10
0.761238
20
-0.036576
0
INSERT
2
SMOOTH_0$127
8
PART_TOP_2DLINE_127
10
0.380238
20
-0.036576
0
INSERT
2
SMOOTH_0$127
8
PART_TOP_2DLINE_127
10
0.253238
20
-0.163576
0
INSERT
2
SMOOTH_0$127
8
PART_TOP_2DLINE_127
10
0.253238
20
0.090424
0
INSERT
2
SMOOTH_0$127
8
PART_TOP_2DLINE_127
10
-0.000762
20
-0.163576
0
INSERT
2
SMOOTH_0$127
8
PART_TOP_2DLINE_127
10
-0.000762
20
0.090424
0
INSERT
2
SMOOTH_0$127
8
PART_TOP_2DLINE_127
10
-0.254762
20
-0.163576
0
INSERT
2
SMOOTH_0$127
8
PART_TOP_2DLINE_127
10
-0.254762
20
-0.036576
0
INSERT
2
SMOOTH_0$127
8
PART_TOP_2DLINE_127
10
-0.813562
20
-0.036576
0
POLYLINE
8
PART_TOP_2DLINE_130
66
1
40
0.127
41
0.127
0
VERTEX
8
PART_TOP_2DLINE_130
10
0.752094
20
-0.041402
0
VERTEX
8
PART_TOP_2DLINE_130
10
0.371094
20
-0.041402
0
VERTEX
8
PART_TOP_2DLINE_130
10
0.244094
20
-0.168402
0
VERTEX
8
PART_TOP_2DLINE_130
10
0.244094
20
0.085598
0
VERTEX
8
PART_TOP_2DLINE_130
10
-0.009906
20
-0.168402
0
VERTEX
8
PART_TOP_2DLINE_130
10
-0.009906
20
0.085598
0
VERTEX
8
PART_TOP_2DLINE_130
10
-0.263906
20
-0.168402
0
VERTEX
8
PART_TOP_2DLINE_130
10
-0.263906
20
-0.041402
0
VERTEX
8
PART_TOP_2DLINE_130
10
-0.822706
20
-0.041402
0
SEQEND
0
INSERT
2
SMOOTH_0$127
8
PART_TOP_2DLINE_130
10
0.752094
20
-0.041402
0
INSERT
2
SMOOTH_0$127
8
PART_TOP_2DLINE_130
10
0.371094
20
-0.041402
0
INSERT
2
SMOOTH_0$127
8
PART_TOP_2DLINE_130
10
0.244094
20
-0.168402
0
INSERT
2
SMOOTH_0$127
8
PART_TOP_2DLINE_130
10
0.244094
20
0.085598
0
INSERT
2
SMOOTH_0$127
8
PART_TOP_2DLINE_130
10
-0.009906
20
-0.168402
0
INSERT
2
SMOOTH_0$127
8
PART_TOP_2DLINE_130
10
-0.009906
20
0.085598
0
INSERT
2
SMOOTH_0$127
8
PART_TOP_2DLINE_130
10
-0.263906
20
-0.168402
0
INSERT
2
SMOOTH_0$127
8
PART_TOP_2DLINE_130
10
-0.263906
20
-0.041402
0
INSERT
2
SMOOTH_0$127
8
PART_TOP_2DLINE_130
10
-0.822706
20
-0.041402
0
ENDBLK
0
BLOCK
2
PART_BODY_TOP_22
8
0
10
0
20
0
3
PART_BODY_TOP_22
70
64
0
POLYLINE
8
PART_TOP_2DLINE_01
66
1
40
0.0508
41
0.0508
70
1
0
VERTEX
8
PART_TOP_2DLINE_01
10
-0.85
20
0.4
0
VERTEX
8
PART_TOP_2DLINE_01
10
0.85
20
0.4
0
VERTEX
8
PART_TOP_2DLINE_01
10
0.85
20
-0.4
0
VERTEX
8
PART_TOP_2DLINE_01
10
-0.85
20
-0.4
0
SEQEND
0
INSERT
2
SMOOTH_0$0508
8
PART_TOP_2DLINE_01
10
-0.85
20
0.4
0
INSERT
2
SMOOTH_0$0508
8
PART_TOP_2DLINE_01
10
0.85
20
0.4
0
INSERT
2
SMOOTH_0$0508
8
PART_TOP_2DLINE_01
10
0.85
20
-0.4
0
INSERT
2
SMOOTH_0$0508
8
PART_TOP_2DLINE_01
10
-0.85
20
-0.4
0
ENDBLK
0
BLOCK
2
STK_TOP_386
8
0
10
0
20
0
3
STK_TOP_386
70
64
0
INSERT
2
DRIL_HOLE_0
8
DRIL_PLTE_THRU_01
10
0
20
0
0
INSERT
2
DRIL_HOLE_0
8
DRIL_PLTE_THRU_02
10
0
20
0
0
INSERT
2
DRIL_HOLE_0
8
DRIL_PLTE_THRU_03
10
0
20
0
0
INSERT
2
DRIL_HOLE_0
8
DRIL_PLTE_THRU_04
10
0
20
0
0
INSERT
2
PAD_0
8
PADS_INNER
10
0
20
0
0
INSERT
2
PAD_0
8
PADS_BOT
10
0
20
0
0
INSERT
2
PAD_16
8
PADS_TOP
10
0
20
0
50
90
0
ENDBLK
0
BLOCK
2
PART_BODY_TOP_23
8
0
10
0
20
0
3
PART_BODY_TOP_23
70
64
0
POLYLINE
8
PART_TOP_2DLINE_00
66
1
40
0.254
41
0.254
0
VERTEX
8
PART_TOP_2DLINE_00
10
0
20
1.5
0
VERTEX
8
PART_TOP_2DLINE_00
10
-2.7
20
1.5
0
VERTEX
8
PART_TOP_2DLINE_00
10
-2.7
20
-1.5
0
VERTEX
8
PART_TOP_2DLINE_00
10
0
20
-1.5
0
SEQEND
0
INSERT
2
SMOOTH_0$254
8
PART_TOP_2DLINE_00
10
0
20
1.5
0
INSERT
2
SMOOTH_0$254
8
PART_TOP_2DLINE_00
10
-2.7
20
1.5
0
INSERT
2
SMOOTH_0$254
8
PART_TOP_2DLINE_00
10
-2.7
20
-1.5
0
INSERT
2
SMOOTH_0$254
8
PART_TOP_2DLINE_00
10
0
20
-1.5
0
POLYLINE
8
PART_TOP_2DLINE_00
66
1
40
0.254
41
0.254
0
VERTEX
8
PART_TOP_2DLINE_00
10
0
20
1.5
0
VERTEX
8
PART_TOP_2DLINE_00
10
2.7
20
1.5
0
VERTEX
8
PART_TOP_2DLINE_00
10
2.7
20
-1.5
0
VERTEX
8
PART_TOP_2DLINE_00
10
0
20
-1.5
0
SEQEND
0
INSERT
2
SMOOTH_0$254
8
PART_TOP_2DLINE_00
10
0
20
1.5
0
INSERT
2
SMOOTH_0$254
8
PART_TOP_2DLINE_00
10
2.7
20
1.5
0
INSERT
2
SMOOTH_0$254
8
PART_TOP_2DLINE_00
10
2.7
20
-1.5
0
INSERT
2
SMOOTH_0$254
8
PART_TOP_2DLINE_00
10
0
20
-1.5
0
ENDBLK
0
BLOCK
2
STK_TOP_387
8
0
10
0
20
0
3
STK_TOP_387
70
64
0
INSERT
2
DRIL_HOLE_0
8
DRIL_PLTE_THRU_01
10
0
20
0
0
INSERT
2
DRIL_HOLE_0
8
DRIL_PLTE_THRU_02
10
0
20
0
0
INSERT
2
DRIL_HOLE_0
8
DRIL_PLTE_THRU_03
10
0
20
0
0
INSERT
2
DRIL_HOLE_0
8
DRIL_PLTE_THRU_04
10
0
20
0
0
INSERT
2
PAD_0
8
PADS_INNER
10
0
20
0
0
INSERT
2
PAD_0
8
PADS_BOT
10
0
20
0
0
INSERT
2
PAD_17
8
PADS_TOP
10
0
20
0
50
90
0
ENDBLK
0
BLOCK
2
PART_BODY_TOP_13
8
0
10
0
20
0
3
PART_BODY_TOP_13
70
64
0
POLYLINE
8
PART_TOP_2DLINE_01
66
1
40
0.1016
41
0.1016
0
VERTEX
8
PART_TOP_2DLINE_01
10
-0.1666666667
20
0.4096666667
42
-1.386534195
0
VERTEX
8
PART_TOP_2DLINE_01
10
-0.1666666667
20
0.006
42
-1.386534195
0
VERTEX
8
PART_TOP_2DLINE_01
10
-0.1666666667
20
-0.3773333333
0
SEQEND
0
INSERT
2
SMOOTH_0$1016
8
PART_TOP_2DLINE_01
10
-0.1666666667
20
0.4096666667
0
INSERT
2
SMOOTH_0$1016
8
PART_TOP_2DLINE_01
10
-0.1666666667
20
0.006
0
INSERT
2
SMOOTH_0$1016
8
PART_TOP_2DLINE_01
10
-0.1666666667
20
-0.3773333333
0
POLYLINE
8
PART_TOP_2DLINE_01
66
1
40
0.1016
41
0.1016
0
VERTEX
8
PART_TOP_2DLINE_01
10
-0.1666666667
20
1.2096666667
42
-1.386534195
0
VERTEX
8
PART_TOP_2DLINE_01
10
-0.1666666667
20
0.806
42
-1.386534195
0
VERTEX
8
PART_TOP_2DLINE_01
10
-0.1666666667
20
0.4226666667
0
SEQEND
0
INSERT
2
SMOOTH_0$1016
8
PART_TOP_2DLINE_01
10
-0.1666666667
20
1.2096666667
0
INSERT
2
SMOOTH_0$1016
8
PART_TOP_2DLINE_01
10
-0.1666666667
20
0.806
0
INSERT
2
SMOOTH_0$1016
8
PART_TOP_2DLINE_01
10
-0.1666666667
20
0.4226666667
0
POLYLINE
8
PART_TOP_2DLINE_01
66
1
40
0.1016
41
0.1016
0
VERTEX
8
PART_TOP_2DLINE_01
10
-0.1666666667
20
-0.3903333333
42
-1.386534195
0
VERTEX
8
PART_TOP_2DLINE_01
10
-0.1666666667
20
-0.794
42
-1.386534195
0
VERTEX
8
PART_TOP_2DLINE_01
10
-0.1666666667
20
-1.1773333333
0
SEQEND
0
INSERT
2
SMOOTH_0$1016
8
PART_TOP_2DLINE_01
10
-0.1666666667
20
-0.3903333333
0
INSERT
2
SMOOTH_0$1016
8
PART_TOP_2DLINE_01
10
-0.1666666667
20
-0.794
0
INSERT
2
SMOOTH_0$1016
8
PART_TOP_2DLINE_01
10
-0.1666666667
20
-1.1773333333
0
ENDBLK
0
BLOCK
2
STK_TOP_352
8
0
10
0
20
0
3
STK_TOP_352
70
64
0
INSERT
2
DRIL_HOLE_0
8
DRIL_PLTE_THRU_01
10
0
20
0
0
INSERT
2
DRIL_HOLE_0
8
DRIL_PLTE_THRU_02
10
0
20
0
0
INSERT
2
DRIL_HOLE_0
8
DRIL_PLTE_THRU_03
10
0
20
0
0
INSERT
2
DRIL_HOLE_0
8
DRIL_PLTE_THRU_04
10
0
20
0
0
INSERT
2
PAD_0
8
PADS_INNER
10
0
20
0
0
INSERT
2
PAD_0
8
PADS_BOT
10
0
20
0
0
INSERT
2
PAD_18
8
PADS_TOP
10
0
20
0
50
90
0
ENDBLK
0
BLOCK
2
PART_BODY_TOP_14
8
0
10
0
20
0
3
PART_BODY_TOP_14
70
64
0
POLYLINE
8
PART_TOP_2DLINE_01
66
1
40
0.127
41
0.127
0
VERTEX
8
PART_TOP_2DLINE_01
10
-0.842
20
0
0
VERTEX
8
PART_TOP_2DLINE_01
10
-0.842
20
1.985
0
VERTEX
8
PART_TOP_2DLINE_01
10
0.842
20
1.985
0
VERTEX
8
PART_TOP_2DLINE_01
10
0.842
20
0
0
SEQEND
0
INSERT
2
SMOOTH_0$127
8
PART_TOP_2DLINE_01
10
-0.842
20
0
0
INSERT
2
SMOOTH_0$127
8
PART_TOP_2DLINE_01
10
-0.842
20
1.985
0
INSERT
2
SMOOTH_0$127
8
PART_TOP_2DLINE_01
10
0.842
20
1.985
0
INSERT
2
SMOOTH_0$127
8
PART_TOP_2DLINE_01
10
0.842
20
0
0
POLYLINE
8
PART_TOP_2DLINE_01
66
1
40
0.127
41
0.127
0
VERTEX
8
PART_TOP_2DLINE_01
10
0.842
20
0
0
VERTEX
8
PART_TOP_2DLINE_01
10
0.842
20
-1.985
0
VERTEX
8
PART_TOP_2DLINE_01
10
-0.842
20
-1.985
0
VERTEX
8
PART_TOP_2DLINE_01
10
-0.842
20
0
0
SEQEND
0
INSERT
2
SMOOTH_0$127
8
PART_TOP_2DLINE_01
10
0.842
20
0
0
INSERT
2
SMOOTH_0$127
8
PART_TOP_2DLINE_01
10
0.842
20
-1.985
0
INSERT
2
SMOOTH_0$127
8
PART_TOP_2DLINE_01
10
-0.842
20
-1.985
0
INSERT
2
SMOOTH_0$127
8
PART_TOP_2DLINE_01
10
-0.842
20
0
0
POLYLINE
8
PART_TOP_2DLINE_01
66
1
40
0.127
41
0.127
0
VERTEX
8
PART_TOP_2DLINE_01
10
-0.8
20
0
0
VERTEX
8
PART_TOP_2DLINE_01
10
-0.6
20
0
42
-1.1322839
0
VERTEX
8
PART_TOP_2DLINE_01
10
-0.2
20
0
42
-1.1322839
0
VERTEX
8
PART_TOP_2DLINE_01
10
0.2
20
0
42
-1.1322839
0
VERTEX
8
PART_TOP_2DLINE_01
10
0.6
20
0
0
VERTEX
8
PART_TOP_2DLINE_01
10
0.8
20
0
0
SEQEND
0
INSERT
2
SMOOTH_0$127
8
PART_TOP_2DLINE_01
10
-0.8
20
0
0
INSERT
2
SMOOTH_0$127
8
PART_TOP_2DLINE_01
10
-0.6
20
0
0
INSERT
2
SMOOTH_0$127
8
PART_TOP_2DLINE_01
10
-0.2
20
0
0
INSERT
2
SMOOTH_0$127
8
PART_TOP_2DLINE_01
10
0.2
20
0
0
INSERT
2
SMOOTH_0$127
8
PART_TOP_2DLINE_01
10
0.6
20
0
0
INSERT
2
SMOOTH_0$127
8
PART_TOP_2DLINE_01
10
0.8
20
0
0
ENDBLK
0
BLOCK
2
PART_BODY_TOP_15
8
0
10
0
20
0
3
PART_BODY_TOP_15
70
64
0
POLYLINE
8
PART_TOP_2DLINE_01
66
1
40
0.127
41
0.127
0
VERTEX
8
PART_TOP_2DLINE_01
10
-0.842
20
0
0
VERTEX
8
PART_TOP_2DLINE_01
10
-0.842
20
1.985
0
VERTEX
8
PART_TOP_2DLINE_01
10
0.842
20
1.985
0
VERTEX
8
PART_TOP_2DLINE_01
10
0.842
20
0
0
SEQEND
0
INSERT
2
SMOOTH_0$127
8
PART_TOP_2DLINE_01
10
-0.842
20
0
0
INSERT
2
SMOOTH_0$127
8
PART_TOP_2DLINE_01
10
-0.842
20
1.985
0
INSERT
2
SMOOTH_0$127
8
PART_TOP_2DLINE_01
10
0.842
20
1.985
0
INSERT
2
SMOOTH_0$127
8
PART_TOP_2DLINE_01
10
0.842
20
0
0
POLYLINE
8
PART_TOP_2DLINE_01
66
1
40
0.127
41
0.127
0
VERTEX
8
PART_TOP_2DLINE_01
10
0.842
20
0
0
VERTEX
8
PART_TOP_2DLINE_01
10
0.842
20
-1.985
0
VERTEX
8
PART_TOP_2DLINE_01
10
-0.842
20
-1.985
0
VERTEX
8
PART_TOP_2DLINE_01
10
-0.842
20
0
0
SEQEND
0
INSERT
2
SMOOTH_0$127
8
PART_TOP_2DLINE_01
10
0.842
20
0
0
INSERT
2
SMOOTH_0$127
8
PART_TOP_2DLINE_01
10
0.842
20
-1.985
0
INSERT
2
SMOOTH_0$127
8
PART_TOP_2DLINE_01
10
-0.842
20
-1.985
0
INSERT
2
SMOOTH_0$127
8
PART_TOP_2DLINE_01
10
-0.842
20
0
0
POLYLINE
8
PART_TOP_2DLINE_01
66
1
40
0.127
41
0.127
0
VERTEX
8
PART_TOP_2DLINE_01
10
-0.8
20
0
0
VERTEX
8
PART_TOP_2DLINE_01
10
-0.6
20
0
42
-1.1322839
0
VERTEX
8
PART_TOP_2DLINE_01
10
-0.2
20
0
42
-1.1322839
0
VERTEX
8
PART_TOP_2DLINE_01
10
0.2
20
0
42
-1.1322839
0
VERTEX
8
PART_TOP_2DLINE_01
10
0.6
20
0
0
VERTEX
8
PART_TOP_2DLINE_01
10
0.8
20
0
0
SEQEND
0
INSERT
2
SMOOTH_0$127
8
PART_TOP_2DLINE_01
10
-0.8
20
0
0
INSERT
2
SMOOTH_0$127
8
PART_TOP_2DLINE_01
10
-0.6
20
0
0
INSERT
2
SMOOTH_0$127
8
PART_TOP_2DLINE_01
10
-0.2
20
0
0
INSERT
2
SMOOTH_0$127
8
PART_TOP_2DLINE_01
10
0.2
20
0
0
INSERT
2
SMOOTH_0$127
8
PART_TOP_2DLINE_01
10
0.6
20
0
0
INSERT
2
SMOOTH_0$127
8
PART_TOP_2DLINE_01
10
0.8
20
0
0
ENDBLK
0
BLOCK
2
PART_BODY_TOP_16
8
0
10
0
20
0
3
PART_BODY_TOP_16
70
64
0
POLYLINE
8
PART_TOP_2DLINE_01
66
1
40
0.1016
41
0.1016
0
VERTEX
8
PART_TOP_2DLINE_01
10
0.15
20
0.4
0
VERTEX
8
PART_TOP_2DLINE_01
10
-0.85
20
0.4
0
VERTEX
8
PART_TOP_2DLINE_01
10
-0.85
20
-0.4
0
VERTEX
8
PART_TOP_2DLINE_01
10
-0.12954
20
-0.4
0
SEQEND
0
INSERT
2
SMOOTH_0$1016
8
PART_TOP_2DLINE_01
10
0.15
20
0.4
0
INSERT
2
SMOOTH_0$1016
8
PART_TOP_2DLINE_01
10
-0.85
20
0.4
0
INSERT
2
SMOOTH_0$1016
8
PART_TOP_2DLINE_01
10
-0.85
20
-0.4
0
INSERT
2
SMOOTH_0$1016
8
PART_TOP_2DLINE_01
10
-0.12954
20
-0.4
0
POLYLINE
8
PART_TOP_2DLINE_01
66
1
40
0.1016
41
0.1016
0
VERTEX
8
PART_TOP_2DLINE_01
10
-0.139
20
-0.4
0
VERTEX
8
PART_TOP_2DLINE_01
10
0.85
20
-0.4
0
VERTEX
8
PART_TOP_2DLINE_01
10
0.85
20
0.4
0
VERTEX
8
PART_TOP_2DLINE_01
10
0.14148
20
0.4
0
SEQEND
0
INSERT
2
SMOOTH_0$1016
8
PART_TOP_2DLINE_01
10
-0.139
20
-0.4
0
INSERT
2
SMOOTH_0$1016
8
PART_TOP_2DLINE_01
10
0.85
20
-0.4
0
INSERT
2
SMOOTH_0$1016
8
PART_TOP_2DLINE_01
10
0.85
20
0.4
0
INSERT
2
SMOOTH_0$1016
8
PART_TOP_2DLINE_01
10
0.14148
20
0.4
0
POLYLINE
8
PART_TOP_2DLINE_01
66
1
40
0.0762
41
0.0762
0
VERTEX
8
PART_TOP_2DLINE_01
10
-0.0980646667
20
0.2794
42
-1.386534195
0
VERTEX
8
PART_TOP_2DLINE_01
10
-0.0980646667
20
-0.014618
42
-1.3852597947
0
VERTEX
8
PART_TOP_2DLINE_01
10
-0.0904666667
20
-0.3162
0
SEQEND
0
INSERT
2
SMOOTH_0$0762
8
PART_TOP_2DLINE_01
10
-0.0980646667
20
0.2794
0
INSERT
2
SMOOTH_0$0762
8
PART_TOP_2DLINE_01
10
-0.0980646667
20
-0.014618
0
INSERT
2
SMOOTH_0$0762
8
PART_TOP_2DLINE_01
10
-0.0904666667
20
-0.3162
0
ENDBLK
0
BLOCK
2
STK_TOP_88
8
0
10
0
20
0
3
STK_TOP_88
70
64
0
INSERT
2
DRIL_HOLE_0
8
DRIL_PLTE_THRU_01
10
0
20
0
0
INSERT
2
DRIL_HOLE_0
8
DRIL_PLTE_THRU_02
10
0
20
0
0
INSERT
2
DRIL_HOLE_0
8
DRIL_PLTE_THRU_03
10
0
20
0
0
INSERT
2
DRIL_HOLE_0
8
DRIL_PLTE_THRU_04
10
0
20
0
0
INSERT
2
PAD_0
8
PADS_INNER
10
0
20
0
0
INSERT
2
PAD_0
8
PADS_BOT
10
0
20
0
0
INSERT
2
PAD_4
8
PADS_TOP
10
0
20
0
50
90
0
ENDBLK
0
BLOCK
2
PART_BODY_TOP_17
8
0
10
0
20
0
3
PART_BODY_TOP_17
70
64
0
POLYLINE
8
PART_TOP_2DLINE_01
66
1
40
0.1016
41
0.1016
70
1
0
VERTEX
8
PART_TOP_2DLINE_01
10
-1.25
20
0.6
0
VERTEX
8
PART_TOP_2DLINE_01
10
-1.25
20
-0.6
0
VERTEX
8
PART_TOP_2DLINE_01
10
1.25
20
-0.6
0
VERTEX
8
PART_TOP_2DLINE_01
10
1.25
20
0.6
0
SEQEND
0
INSERT
2
SMOOTH_0$1016
8
PART_TOP_2DLINE_01
10
-1.25
20
0.6
0
INSERT
2
SMOOTH_0$1016
8
PART_TOP_2DLINE_01
10
-1.25
20
-0.6
0
INSERT
2
SMOOTH_0$1016
8
PART_TOP_2DLINE_01
10
1.25
20
-0.6
0
INSERT
2
SMOOTH_0$1016
8
PART_TOP_2DLINE_01
10
1.25
20
0.6
0
POLYLINE
8
PART_TOP_2DLINE_01
66
1
40
0.1016
41
0.1016
0
VERTEX
8
PART_TOP_2DLINE_01
10
-0.1666666667
20
0.4096666667
42
-1.386534195
0
VERTEX
8
PART_TOP_2DLINE_01
10
-0.1666666667
20
0.006
42
-1.386534195
0
VERTEX
8
PART_TOP_2DLINE_01
10
-0.1666666667
20
-0.3773333333
0
SEQEND
0
INSERT
2
SMOOTH_0$1016
8
PART_TOP_2DLINE_01
10
-0.1666666667
20
0.4096666667
0
INSERT
2
SMOOTH_0$1016
8
PART_TOP_2DLINE_01
10
-0.1666666667
20
0.006
0
INSERT
2
SMOOTH_0$1016
8
PART_TOP_2DLINE_01
10
-0.1666666667
20
-0.3773333333
0
ENDBLK
0
BLOCK
2
STK_TOP_384
8
0
10
0
20
0
3
STK_TOP_384
70
64
0
INSERT
2
DRIL_HOLE_0
8
DRIL_PLTE_THRU_01
10
0
20
0
0
INSERT
2
DRIL_HOLE_0
8
DRIL_PLTE_THRU_02
10
0
20
0
0
INSERT
2
DRIL_HOLE_0
8
DRIL_PLTE_THRU_03
10
0
20
0
0
INSERT
2
DRIL_HOLE_0
8
DRIL_PLTE_THRU_04
10
0
20
0
0
INSERT
2
PAD_0
8
PADS_INNER
10
0
20
0
0
INSERT
2
PAD_0
8
PADS_BOT
10
0
20
0
0
INSERT
2
PAD_19
8
PADS_TOP
10
0
20
0
50
90
0
ENDBLK
999
*** POWERPCB  PCB PARAMETER ***
0
BLOCK
2
PCB_PARAMS
8
0
10
0
20
0
3
PCB_PARAMS
70
64
999
 *  1.Job name           2.Backupfile name       3.CursorType
999
 *  4.TearDropFlag       5.HighlighNetsFlag      6.HatchDisplayFlag
999
 *  7.PadsFlag           8.TracksFlag            9.ViasFlag
999
 * 10.CopperFlag        11.LinesFlag            12.TextFlag
999
 * 13.TopComponentFlag  14.BottomComponentFlag  16.ObjectSnapFlags
0
TEXT
8
PCB_PARAMS
10
0
20
-3.048
40
1.778
1
A:=PX4FMUV5-IMU-V1.1.pcb <> 5 1 0 1 1 1 1 1 1 1 1 1 0 502 0
999
 *  1.RefDesHeight       2.RefDesWidth           3.DefaultWidth
999
 *  4.VGX                5.VGY                   6.OVR
999
 *  7.HatchGrid          8.ObjectSnapRadius
0
TEXT
8
PCB_PARAMS
10
0
20
-6.096
40
1.778
1
B:=2.54 0.254 0.2032 0.0254 0.0254 0.0762 1.27 0.635
999
 *  1.ScaleFactor        2.NetAttributeFlags     3.BackupInterval
999
 *  4.WorkingLevel       5.HatchMode             6.HatchDirection
999
 *  7.ConnectionColor    8.BackgroundColor       9.ForegroundColor
999
 * 10.BoardOutlineColor
0
TEXT
8
PCB_PARAMS
10
0
20
-9.144
40
1.778
1
C:=28.9103908539 10002 20 1 0 0 0 0 11 11
999
 * MitreAngle0 - MitreAngle6
0
TEXT
8
PCB_PARAMS
10
0
20
-12.192
40
1.778
1
D:=324000000 324000000 324000000 324000000 324000000 324000000 324000000
999
 * Hatch & Keepout Parameters
0
TEXT
8
PCB_PARAMS
10
0
20
-15.24
40
1.778
1
E:=0.5 0 0 2.54 0 1
999
 * Fanout Parameters
0
TEXT
8
PCB_PARAMS
10
0
20
-18.288
40
1.778
1
F:=0.635 0.635 6.35 1 2 0 1 1 0 0 1 1 1 1
999
 * Pad Entry Parameters
0
TEXT
8
PCB_PARAMS
10
0
20
-21.336
40
1.778
1
P:= 1 1 1 1
999
 * DFF Parameters
0
TEXT
8
PCB_PARAMS
10
0
20
-24.384
40
1.778
1
Q:=89.9999 3967 114300 114300 114300 5 4 114300 114300 114300 114300 1 114300 1 114300 1 114300 0
0
ENDBLK
0
BLOCK
2
DRIL_SYMBOL_0
8
0
10
0
20
0
3
DRIL_SYMBOL_0
70
64
0
ENDBLK
999
*** POWERPCB  SMOOTH CIRCLE ***
0
BLOCK
2
SMOOTH_0$2
8
0
10
0
20
0
3
SMOOTH_0$2
70
64
0
POLYLINE
8
0
66
1
40
0.1
41
0.1
70
1
0
VERTEX
8
0
10
-0.05
20
0
42
1
0
VERTEX
8
0
10
0.05
20
0
42
1
0
SEQEND
0
ENDBLK
0
BLOCK
2
SMOOTH_0$2032
8
0
10
0
20
0
3
SMOOTH_0$2032
70
64
0
POLYLINE
8
0
66
1
40
0.1016
41
0.1016
70
1
0
VERTEX
8
0
10
-0.0508
20
0
42
1
0
VERTEX
8
0
10
0.0508
20
0
42
1
0
SEQEND
0
ENDBLK
0
BLOCK
2
SMOOTH_0$0508
8
0
10
0
20
0
3
SMOOTH_0$0508
70
64
0
POLYLINE
8
0
66
1
40
0.0254
41
0.0254
70
1
0
VERTEX
8
0
10
-0.0127
20
0
42
1
0
VERTEX
8
0
10
0.0127
20
0
42
1
0
SEQEND
0
ENDBLK
0
BLOCK
2
SMOOTH_0$0999993333
8
0
10
0
20
0
3
SMOOTH_0$0999993333
70
64
0
POLYLINE
8
0
66
1
40
0.0499993333
41
0.0499993333
70
1
0
VERTEX
8
0
10
-0.0249993333
20
0
42
1
0
VERTEX
8
0
10
0.0249993333
20
0
42
1
0
SEQEND
0
ENDBLK
0
BLOCK
2
SMOOTH_0$1999993333
8
0
10
0
20
0
3
SMOOTH_0$1999993333
70
64
0
POLYLINE
8
0
66
1
40
0.0999993333
41
0.0999993333
70
1
0
VERTEX
8
0
10
-0.0499993333
20
0
42
1
0
VERTEX
8
0
10
0.0499993333
20
0
42
1
0
SEQEND
0
ENDBLK
0
BLOCK
2
SMOOTH_0$127
8
0
10
0
20
0
3
SMOOTH_0$127
70
64
0
POLYLINE
8
0
66
1
40
0.0635
41
0.0635
70
1
0
VERTEX
8
0
10
-0.03175
20
0
42
1
0
VERTEX
8
0
10
0.03175
20
0
42
1
0
SEQEND
0
ENDBLK
0
BLOCK
2
SMOOTH_0$1016
8
0
10
0
20
0
3
SMOOTH_0$1016
70
64
0
POLYLINE
8
0
66
1
40
0.0508
41
0.0508
70
1
0
VERTEX
8
0
10
-0.0254
20
0
42
1
0
VERTEX
8
0
10
0.0254
20
0
42
1
0
SEQEND
0
ENDBLK
0
BLOCK
2
SMOOTH_0$1524
8
0
10
0
20
0
3
SMOOTH_0$1524
70
64
0
POLYLINE
8
0
66
1
40
0.0762
41
0.0762
70
1
0
VERTEX
8
0
10
-0.0381
20
0
42
1
0
VERTEX
8
0
10
0.0381
20
0
42
1
0
SEQEND
0
ENDBLK
0
BLOCK
2
SMOOTH_0$254
8
0
10
0
20
0
3
SMOOTH_0$254
70
64
0
POLYLINE
8
0
66
1
40
0.127
41
0.127
70
1
0
VERTEX
8
0
10
-0.0635
20
0
42
1
0
VERTEX
8
0
10
0.0635
20
0
42
1
0
SEQEND
0
ENDBLK
0
BLOCK
2
SMOOTH_0$15
8
0
10
0
20
0
3
SMOOTH_0$15
70
64
0
POLYLINE
8
0
66
1
40
0.075
41
0.075
70
1
0
VERTEX
8
0
10
-0.0375
20
0
42
1
0
VERTEX
8
0
10
0.0375
20
0
42
1
0
SEQEND
0
ENDBLK
0
BLOCK
2
SMOOTH_0$0762
8
0
10
0
20
0
3
SMOOTH_0$0762
70
64
0
POLYLINE
8
0
66
1
40
0.0381
41
0.0381
70
1
0
VERTEX
8
0
10
-0.01905
20
0
42
1
0
VERTEX
8
0
10
0.01905
20
0
42
1
0
SEQEND
0
ENDBLK
0
BLOCK
2
PAD_0
8
0
10
0
20
0
3
PAD_0
70
64
0
POLYLINE
8
0
70
1
66
1
0
VERTEX
8
0
10
0
20
0
42
1
0
VERTEX
8
0
10
0
20
0
42
1
0
SEQEND
0
ENDBLK
0
BLOCK
2
PAD_1
8
0
10
0
20
0
3
PAD_1
70
64
0
POLYLINE
8
0
70
1
66
1
40
0.5
41
0.5
0
VERTEX
8
0
10
0
20
-0.25
42
1
0
VERTEX
8
0
10
0
20
0.25
42
1
0
SEQEND
0
ENDBLK
0
BLOCK
2
PAD_2
8
0
10
0
20
0
3
PAD_2
70
64
0
POLYLINE
8
0
66
1
40
0.2999993333
41
0.2999993333
0
VERTEX
8
0
10
-0.4
20
0
0
VERTEX
8
0
10
0.4
20
0
0
SEQEND
0
ENDBLK
0
BLOCK
2
PAD_3
8
0
10
0
20
0
3
PAD_3
70
64
0
POLYLINE
8
0
66
1
40
2
41
2
0
VERTEX
8
0
10
-1
20
0
0
VERTEX
8
0
10
1
20
0
0
SEQEND
0
ENDBLK
0
BLOCK
2
PAD_4
8
0
10
0
20
0
3
PAD_4
70
64
0
POLYLINE
8
0
66
1
40
0.5
41
0.5
0
VERTEX
8
0
10
-0.275
20
0
0
VERTEX
8
0
10
0.275
20
0
0
SEQEND
0
ENDBLK
0
BLOCK
2
PAD_5
8
0
10
0
20
0
3
PAD_5
70
64
0
POLYLINE
8
0
70
1
66
1
40
0.2999993333
41
0.2999993333
0
VERTEX
8
0
10
-0.7000006667
20
-0.1499993333
0
VERTEX
8
0
10
0.7000006667
20
-0.1499993333
42
1
0
VERTEX
8
0
10
0.7000006667
20
0.1499993333
0
VERTEX
8
0
10
-0.7000006667
20
0.1499993333
42
1
0
SEQEND
0
ENDBLK
0
BLOCK
2
PAD_6
8
0
10
0
20
0
3
PAD_6
70
64
0
POLYLINE
8
0
66
1
40
0.26
41
0.26
0
VERTEX
8
0
10
-0.475
20
0
0
VERTEX
8
0
10
0.475
20
0
0
SEQEND
0
ENDBLK
0
BLOCK
2
PAD_7
8
0
10
0
20
0
3
PAD_7
70
64
0
POLYLINE
8
0
66
1
40
0.75
41
0.75
0
VERTEX
8
0
10
-0.45
20
0
0
VERTEX
8
0
10
0.45
20
0
0
SEQEND
0
ENDBLK
0
BLOCK
2
PAD_8
8
0
10
0
20
0
3
PAD_8
70
64
0
POLYLINE
8
0
66
1
40
0.3
41
0.3
0
VERTEX
8
0
10
-0.35
20
0
0
VERTEX
8
0
10
0.35
20
0
0
SEQEND
0
ENDBLK
0
BLOCK
2
PAD_9
8
0
10
0
20
0
3
PAD_9
70
64
0
POLYLINE
8
0
66
1
40
0.3
41
0.3
0
VERTEX
8
0
10
-0.25
20
0
0
VERTEX
8
0
10
0.25
20
0
0
SEQEND
0
ENDBLK
0
BLOCK
2
PAD_10
8
0
10
0
20
0
3
PAD_10
70
64
0
POLYLINE
8
0
66
1
40
1.1
41
1.1
0
VERTEX
8
0
10
-0.6
20
0
0
VERTEX
8
0
10
0.6
20
0
0
SEQEND
0
ENDBLK
0
BLOCK
2
PAD_11
8
0
10
0
20
0
3
PAD_11
70
64
0
POLYLINE
8
0
66
1
40
1.524
41
1.524
0
VERTEX
8
0
10
-1.27
20
0
0
VERTEX
8
0
10
1.27
20
0
0
SEQEND
0
ENDBLK
0
BLOCK
2
PAD_12
8
0
10
0
20
0
3
PAD_12
70
64
0
POLYLINE
8
0
66
1
40
1.524
41
1.524
0
VERTEX
8
0
10
-0.762
20
0
0
VERTEX
8
0
10
0.762
20
0
0
SEQEND
0
ENDBLK
0
BLOCK
2
PAD_13
8
0
10
0
20
0
3
PAD_13
70
64
0
POLYLINE
8
0
70
1
66
1
40
0.2999993333
41
0.2999993333
0
VERTEX
8
0
10
-0.6000006667
20
-0.1499993333
0
VERTEX
8
0
10
0.6000006667
20
-0.1499993333
42
1
0
VERTEX
8
0
10
0.6000006667
20
0.1499993333
0
VERTEX
8
0
10
-0.6000006667
20
0.1499993333
42
1
0
SEQEND
0
ENDBLK
0
BLOCK
2
PAD_14
8
0
10
0
20
0
3
PAD_14
70
64
0
POLYLINE
8
0
70
1
66
1
40
0.6985
41
0.6985
0
VERTEX
8
0
10
0
20
-0.34925
42
1
0
VERTEX
8
0
10
0
20
0.34925
42
1
0
SEQEND
0
ENDBLK
0
BLOCK
2
PAD_15
8
0
10
0
20
0
3
PAD_15
70
64
0
POLYLINE
8
0
66
1
40
1.25
41
1.25
0
VERTEX
8
0
10
-0.9
20
0
0
VERTEX
8
0
10
0.9
20
0
0
SEQEND
0
ENDBLK
0
BLOCK
2
PAD_16
8
0
10
0
20
0
3
PAD_16
70
64
0
POLYLINE
8
0
66
1
40
0.4
41
0.4
0
VERTEX
8
0
10
-0.25
20
0
0
VERTEX
8
0
10
0.25
20
0
0
SEQEND
0
ENDBLK
0
BLOCK
2
PAD_17
8
0
10
0
20
0
3
PAD_17
70
64
0
POLYLINE
8
0
66
1
40
1.4
41
1.4
0
VERTEX
8
0
10
-1.25
20
0
0
VERTEX
8
0
10
1.25
20
0
0
SEQEND
0
ENDBLK
0
BLOCK
2
PAD_18
8
0
10
0
20
0
3
PAD_18
70
64
0
POLYLINE
8
0
66
1
40
1.2
41
1.2
0
VERTEX
8
0
10
-1.35
20
0
0
VERTEX
8
0
10
1.35
20
0
0
SEQEND
0
ENDBLK
0
BLOCK
2
PAD_19
8
0
10
0
20
0
3
PAD_19
70
64
0
POLYLINE
8
0
66
1
40
0.65
41
0.65
0
VERTEX
8
0
10
-0.45
20
0
0
VERTEX
8
0
10
0.45
20
0
0
SEQEND
0
ENDBLK
999
*** POWERPCB  DRILL HOLE ***
0
BLOCK
2
DRIL_HOLE_0
8
0
10
0
20
0
3
DRIL_HOLE_0
70
64
0
POLYLINE
8
0
66
1
70
1
0
VERTEX
8
0
10
0
20
0
42
1
0
VERTEX
8
0
10
0
20
0
42
1
0
SEQEND
0
INSERT
2
DRIL_SYMBOL_0
8
0
10
0
20
0
0
ENDBLK
0
ENDSEC
0
SECTION
2
ENTITIES
999
*** POWERPCB  DBLAYER ***
0
INSERT
2
DBLAYERS
8
0
10
0
20
0
999
*** POWERPCB  BOARD ***
0
INSERT
2
BOARD_8
8
0
10
0.3556
20
13.589
999
*** POWERPCB  2DLINE ***
999
*** POWERPCB  FREE TEXT ***
0
TEXT
8
TEXT_129
10
5.8928
20
8.8392
40
0.889
1
HMGX2-IMU-V1.0
41
0.75
7
W0$127
0
TEXT
8
TEXT_126
10
12.827
20
11.2776
40
1.1557
1
PX4FMUV5
41
0.75
7
W0$1524
0
TEXT
8
TEXT_126
10
13.4874
20
9.7536
40
1.1557
1
IMU-V1.1
41
0.75
7
W0$254
999
*** POWERPCB  COMPONENT ***
0
INSERT
2
PART_TOP_0
8
0
10
18.2372
20
8.4836
0
INSERT
2
PART_TOP_1
8
0
10
9.5
20
7.5
50
90
0
INSERT
2
PART_TOP_2
8
0
10
10.999978
20
11.43
50
270
0
INSERT
2
PART_TOP_3
8
0
10
11.999976
20
11.43
50
270
0
INSERT
2
PART_TOP_4
8
0
10
13.208
20
8.636
50
270
0
INSERT
2
PART_TOP_5
8
0
10
13.208
20
6.1976
50
90
0
INSERT
2
PART_TOP_6
8
0
10
2.9464
20
9.3
50
90
0
INSERT
2
PART_TOP_7
8
0
10
3.99999
20
3
0
INSERT
2
PART_TOP_8
8
0
10
7.7978
20
2.922524
50
270
0
INSERT
2
PART_TOP_9
8
0
10
7.7978
20
1.0668
50
90
0
INSERT
2
PART_TOP_10
8
0
10
6.402324
20
11.43
50
90
0
INSERT
2
PART_TOP_11
8
0
10
7.392924
20
11.43
50
90
0
INSERT
2
PART_TOP_12
8
0
10
9.19988
20
11.684
50
180
0
INSERT
2
PART_TOP_13
8
0
10
8.9916
20
2.413
50
90
0
INSERT
2
PART_TOP_14
8
0
10
11.049
20
1.6764
0
INSERT
2
PART_TOP_15
8
0
10
11.049
20
3.0988
0
INSERT
2
PART_TOP_16
8
0
10
17
20
2.2
50
270
999
*** POWERPCB  PCB PARAMETER ***
0
INSERT
2
PCB_PARAMS
8
0
10
0
20
0
0
ENDSEC
0
EOF
